# MagicaVoxel @ Ephtracy

# group
o 

# material
mtllib Ewok02-Blanco.mtl
usemtl palette

# normals
vn -1 0 0
vn 1 0 0
vn 0 0 1
vn 0 0 -1
vn 0 -1 0
vn 0 1 0

# texcoords
vt 0.416016 0.5
vt 0.537109 0.5
vt 0.876953 0.5
vt 0.962891 0.5
vt 0.966797 0.5
vt 0.994141 0.5

# verts
v -1.2 0.9 0.6
v -1.2 0.9 0.3
v -1.2 1 0.3
v -1.2 1 0.2
v -1.2 1.1 0.6
v -1.2 1.1 0.5
v -1.2 1.3 0.5
v -1.2 1.3 0.4
v -1.2 1.3 0.2
v -1.2 1.3 0.1
v -1.2 1.5 0.1
v -1.2 1.5 -5.96046e-08
v -1.2 1.8 0.4
v -1.2 1.8 0.3
v -1.2 1.8 0.1
v -1.2 1.8 -5.96046e-08
v -1.2 1.9 0.5
v -1.2 1.9 0.3
v -1.2 1.9 0.1
v -1.2 1.9 -5.96046e-08
v -1.2 2 0.5
v -1.2 2 0.3
v -1.2 2 0.1
v -1.2 2 -5.96046e-08
v -1.2 2.1 0.3
v -1.2 2.1 0.1
v -1.1 1.1 0.6
v -1.1 1.1 0.5
v -1.1 1.2 0.6
v -1.1 1.2 0.5
v -1.1 1.2 0.2
v -1.1 1.2 0.1
v -1.1 1.3 0.5
v -1.1 1.3 0.4
v -1.1 1.3 0.2
v -1.1 1.3 0.1
v -1.1 1.4 0.5
v -1.1 1.4 0.4
v -1.1 1.4 0.1
v -1.1 1.4 -5.96046e-08
v -1.1 1.5 0.1
v -1.1 1.5 -5.96046e-08
v -1.1 1.8 0.5
v -1.1 1.8 0.4
v -1.1 1.8 0.3
v -1.1 1.8 0.1
v -1.1 1.8 -5.96046e-08
v -1.1 1.9 0.5
v -1.1 1.9 0.4
v -1.1 1.9 0.3
v -1.1 1.9 0.1
v -1.1 1.9 -5.96046e-08
v -1.1 1.9 -0.1
v -1.1 2 0.4
v -1.1 2 0.3
v -1.1 2 0.1
v -1.1 2 -5.96046e-08
v -1.1 2 -0.1
v -1.1 2.1 0.3
v -1.1 2.1 0.1
v -1.1 2.4 0.4
v -1.1 2.4 -5.96046e-08
v -1 1.8 -5.96046e-08
v -1 1.8 -0.1
v -1 1.9 -5.96046e-08
v -1 1.9 -0.1
v -1 2 0.5
v -1 2 0.4
v -1 2 -5.96046e-08
v -1 2 -0.1
v -1 2.3 0.5
v -1 2.3 0.4
v -1 2.4 -5.96046e-08
v -1 2.5 -5.96046e-08
v -1 2.5 -0.1
v -0.9 2 -0.1
v -0.9 2 -0.2
v -0.9 2.1 0.6
v -0.9 2.1 0.5
v -0.9 2.3 0.5
v -0.9 2.3 0.4
v -0.9 2.4 0.6
v -0.9 2.4 0.4
v -0.9 2.4 -5.96046e-08
v -0.9 2.4 -0.1
v -0.9 2.4 -0.2
v -0.9 2.5 0.4
v -0.9 2.5 -5.96046e-08
v -0.8 1.8 0.6
v -0.8 1.8 0.4
v -0.8 1.9 0.5
v -0.8 1.9 0.4
v -0.8 2.1 0.6
v -0.8 2.1 0.5
v -0.8 2.5 0.4
v -0.8 2.5 -0.1
v -0.8 2.6 0.8
v -0.8 2.6 0.4
v -0.8 2.7 0.8
v -0.8 2.7 0.5
v -0.8 2.8 0.5
v -0.8 2.8 0.4
v -0.8 2.8 -5.96046e-08
v -0.8 2.8 -0.1
v -0.8 3.1 0.4
v -0.8 3.1 -5.96046e-08
v -0.8 3.2 0.4
v -0.8 3.2 -5.96046e-08
v -0.8 3.6 0.4
v -0.8 3.6 -5.96046e-08
v -0.7 0.9 0.4
v -0.7 0.9 -5.96046e-08
v -0.7 1.7 0.5
v -0.7 1.7 0.4
v -0.7 1.8 0.5
v -0.7 1.8 0.4
v -0.7 1.8 -5.96046e-08
v -0.7 1.8 -0.1
v -0.7 1.8 -0.2
v -0.7 1.9 -0.2
v -0.7 1.9 -0.3
v -0.7 2 -0.1
v -0.7 2 -0.2
v -0.7 2.3 0.7
v -0.7 2.3 0.6
v -0.7 2.4 0.6
v -0.7 2.4 0.4
v -0.7 2.4 -0.1
v -0.7 2.4 -0.2
v -0.7 2.5 -0.1
v -0.7 2.5 -0.3
v -0.7 2.6 0.7
v -0.7 2.6 0.4
v -0.7 2.7 0.8
v -0.7 2.7 0.5
v -0.7 2.7 -0.1
v -0.7 2.7 -0.4
v -0.7 2.8 0.8
v -0.7 2.8 0.7
v -0.7 2.8 0.5
v -0.7 2.8 0.4
v -0.7 2.8 -5.96046e-08
v -0.7 2.8 -0.1
v -0.7 2.8 -0.3
v -0.7 2.8 -0.4
v -0.7 3.1 0.7
v -0.7 3.1 0.6
v -0.7 3.1 0.4
v -0.7 3.1 -5.96046e-08
v -0.7 3.2 0.4
v -0.7 3.2 -5.96046e-08
v -0.7 3.3 0.6
v -0.7 3.3 0.4
v -0.7 3.3 -0.2
v -0.7 3.3 -0.3
v -0.7 3.4 -5.96046e-08
v -0.7 3.4 -0.2
v -0.7 3.6 0.4
v -0.7 3.6 -5.96046e-08
v -0.7 3.7 0.4
v -0.7 3.7 -5.96046e-08
v -0.6 0 0.7
v -0.6 0 -5.96046e-08
v -0.6 0.1 0.7
v -0.6 0.1 0.6
v -0.6 0.2 0.6
v -0.6 0.2 0.4
v -0.6 0.9 0.5
v -0.6 0.9 0.4
v -0.6 0.9 -5.96046e-08
v -0.6 0.9 -0.1
v -0.6 1.7 0.7
v -0.6 1.7 0.5
v -0.6 1.7 0.4
v -0.6 1.7 -0.1
v -0.6 1.7 -0.2
v -0.6 1.8 0.6
v -0.6 1.8 0.5
v -0.6 1.8 -5.96046e-08
v -0.6 1.8 -0.1
v -0.6 1.8 -0.2
v -0.6 2.2 0.8
v -0.6 2.2 0.7
v -0.6 2.3 0.7
v -0.6 2.3 0.6
v -0.6 2.5 0.8
v -0.6 2.5 0.7
v -0.6 2.6 -0.1
v -0.6 2.6 -0.3
v -0.6 2.7 -0.1
v -0.6 2.7 -0.3
v -0.6 2.8 -0.3
v -0.6 2.8 -0.4
v -0.6 3 0.4
v -0.6 3 0.3
v -0.6 3.1 0.7
v -0.6 3.1 0.6
v -0.6 3.1 0.4
v -0.6 3.1 0.3
v -0.6 3.3 0.6
v -0.6 3.3 -0.2
v -0.6 3.3 -0.3
v -0.6 3.4 0.7
v -0.6 3.4 0.6
v -0.6 3.4 -5.96046e-08
v -0.6 3.4 -0.2
v -0.6 3.4 -0.3
v -0.6 3.4 -0.4
v -0.6 3.5 -5.96046e-08
v -0.6 3.5 -0.3
v -0.5 0 -5.96046e-08
v -0.5 0 -0.1
v -0.5 0.1 0.7
v -0.5 0.1 0.6
v -0.5 0.2 0.7
v -0.5 0.2 0.6
v -0.5 0.2 0.5
v -0.5 0.2 0.4
v -0.5 0.9 0.6
v -0.5 0.9 0.5
v -0.5 0.9 0.4
v -0.5 0.9 -5.96046e-08
v -0.5 0.9 -0.1
v -0.5 0.9 -0.2
v -0.5 1.7 0.6
v -0.5 1.7 0.5
v -0.5 1.7 -0.1
v -0.5 1.7 -0.2
v -0.5 1.7 -0.3
v -0.5 1.9 -0.2
v -0.5 1.9 -0.3
v -0.5 2.5 -0.1
v -0.5 2.5 -0.3
v -0.5 2.6 -0.1
v -0.5 2.6 -0.3
v -0.5 3.1 0.8
v -0.5 3.1 0.7
v -0.5 3.2 0.5
v -0.5 3.2 0.4
v -0.5 3.2 0.3
v -0.5 3.3 0.6
v -0.5 3.3 0.5
v -0.5 3.4 0.7
v -0.5 3.4 0.6
v -0.5 3.4 0.5
v -0.5 3.4 0.3
v -0.5 3.5 0.8
v -0.5 3.5 0.5
v -0.5 3.5 0.4
v -0.5 3.5 0.3
v -0.5 3.6 0.4
v -0.5 3.6 0.3
v -0.4 0.8 0.6
v -0.4 0.8 0.5
v -0.4 0.8 -0.1
v -0.4 0.8 -0.2
v -0.4 0.9 0.6
v -0.4 0.9 0.5
v -0.4 0.9 -0.1
v -0.4 0.9 -0.2
v -0.4 1.6 0.7
v -0.4 1.6 0.6
v -0.4 1.7 0.7
v -0.4 1.7 0.6
v -0.4 3.4 0.5
v -0.4 3.4 0.4
v -0.4 3.4 0.3
v -0.4 3.5 0.7
v -0.4 3.5 0.5
v -0.4 3.5 0.4
v -0.4 3.5 0.3
v -0.4 3.5 -5.96046e-08
v -0.4 3.5 -0.2
v -0.4 3.6 0.7
v -0.4 3.6 0.4
v -0.4 3.6 -5.96046e-08
v -0.4 3.6 -0.2
v -0.3 1.5 0.7
v -0.3 1.5 0.6
v -0.3 1.6 0.7
v -0.3 1.6 0.6
v -0.3 1.6 -0.2
v -0.3 1.6 -0.3
v -0.3 1.7 -0.2
v -0.3 1.7 -0.3
v -0.3 2.6 -0.3
v -0.3 2.6 -0.4
v -0.3 2.7 -0.3
v -0.3 2.7 -0.4
v -0.3 2.8 -0.4
v -0.3 2.8 -0.5
v -0.3 3.2 -0.4
v -0.3 3.2 -0.5
v -0.2 2.4 -0.3
v -0.2 2.4 -0.4
v -0.2 2.6 -0.3
v -0.2 2.6 -0.4
v -0.2 2.8 0.7
v -0.2 2.8 0.6
v -0.2 2.9 0.7
v -0.2 2.9 0.6
v -0.2 3.6 0.3
v -0.2 3.6 -5.96046e-08
v -0.2 3.7 0.3
v -0.2 3.7 -5.96046e-08
v -0.0999999 2.7 0.7
v -0.0999999 2.7 0.6
v -0.0999999 2.8 0.7
v -0.0999999 2.8 0.6
v -0.0999999 2.9 -0.5
v -0.0999999 2.9 -0.6
v -0.0999999 3.1 -0.5
v -0.0999999 3.1 -0.6
v -0.0999999 3.6 0.4
v -0.0999999 3.6 0.3
v -0.0999999 3.7 0.4
v -0.0999999 3.7 0.3
v 0.1 0 0.7
v 0.1 0 -5.96046e-08
v 0.1 0.1 0.7
v 0.1 0.1 0.6
v 0.1 0.2 0.6
v 0.1 0.2 0.4
v 0.1 0.8 0.4
v 0.1 0.8 -5.96046e-08
v 0.1 1.5 0.7
v 0.1 1.5 0.6
v 0.1 1.6 0.7
v 0.1 1.6 0.6
v 0.2 0 -5.96046e-08
v 0.2 0 -0.1
v 0.2 0.1 0.7
v 0.2 0.1 0.6
v 0.2 0.2 0.7
v 0.2 0.2 0.6
v 0.2 0.2 0.5
v 0.2 0.2 0.4
v 0.2 0.8 0.5
v 0.2 0.8 0.4
v 0.2 0.8 -5.96046e-08
v 0.2 0.8 -0.1
v 0.2 2.4 0.8
v 0.2 2.4 0.7
v 0.2 2.5 0.8
v 0.2 2.5 0.7
v 0.2 2.5 0.6
v 0.2 2.6 0.7
v 0.2 2.6 0.6
v 0.2 3.5 0.7
v 0.2 3.5 0.6
v 0.2 3.6 0.7
v 0.2 3.6 0.6
v 0.3 3.2 0.8
v 0.3 3.2 0.7
v 0.3 3.3 0.8
v 0.3 3.3 0.7
v 0.4 2.2 0.8
v 0.4 2.2 0.7
v 0.4 2.4 0.8
v 0.4 2.4 0.7
v 0.4 2.6 0.8
v 0.4 2.6 0.7
v 0.4 2.6 0.6
v 0.4 2.8 0.8
v 0.4 2.8 0.7
v 0.4 2.9 0.7
v 0.4 2.9 0.6
v 0.4 3.1 0.8
v 0.4 3.1 0.6
v 0.4 3.2 0.8
v 0.4 3.2 0.7
v 0.4 3.2 0.6
v 0.4 3.3 0.7
v 0.4 3.3 0.6
v 0.4 3.6 0.4
v 0.4 3.6 -5.96046e-08
v 0.4 3.7 0.4
v 0.4 3.7 -5.96046e-08
v 0.5 2.9 0.7
v 0.5 2.9 0.6
v 0.5 3.1 0.7
v 0.5 3.1 0.6
v 0.6 3.2 0.5
v 0.6 3.2 0.4
v 0.6 3.2 0.3
v 0.6 3.3 0.5
v 0.6 3.3 0.4
v 0.6 3.3 0.3
v 0.6 3.5 0.4
v 0.6 3.5 0.3
v 0.6 3.6 0.4
v 0.6 3.6 0.3
v 0.7 3 0.4
v 0.7 3 0.3
v 0.7 3.1 0.4
v 0.7 3.1 0.3
v 0.7 3.3 0.4
v 0.7 3.3 0.3
v 0.7 3.5 0.4
v 0.7 3.5 0.3
v 0.8 0.9 0.6
v 0.8 0.9 0.3
v 0.8 1 0.3
v 0.8 1 0.2
v 0.8 1.1 0.6
v 0.8 1.1 0.5
v 0.8 1.3 0.5
v 0.8 1.3 0.4
v 0.8 1.3 0.2
v 0.8 1.3 0.1
v 0.8 1.5 0.1
v 0.8 1.5 -5.96046e-08
v 0.8 1.8 0.4
v 0.8 1.8 -5.96046e-08
v 0.9 1.1 0.6
v 0.9 1.1 0.5
v 0.9 1.2 0.6
v 0.9 1.2 0.5
v 0.9 1.2 0.2
v 0.9 1.2 0.1
v 0.9 1.3 0.5
v 0.9 1.3 0.4
v 0.9 1.3 0.2
v 0.9 1.3 0.1
v 0.9 1.4 0.5
v 0.9 1.4 0.4
v 0.9 1.4 0.1
v 0.9 1.4 -5.96046e-08
v 0.9 1.5 0.1
v 0.9 1.5 -5.96046e-08
v 1 1.8 0.5
v 1 1.8 0.4
v 1 1.9 0.5
v 1 1.9 0.4
v -1 1.8 0.5
v -1 1.8 0.4
v -1 1.9 0.5
v -1 1.9 0.4
v -0.9 1.1 0.6
v -0.9 1.1 0.5
v -0.9 1.2 0.6
v -0.9 1.2 0.5
v -0.9 1.2 0.2
v -0.9 1.2 0.1
v -0.9 1.3 0.5
v -0.9 1.3 0.4
v -0.9 1.3 0.2
v -0.9 1.3 0.1
v -0.9 1.4 0.5
v -0.9 1.4 0.4
v -0.9 1.4 0.1
v -0.9 1.4 -5.96046e-08
v -0.9 1.5 0.1
v -0.9 1.5 -5.96046e-08
v -0.8 0.9 0.6
v -0.8 0.9 0.3
v -0.8 1 0.3
v -0.8 1 0.2
v -0.8 1.1 0.6
v -0.8 1.1 0.5
v -0.8 1.3 0.5
v -0.8 1.3 0.4
v -0.8 1.3 0.2
v -0.8 1.3 0.1
v -0.8 1.5 0.1
v -0.8 1.5 -5.96046e-08
v -0.8 1.8 0.4
v -0.8 1.8 -5.96046e-08
v -0.7 3 0.4
v -0.7 3 0.3
v -0.7 3.1 0.4
v -0.7 3.1 0.3
v -0.7 3.3 0.4
v -0.7 3.3 0.3
v -0.7 3.5 0.4
v -0.7 3.5 0.3
v -0.6 3.2 0.5
v -0.6 3.2 0.4
v -0.6 3.2 0.3
v -0.6 3.3 0.5
v -0.6 3.3 0.4
v -0.6 3.3 0.3
v -0.6 3.5 0.4
v -0.6 3.5 0.3
v -0.6 3.6 0.4
v -0.6 3.6 0.3
v -0.5 2.9 0.7
v -0.5 2.9 0.6
v -0.5 3.1 0.7
v -0.5 3.1 0.6
v -0.4 2.2 0.8
v -0.4 2.2 0.7
v -0.4 2.4 0.8
v -0.4 2.4 0.7
v -0.4 2.6 0.8
v -0.4 2.6 0.7
v -0.4 2.6 0.6
v -0.4 2.8 0.8
v -0.4 2.8 0.7
v -0.4 2.9 0.7
v -0.4 2.9 0.6
v -0.4 3.1 0.8
v -0.4 3.1 0.6
v -0.4 3.2 0.8
v -0.4 3.2 0.7
v -0.4 3.2 0.6
v -0.4 3.3 0.7
v -0.4 3.3 0.6
v -0.4 3.6 0.4
v -0.4 3.6 -5.96046e-08
v -0.4 3.7 0.4
v -0.4 3.7 -5.96046e-08
v -0.3 3.2 0.8
v -0.3 3.2 0.7
v -0.3 3.3 0.8
v -0.3 3.3 0.7
v -0.2 0 -5.96046e-08
v -0.2 0 -0.1
v -0.2 0.1 0.7
v -0.2 0.1 0.6
v -0.2 0.2 0.7
v -0.2 0.2 0.6
v -0.2 0.2 0.5
v -0.2 0.2 0.4
v -0.2 0.8 0.5
v -0.2 0.8 0.4
v -0.2 0.8 -5.96046e-08
v -0.2 0.8 -0.1
v -0.2 2.4 0.8
v -0.2 2.4 0.7
v -0.2 2.5 0.8
v -0.2 2.5 0.7
v -0.2 2.5 0.6
v -0.2 2.6 0.7
v -0.2 2.6 0.6
v -0.2 3.5 0.7
v -0.2 3.5 0.6
v -0.2 3.6 0.7
v -0.2 3.6 0.6
v -0.0999999 0 0.7
v -0.0999999 0 -5.96046e-08
v -0.0999999 0.1 0.7
v -0.0999999 0.1 0.6
v -0.0999999 0.2 0.6
v -0.0999999 0.2 0.4
v -0.0999999 0.8 0.4
v -0.0999999 0.8 -5.96046e-08
v -0.0999999 1.5 0.7
v -0.0999999 1.5 0.6
v -0.0999999 1.6 0.7
v -0.0999999 1.6 0.6
v 0.1 2.7 0.7
v 0.1 2.7 0.6
v 0.1 2.8 0.7
v 0.1 2.8 0.6
v 0.1 2.9 -0.5
v 0.1 2.9 -0.6
v 0.1 3.1 -0.5
v 0.1 3.1 -0.6
v 0.1 3.6 0.4
v 0.1 3.6 0.3
v 0.1 3.7 0.4
v 0.1 3.7 0.3
v 0.2 2.4 -0.3
v 0.2 2.4 -0.4
v 0.2 2.6 -0.3
v 0.2 2.6 -0.4
v 0.2 2.8 0.7
v 0.2 2.8 0.6
v 0.2 2.9 0.7
v 0.2 2.9 0.6
v 0.2 3.6 0.3
v 0.2 3.6 -5.96046e-08
v 0.2 3.7 0.3
v 0.2 3.7 -5.96046e-08
v 0.3 1.5 0.7
v 0.3 1.5 0.6
v 0.3 1.6 0.7
v 0.3 1.6 0.6
v 0.3 1.6 -0.2
v 0.3 1.6 -0.3
v 0.3 1.7 -0.2
v 0.3 1.7 -0.3
v 0.3 2.6 -0.3
v 0.3 2.6 -0.4
v 0.3 2.7 -0.3
v 0.3 2.7 -0.4
v 0.3 2.8 -0.4
v 0.3 2.8 -0.5
v 0.3 3.2 -0.4
v 0.3 3.2 -0.5
v 0.4 0.8 0.6
v 0.4 0.8 0.5
v 0.4 0.8 -0.1
v 0.4 0.8 -0.2
v 0.4 1.6 0.7
v 0.4 1.6 0.6
v 0.4 1.7 0.7
v 0.4 1.7 0.6
v 0.4 1.7 0.5
v 0.4 1.7 -0.1
v 0.4 1.7 -0.2
v 0.4 3.4 0.5
v 0.4 3.4 0.4
v 0.4 3.4 0.3
v 0.4 3.5 0.7
v 0.4 3.5 0.5
v 0.4 3.5 0.4
v 0.4 3.5 0.3
v 0.4 3.5 -5.96046e-08
v 0.4 3.5 -0.2
v 0.4 3.6 0.7
v 0.4 3.6 0.4
v 0.4 3.6 -5.96046e-08
v 0.4 3.6 -0.2
v 0.5 0 -5.96046e-08
v 0.5 0 -0.1
v 0.5 0.1 0.7
v 0.5 0.1 0.6
v 0.5 0.2 0.7
v 0.5 0.2 0.6
v 0.5 0.2 0.5
v 0.5 0.2 0.4
v 0.5 0.9 0.5
v 0.5 0.9 0.4
v 0.5 0.9 -5.96046e-08
v 0.5 0.9 -0.1
v 0.5 1.7 -0.2
v 0.5 1.7 -0.3
v 0.5 1.9 -0.2
v 0.5 1.9 -0.3
v 0.5 2.5 -0.1
v 0.5 2.5 -0.3
v 0.5 2.6 -0.1
v 0.5 2.6 -0.3
v 0.5 3.1 0.8
v 0.5 3.1 0.7
v 0.5 3.2 0.5
v 0.5 3.2 0.4
v 0.5 3.2 0.3
v 0.5 3.3 0.6
v 0.5 3.3 0.5
v 0.5 3.4 0.7
v 0.5 3.4 0.6
v 0.5 3.4 0.5
v 0.5 3.4 0.3
v 0.5 3.5 0.8
v 0.5 3.5 0.5
v 0.5 3.5 0.4
v 0.5 3.5 0.3
v 0.5 3.6 0.4
v 0.5 3.6 0.3
v 0.6 0 0.7
v 0.6 0 -5.96046e-08
v 0.6 0.1 0.7
v 0.6 0.1 0.6
v 0.6 0.2 0.6
v 0.6 0.2 0.4
v 0.6 0.9 0.5
v 0.6 0.9 0.4
v 0.6 0.9 -5.96046e-08
v 0.6 0.9 -0.1
v 0.6 1.7 0.7
v 0.6 1.7 0.5
v 0.6 1.7 0.4
v 0.6 1.7 -0.1
v 0.6 1.7 -0.2
v 0.6 1.8 0.6
v 0.6 1.8 0.5
v 0.6 1.8 -5.96046e-08
v 0.6 1.8 -0.1
v 0.6 1.8 -0.2
v 0.6 2.2 0.8
v 0.6 2.2 0.7
v 0.6 2.3 0.7
v 0.6 2.3 0.6
v 0.6 2.5 0.8
v 0.6 2.5 0.7
v 0.6 2.6 -0.1
v 0.6 2.6 -0.3
v 0.6 2.7 -0.1
v 0.6 2.7 -0.3
v 0.6 2.8 -0.3
v 0.6 2.8 -0.4
v 0.6 3 0.4
v 0.6 3 0.3
v 0.6 3.1 0.7
v 0.6 3.1 0.6
v 0.6 3.1 0.4
v 0.6 3.1 0.3
v 0.6 3.3 0.6
v 0.6 3.3 -0.2
v 0.6 3.3 -0.3
v 0.6 3.4 0.7
v 0.6 3.4 0.6
v 0.6 3.4 -5.96046e-08
v 0.6 3.4 -0.2
v 0.6 3.4 -0.3
v 0.6 3.4 -0.4
v 0.6 3.5 -5.96046e-08
v 0.6 3.5 -0.3
v 0.7 0.9 0.4
v 0.7 0.9 -5.96046e-08
v 0.7 1.7 0.5
v 0.7 1.7 0.4
v 0.7 1.8 0.5
v 0.7 1.8 0.4
v 0.7 1.8 -5.96046e-08
v 0.7 1.8 -0.1
v 0.7 1.8 -0.2
v 0.7 1.9 -0.2
v 0.7 1.9 -0.3
v 0.7 2 -0.1
v 0.7 2 -0.2
v 0.7 2.3 0.7
v 0.7 2.3 0.6
v 0.7 2.4 0.6
v 0.7 2.4 0.4
v 0.7 2.4 -0.1
v 0.7 2.4 -0.2
v 0.7 2.5 -0.1
v 0.7 2.5 -0.3
v 0.7 2.6 0.7
v 0.7 2.6 0.4
v 0.7 2.7 0.8
v 0.7 2.7 0.5
v 0.7 2.7 -0.1
v 0.7 2.7 -0.4
v 0.7 2.8 0.8
v 0.7 2.8 0.7
v 0.7 2.8 0.5
v 0.7 2.8 0.4
v 0.7 2.8 -5.96046e-08
v 0.7 2.8 -0.1
v 0.7 2.8 -0.3
v 0.7 2.8 -0.4
v 0.7 3.1 0.7
v 0.7 3.1 0.6
v 0.7 3.1 0.4
v 0.7 3.1 -5.96046e-08
v 0.7 3.2 0.4
v 0.7 3.2 -5.96046e-08
v 0.7 3.3 0.6
v 0.7 3.3 0.4
v 0.7 3.3 -0.2
v 0.7 3.3 -0.3
v 0.7 3.4 -5.96046e-08
v 0.7 3.4 -0.2
v 0.7 3.6 0.4
v 0.7 3.6 -5.96046e-08
v 0.7 3.7 0.4
v 0.7 3.7 -5.96046e-08
v 0.8 1.8 0.6
v 0.8 1.8 0.4
v 0.8 1.9 0.5
v 0.8 1.9 0.4
v 0.8 2.1 0.6
v 0.8 2.1 0.5
v 0.8 2.5 0.4
v 0.8 2.5 -0.1
v 0.8 2.6 0.8
v 0.8 2.6 0.4
v 0.8 2.7 0.8
v 0.8 2.7 0.5
v 0.8 2.8 0.5
v 0.8 2.8 0.4
v 0.8 2.8 -5.96046e-08
v 0.8 2.8 -0.1
v 0.8 3.1 0.4
v 0.8 3.1 -5.96046e-08
v 0.8 3.2 0.4
v 0.8 3.2 -5.96046e-08
v 0.8 3.6 0.4
v 0.8 3.6 -5.96046e-08
v 0.9 2 -0.1
v 0.9 2 -0.2
v 0.9 2.1 0.6
v 0.9 2.1 0.5
v 0.9 2.3 0.5
v 0.9 2.3 0.4
v 0.9 2.4 0.6
v 0.9 2.4 0.4
v 0.9 2.4 -5.96046e-08
v 0.9 2.4 -0.1
v 0.9 2.4 -0.2
v 0.9 2.5 0.4
v 0.9 2.5 -5.96046e-08
v 1 1.8 -5.96046e-08
v 1 1.8 -0.1
v 1 1.9 -5.96046e-08
v 1 1.9 -0.1
v 1 2 0.5
v 1 2 0.4
v 1 2 -5.96046e-08
v 1 2 -0.1
v 1 2.3 0.5
v 1 2.3 0.4
v 1 2.4 -5.96046e-08
v 1 2.5 -5.96046e-08
v 1 2.5 -0.1
v 1.1 1.1 0.6
v 1.1 1.1 0.5
v 1.1 1.2 0.6
v 1.1 1.2 0.5
v 1.1 1.2 0.2
v 1.1 1.2 0.1
v 1.1 1.3 0.5
v 1.1 1.3 0.4
v 1.1 1.3 0.2
v 1.1 1.3 0.1
v 1.1 1.4 0.5
v 1.1 1.4 0.4
v 1.1 1.4 0.1
v 1.1 1.4 -5.96046e-08
v 1.1 1.5 0.1
v 1.1 1.5 -5.96046e-08
v 1.1 1.8 0.5
v 1.1 1.8 0.4
v 1.1 1.8 0.3
v 1.1 1.8 0.1
v 1.1 1.8 -5.96046e-08
v 1.1 1.9 0.5
v 1.1 1.9 0.4
v 1.1 1.9 0.3
v 1.1 1.9 0.1
v 1.1 1.9 -5.96046e-08
v 1.1 1.9 -0.1
v 1.1 2 0.4
v 1.1 2 0.3
v 1.1 2 0.1
v 1.1 2 -5.96046e-08
v 1.1 2 -0.1
v 1.1 2.1 0.3
v 1.1 2.1 0.1
v 1.1 2.4 0.4
v 1.1 2.4 -5.96046e-08
v 1.2 0.9 0.6
v 1.2 0.9 0.3
v 1.2 1 0.3
v 1.2 1 0.2
v 1.2 1.1 0.6
v 1.2 1.1 0.5
v 1.2 1.3 0.5
v 1.2 1.3 0.4
v 1.2 1.3 0.2
v 1.2 1.3 0.1
v 1.2 1.5 0.1
v 1.2 1.5 -5.96046e-08
v 1.2 1.8 0.4
v 1.2 1.8 0.3
v 1.2 1.8 0.1
v 1.2 1.8 -5.96046e-08
v 1.2 1.9 0.5
v 1.2 1.9 0.3
v 1.2 1.9 0.1
v 1.2 1.9 -5.96046e-08
v 1.2 2 0.5
v 1.2 2 0.3
v 1.2 2 0.1
v 1.2 2 -5.96046e-08
v 1.2 2.1 0.3
v 1.2 2.1 0.1
v -0.8 2.6 0.8
v -0.8 2.7 0.8
v -0.7 2.7 0.8
v -0.7 2.8 0.8
v -0.6 2.2 0.8
v -0.6 2.5 0.8
v -0.5 3.1 0.8
v -0.5 3.5 0.8
v -0.4 2.2 0.8
v -0.4 2.4 0.8
v -0.4 2.6 0.8
v -0.4 2.8 0.8
v -0.4 3.1 0.8
v -0.4 3.2 0.8
v -0.3 3.2 0.8
v -0.3 3.3 0.8
v -0.2 2.4 0.8
v -0.2 2.5 0.8
v 0.2 2.4 0.8
v 0.2 2.5 0.8
v 0.3 3.2 0.8
v 0.3 3.3 0.8
v 0.4 2.2 0.8
v 0.4 2.4 0.8
v 0.4 2.6 0.8
v 0.4 2.8 0.8
v 0.4 3.1 0.8
v 0.4 3.2 0.8
v 0.5 3.1 0.8
v 0.5 3.5 0.8
v 0.6 2.2 0.8
v 0.6 2.5 0.8
v 0.7 2.7 0.8
v 0.7 2.8 0.8
v 0.8 2.6 0.8
v 0.8 2.7 0.8
v -0.7 2.3 0.7
v -0.7 2.6 0.7
v -0.7 2.8 0.7
v -0.7 3.1 0.7
v -0.6 0 0.7
v -0.6 0.1 0.7
v -0.6 1.7 0.7
v -0.6 2.2 0.7
v -0.6 2.3 0.7
v -0.6 2.5 0.7
v -0.6 3.1 0.7
v -0.6 3.4 0.7
v -0.5 0.1 0.7
v -0.5 0.2 0.7
v -0.5 2.9 0.7
v -0.5 3.1 0.7
v -0.5 3.4 0.7
v -0.4 1.6 0.7
v -0.4 1.7 0.7
v -0.4 2.2 0.7
v -0.4 2.4 0.7
v -0.4 2.6 0.7
v -0.4 2.8 0.7
v -0.4 2.9 0.7
v -0.4 3.5 0.7
v -0.4 3.6 0.7
v -0.3 1.5 0.7
v -0.3 1.6 0.7
v -0.2 0.1 0.7
v -0.2 0.2 0.7
v -0.2 2.4 0.7
v -0.2 2.5 0.7
v -0.2 2.6 0.7
v -0.2 2.8 0.7
v -0.2 2.9 0.7
v -0.2 3.5 0.7
v -0.2 3.6 0.7
v -0.0999999 0 0.7
v -0.0999999 0.1 0.7
v -0.0999999 1.5 0.7
v -0.0999999 1.6 0.7
v -0.0999999 2.7 0.7
v -0.0999999 2.8 0.7
v 0.1 0 0.7
v 0.1 0.1 0.7
v 0.1 1.5 0.7
v 0.1 1.6 0.7
v 0.1 2.7 0.7
v 0.1 2.8 0.7
v 0.2 0.1 0.7
v 0.2 0.2 0.7
v 0.2 2.4 0.7
v 0.2 2.5 0.7
v 0.2 2.6 0.7
v 0.2 2.8 0.7
v 0.2 2.9 0.7
v 0.2 3.5 0.7
v 0.2 3.6 0.7
v 0.3 1.5 0.7
v 0.3 1.6 0.7
v 0.4 1.6 0.7
v 0.4 1.7 0.7
v 0.4 2.2 0.7
v 0.4 2.4 0.7
v 0.4 2.6 0.7
v 0.4 2.8 0.7
v 0.4 2.9 0.7
v 0.4 3.5 0.7
v 0.4 3.6 0.7
v 0.5 0.1 0.7
v 0.5 0.2 0.7
v 0.5 2.9 0.7
v 0.5 3.1 0.7
v 0.5 3.4 0.7
v 0.6 0 0.7
v 0.6 0.1 0.7
v 0.6 1.7 0.7
v 0.6 2.2 0.7
v 0.6 2.3 0.7
v 0.6 2.5 0.7
v 0.6 3.1 0.7
v 0.6 3.4 0.7
v 0.7 2.3 0.7
v 0.7 2.6 0.7
v 0.7 2.8 0.7
v 0.7 3.1 0.7
v -1.2 0.9 0.6
v -1.2 1.1 0.6
v -1.1 1.1 0.6
v -1.1 1.2 0.6
v -0.9 1.1 0.6
v -0.9 1.2 0.6
v -0.9 2.1 0.6
v -0.9 2.4 0.6
v -0.8 0.9 0.6
v -0.8 1.1 0.6
v -0.8 1.8 0.6
v -0.8 2.1 0.6
v -0.7 2.3 0.6
v -0.7 2.4 0.6
v -0.7 3.1 0.6
v -0.7 3.3 0.6
v -0.6 0.1 0.6
v -0.6 0.2 0.6
v -0.6 1.8 0.6
v -0.6 2.3 0.6
v -0.6 3.1 0.6
v -0.6 3.3 0.6
v -0.5 0.1 0.6
v -0.5 0.2 0.6
v -0.5 0.9 0.6
v -0.5 1.7 0.6
v -0.5 2.9 0.6
v -0.5 3.1 0.6
v -0.4 0.8 0.6
v -0.4 0.9 0.6
v -0.4 1.6 0.6
v -0.4 1.7 0.6
v -0.4 2.6 0.6
v -0.4 2.9 0.6
v -0.4 3.1 0.6
v -0.4 3.2 0.6
v -0.4 3.3 0.6
v -0.3 1.5 0.6
v -0.3 1.6 0.6
v -0.3 2.9 0.6
v -0.3 3.1 0.6
v -0.2 0.1 0.6
v -0.2 0.2 0.6
v -0.2 2.5 0.6
v -0.2 2.6 0.6
v -0.2 2.7 0.6
v -0.2 2.8 0.6
v -0.2 2.9 0.6
v -0.2 3.5 0.6
v -0.2 3.6 0.6
v -0.0999999 0.1 0.6
v -0.0999999 0.2 0.6
v -0.0999999 1.5 0.6
v -0.0999999 1.6 0.6
v -0.0999999 2.7 0.6
v -0.0999999 2.8 0.6
v -0.0999999 2.9 0.6
v -0.0999999 3.1 0.6
v -0.0999999 3.2 0.6
v 0.1 0.1 0.6
v 0.1 0.2 0.6
v 0.1 1.5 0.6
v 0.1 1.6 0.6
v 0.1 2.7 0.6
v 0.1 2.8 0.6
v 0.1 2.9 0.6
v 0.1 3.1 0.6
v 0.1 3.2 0.6
v 0.2 0.1 0.6
v 0.2 0.2 0.6
v 0.2 2.5 0.6
v 0.2 2.6 0.6
v 0.2 2.7 0.6
v 0.2 2.8 0.6
v 0.2 2.9 0.6
v 0.2 3.5 0.6
v 0.2 3.6 0.6
v 0.3 1.5 0.6
v 0.3 1.6 0.6
v 0.3 2.9 0.6
v 0.3 3.1 0.6
v 0.4 0.8 0.6
v 0.4 1.6 0.6
v 0.4 2.6 0.6
v 0.4 2.9 0.6
v 0.4 3.1 0.6
v 0.4 3.2 0.6
v 0.4 3.3 0.6
v 0.5 0.1 0.6
v 0.5 0.2 0.6
v 0.5 2.9 0.6
v 0.5 3.1 0.6
v 0.6 0.1 0.6
v 0.6 0.2 0.6
v 0.6 1.8 0.6
v 0.6 2.3 0.6
v 0.6 3.1 0.6
v 0.6 3.3 0.6
v 0.7 2.3 0.6
v 0.7 2.4 0.6
v 0.7 3.1 0.6
v 0.7 3.3 0.6
v 0.8 0.9 0.6
v 0.8 1.1 0.6
v 0.8 1.8 0.6
v 0.8 2.1 0.6
v 0.9 1.1 0.6
v 0.9 1.2 0.6
v 0.9 2.1 0.6
v 0.9 2.4 0.6
v 1.1 1.1 0.6
v 1.1 1.2 0.6
v 1.2 0.9 0.6
v 1.2 1.1 0.6
v -1.2 1.1 0.5
v -1.2 1.3 0.5
v -1.2 1.9 0.5
v -1.2 2 0.5
v -1.1 1.1 0.5
v -1.1 1.2 0.5
v -1.1 1.3 0.5
v -1.1 1.4 0.5
v -1.1 1.8 0.5
v -1.1 1.9 0.5
v -1 1.8 0.5
v -1 1.9 0.5
v -1 2 0.5
v -1 2.3 0.5
v -0.9 1.1 0.5
v -0.9 1.2 0.5
v -0.9 1.3 0.5
v -0.9 1.4 0.5
v -0.9 2.1 0.5
v -0.9 2.3 0.5
v -0.8 1.1 0.5
v -0.8 1.3 0.5
v -0.8 1.9 0.5
v -0.8 2.1 0.5
v -0.8 2.7 0.5
v -0.8 2.8 0.5
v -0.7 1.7 0.5
v -0.7 1.8 0.5
v -0.7 2.7 0.5
v -0.7 2.8 0.5
v -0.6 0.9 0.5
v -0.6 1.7 0.5
v -0.6 1.8 0.5
v -0.5 0.2 0.5
v -0.5 0.9 0.5
v -0.5 1.7 0.5
v -0.4 0.8 0.5
v -0.4 0.9 0.5
v -0.2 0.2 0.5
v -0.2 0.8 0.5
v 0.2 0.2 0.5
v 0.2 0.8 0.5
v 0.4 0.8 0.5
v 0.4 1.7 0.5
v 0.5 0.2 0.5
v 0.5 0.9 0.5
v 0.6 0.9 0.5
v 0.6 1.7 0.5
v 0.6 1.8 0.5
v 0.7 1.7 0.5
v 0.7 1.8 0.5
v 0.7 2.7 0.5
v 0.7 2.8 0.5
v 0.8 1.1 0.5
v 0.8 1.3 0.5
v 0.8 1.9 0.5
v 0.8 2.1 0.5
v 0.8 2.7 0.5
v 0.8 2.8 0.5
v 0.9 1.1 0.5
v 0.9 1.2 0.5
v 0.9 1.3 0.5
v 0.9 1.4 0.5
v 0.9 2.1 0.5
v 0.9 2.3 0.5
v 1 1.8 0.5
v 1 1.9 0.5
v 1 2 0.5
v 1 2.3 0.5
v 1.1 1.1 0.5
v 1.1 1.2 0.5
v 1.1 1.3 0.5
v 1.1 1.4 0.5
v 1.1 1.8 0.5
v 1.1 1.9 0.5
v 1.2 1.1 0.5
v 1.2 1.3 0.5
v 1.2 1.9 0.5
v 1.2 2 0.5
v -1.2 1.3 0.4
v -1.2 1.8 0.4
v -1.1 1.3 0.4
v -1.1 1.4 0.4
v -1.1 1.8 0.4
v -1.1 2 0.4
v -1.1 2.4 0.4
v -1 1.8 0.4
v -1 1.9 0.4
v -1 2 0.4
v -1 2.3 0.4
v -0.9 1.3 0.4
v -0.9 1.4 0.4
v -0.9 2.3 0.4
v -0.9 2.4 0.4
v -0.9 2.5 0.4
v -0.8 1.3 0.4
v -0.8 1.8 0.4
v -0.8 1.9 0.4
v -0.8 2.5 0.4
v -0.8 2.6 0.4
v -0.8 2.8 0.4
v -0.8 3.1 0.4
v -0.8 3.2 0.4
v -0.8 3.6 0.4
v -0.7 0.9 0.4
v -0.7 1.7 0.4
v -0.7 2.4 0.4
v -0.7 2.6 0.4
v -0.7 2.8 0.4
v -0.7 3.1 0.4
v -0.7 3.2 0.4
v -0.7 3.3 0.4
v -0.7 3.5 0.4
v -0.7 3.6 0.4
v -0.7 3.7 0.4
v -0.6 0.2 0.4
v -0.6 0.9 0.4
v -0.6 1.7 0.4
v -0.6 3.5 0.4
v -0.6 3.6 0.4
v -0.5 0.2 0.4
v -0.5 0.9 0.4
v -0.5 3.5 0.4
v -0.5 3.6 0.4
v -0.4 3.5 0.4
v -0.4 3.6 0.4
v -0.4 3.7 0.4
v -0.2 0.2 0.4
v -0.2 0.8 0.4
v -0.0999999 0.2 0.4
v -0.0999999 0.8 0.4
v -0.0999999 3.6 0.4
v -0.0999999 3.7 0.4
v 0.1 0.2 0.4
v 0.1 0.8 0.4
v 0.1 3.6 0.4
v 0.1 3.7 0.4
v 0.2 0.2 0.4
v 0.2 0.8 0.4
v 0.4 3.5 0.4
v 0.4 3.6 0.4
v 0.4 3.7 0.4
v 0.5 0.2 0.4
v 0.5 0.9 0.4
v 0.5 3.5 0.4
v 0.5 3.6 0.4
v 0.6 0.2 0.4
v 0.6 0.9 0.4
v 0.6 1.7 0.4
v 0.6 3.5 0.4
v 0.6 3.6 0.4
v 0.7 0.9 0.4
v 0.7 1.7 0.4
v 0.7 2.4 0.4
v 0.7 2.6 0.4
v 0.7 2.8 0.4
v 0.7 3.1 0.4
v 0.7 3.2 0.4
v 0.7 3.3 0.4
v 0.7 3.5 0.4
v 0.7 3.6 0.4
v 0.7 3.7 0.4
v 0.8 1.3 0.4
v 0.8 1.8 0.4
v 0.8 1.9 0.4
v 0.8 2.5 0.4
v 0.8 2.6 0.4
v 0.8 2.8 0.4
v 0.8 3.1 0.4
v 0.8 3.2 0.4
v 0.8 3.6 0.4
v 0.9 1.3 0.4
v 0.9 1.4 0.4
v 0.9 2.3 0.4
v 0.9 2.4 0.4
v 0.9 2.5 0.4
v 1 1.8 0.4
v 1 1.9 0.4
v 1 2 0.4
v 1 2.3 0.4
v 1.1 1.3 0.4
v 1.1 1.4 0.4
v 1.1 1.8 0.4
v 1.1 2 0.4
v 1.1 2.4 0.4
v 1.2 1.3 0.4
v 1.2 1.8 0.4
v -1.2 1.8 0.3
v -1.2 1.9 0.3
v -1.2 2 0.3
v -1.2 2.1 0.3
v -1.1 1.8 0.3
v -1.1 1.9 0.3
v -1.1 2 0.3
v -1.1 2.1 0.3
v -0.7 3 0.3
v -0.7 3.1 0.3
v -0.7 3.3 0.3
v -0.7 3.5 0.3
v -0.6 3 0.3
v -0.6 3.1 0.3
v -0.6 3.2 0.3
v -0.6 3.3 0.3
v -0.6 3.5 0.3
v -0.6 3.6 0.3
v -0.5 3.2 0.3
v -0.5 3.4 0.3
v -0.5 3.5 0.3
v -0.5 3.6 0.3
v -0.4 3.4 0.3
v -0.4 3.5 0.3
v -0.2 3.6 0.3
v -0.2 3.7 0.3
v -0.0999999 3.6 0.3
v -0.0999999 3.7 0.3
v 0.1 3.6 0.3
v 0.1 3.7 0.3
v 0.2 3.6 0.3
v 0.2 3.7 0.3
v 0.4 3.4 0.3
v 0.4 3.5 0.3
v 0.5 3.2 0.3
v 0.5 3.4 0.3
v 0.5 3.5 0.3
v 0.5 3.6 0.3
v 0.6 3 0.3
v 0.6 3.1 0.3
v 0.6 3.2 0.3
v 0.6 3.3 0.3
v 0.6 3.5 0.3
v 0.6 3.6 0.3
v 0.7 3 0.3
v 0.7 3.1 0.3
v 0.7 3.3 0.3
v 0.7 3.5 0.3
v 1.1 1.8 0.3
v 1.1 1.9 0.3
v 1.1 2 0.3
v 1.1 2.1 0.3
v 1.2 1.8 0.3
v 1.2 1.9 0.3
v 1.2 2 0.3
v 1.2 2.1 0.3
v -1 2.4 -5.96046e-08
v -1 2.5 -5.96046e-08
v -0.9 2.4 -5.96046e-08
v -0.9 2.5 -5.96046e-08
v 0.9 2.4 -5.96046e-08
v 0.9 2.5 -5.96046e-08
v 1 2.4 -5.96046e-08
v 1 2.5 -5.96046e-08
v -0.4 3.2 0.7
v -0.4 3.3 0.7
v -0.3 3.2 0.7
v -0.3 3.3 0.7
v 0.3 3.2 0.7
v 0.3 3.3 0.7
v 0.4 3.2 0.7
v 0.4 3.3 0.7
v -0.6 3.3 0.6
v -0.6 3.4 0.6
v -0.5 3.3 0.6
v -0.5 3.4 0.6
v 0.5 3.3 0.6
v 0.5 3.4 0.6
v 0.6 3.3 0.6
v 0.6 3.4 0.6
v -0.6 3.2 0.5
v -0.6 3.3 0.5
v -0.5 3.2 0.5
v -0.5 3.3 0.5
v -0.5 3.4 0.5
v -0.5 3.5 0.5
v -0.4 3.4 0.5
v -0.4 3.5 0.5
v 0.4 3.4 0.5
v 0.4 3.5 0.5
v 0.5 3.2 0.5
v 0.5 3.3 0.5
v 0.5 3.4 0.5
v 0.5 3.5 0.5
v 0.6 3.2 0.5
v 0.6 3.3 0.5
v -0.7 3 0.4
v -0.7 3.1 0.4
v -0.6 3 0.4
v -0.6 3.1 0.4
v 0.6 3 0.4
v 0.6 3.1 0.4
v 0.7 3 0.4
v 0.7 3.1 0.4
v -1.2 0.9 0.3
v -1.2 1 0.3
v -0.8 0.9 0.3
v -0.8 1 0.3
v 0.8 0.9 0.3
v 0.8 1 0.3
v 1.2 0.9 0.3
v 1.2 1 0.3
v -1.2 1 0.2
v -1.2 1.3 0.2
v -1.1 1.2 0.2
v -1.1 1.3 0.2
v -0.9 1.2 0.2
v -0.9 1.3 0.2
v -0.8 1 0.2
v -0.8 1.3 0.2
v 0.8 1 0.2
v 0.8 1.3 0.2
v 0.9 1.2 0.2
v 0.9 1.3 0.2
v 1.1 1.2 0.2
v 1.1 1.3 0.2
v 1.2 1 0.2
v 1.2 1.3 0.2
v -1.2 1.3 0.1
v -1.2 1.5 0.1
v -1.2 1.8 0.1
v -1.2 1.9 0.1
v -1.2 2 0.1
v -1.2 2.1 0.1
v -1.1 1.2 0.1
v -1.1 1.3 0.1
v -1.1 1.4 0.1
v -1.1 1.5 0.1
v -1.1 1.8 0.1
v -1.1 1.9 0.1
v -1.1 2 0.1
v -1.1 2.1 0.1
v -0.9 1.2 0.1
v -0.9 1.3 0.1
v -0.9 1.4 0.1
v -0.9 1.5 0.1
v -0.8 1.3 0.1
v -0.8 1.5 0.1
v 0.8 1.3 0.1
v 0.8 1.5 0.1
v 0.9 1.2 0.1
v 0.9 1.3 0.1
v 0.9 1.4 0.1
v 0.9 1.5 0.1
v 1.1 1.2 0.1
v 1.1 1.3 0.1
v 1.1 1.4 0.1
v 1.1 1.5 0.1
v 1.1 1.8 0.1
v 1.1 1.9 0.1
v 1.1 2 0.1
v 1.1 2.1 0.1
v 1.2 1.3 0.1
v 1.2 1.5 0.1
v 1.2 1.8 0.1
v 1.2 1.9 0.1
v 1.2 2 0.1
v 1.2 2.1 0.1
v -1.2 1.5 -5.96046e-08
v -1.2 1.8 -5.96046e-08
v -1.2 1.9 -5.96046e-08
v -1.2 2 -5.96046e-08
v -1.1 1.4 -5.96046e-08
v -1.1 1.5 -5.96046e-08
v -1.1 1.8 -5.96046e-08
v -1.1 1.9 -5.96046e-08
v -1.1 2 -5.96046e-08
v -1.1 2.4 -5.96046e-08
v -1 1.8 -5.96046e-08
v -1 1.9 -5.96046e-08
v -1 2 -5.96046e-08
v -1 2.4 -5.96046e-08
v -0.9 1.4 -5.96046e-08
v -0.9 1.5 -5.96046e-08
v -0.8 1.5 -5.96046e-08
v -0.8 1.8 -5.96046e-08
v -0.8 2.8 -5.96046e-08
v -0.8 3.1 -5.96046e-08
v -0.8 3.2 -5.96046e-08
v -0.8 3.6 -5.96046e-08
v -0.7 0.9 -5.96046e-08
v -0.7 1.8 -5.96046e-08
v -0.7 2.8 -5.96046e-08
v -0.7 3.1 -5.96046e-08
v -0.7 3.2 -5.96046e-08
v -0.7 3.4 -5.96046e-08
v -0.7 3.6 -5.96046e-08
v -0.7 3.7 -5.96046e-08
v -0.6 0 -5.96046e-08
v -0.6 0.9 -5.96046e-08
v -0.6 1.8 -5.96046e-08
v -0.6 3.4 -5.96046e-08
v -0.6 3.5 -5.96046e-08
v -0.5 0 -5.96046e-08
v -0.5 0.9 -5.96046e-08
v -0.4 3.5 -5.96046e-08
v -0.4 3.6 -5.96046e-08
v -0.4 3.7 -5.96046e-08
v -0.2 0 -5.96046e-08
v -0.2 0.8 -5.96046e-08
v -0.2 3.6 -5.96046e-08
v -0.2 3.7 -5.96046e-08
v -0.0999999 0 -5.96046e-08
v -0.0999999 0.8 -5.96046e-08
v 0.1 0 -5.96046e-08
v 0.1 0.8 -5.96046e-08
v 0.2 0 -5.96046e-08
v 0.2 0.8 -5.96046e-08
v 0.2 3.6 -5.96046e-08
v 0.2 3.7 -5.96046e-08
v 0.4 3.5 -5.96046e-08
v 0.4 3.6 -5.96046e-08
v 0.4 3.7 -5.96046e-08
v 0.5 0 -5.96046e-08
v 0.5 0.9 -5.96046e-08
v 0.6 0 -5.96046e-08
v 0.6 0.9 -5.96046e-08
v 0.6 1.8 -5.96046e-08
v 0.6 3.4 -5.96046e-08
v 0.6 3.5 -5.96046e-08
v 0.7 0.9 -5.96046e-08
v 0.7 1.8 -5.96046e-08
v 0.7 2.8 -5.96046e-08
v 0.7 3.1 -5.96046e-08
v 0.7 3.2 -5.96046e-08
v 0.7 3.4 -5.96046e-08
v 0.7 3.6 -5.96046e-08
v 0.7 3.7 -5.96046e-08
v 0.8 1.5 -5.96046e-08
v 0.8 1.8 -5.96046e-08
v 0.8 2.8 -5.96046e-08
v 0.8 3.1 -5.96046e-08
v 0.8 3.2 -5.96046e-08
v 0.8 3.6 -5.96046e-08
v 0.9 1.4 -5.96046e-08
v 0.9 1.5 -5.96046e-08
v 1 1.8 -5.96046e-08
v 1 1.9 -5.96046e-08
v 1 2 -5.96046e-08
v 1 2.4 -5.96046e-08
v 1.1 1.4 -5.96046e-08
v 1.1 1.5 -5.96046e-08
v 1.1 1.8 -5.96046e-08
v 1.1 1.9 -5.96046e-08
v 1.1 2 -5.96046e-08
v 1.1 2.4 -5.96046e-08
v 1.2 1.5 -5.96046e-08
v 1.2 1.8 -5.96046e-08
v 1.2 1.9 -5.96046e-08
v 1.2 2 -5.96046e-08
v -1.1 1.9 -0.1
v -1.1 2 -0.1
v -1 1.8 -0.1
v -1 1.9 -0.1
v -1 2 -0.1
v -1 2.5 -0.1
v -0.9 2 -0.1
v -0.9 2.4 -0.1
v -0.8 2.5 -0.1
v -0.8 2.8 -0.1
v -0.7 1.8 -0.1
v -0.7 2 -0.1
v -0.7 2.4 -0.1
v -0.7 2.5 -0.1
v -0.7 2.7 -0.1
v -0.7 2.8 -0.1
v -0.6 0.9 -0.1
v -0.6 1.7 -0.1
v -0.6 2.6 -0.1
v -0.6 2.7 -0.1
v -0.5 0 -0.1
v -0.5 0.9 -0.1
v -0.5 1.7 -0.1
v -0.5 2.5 -0.1
v -0.5 2.6 -0.1
v -0.4 0.8 -0.1
v -0.4 0.9 -0.1
v -0.2 0 -0.1
v -0.2 0.8 -0.1
v 0.2 0 -0.1
v 0.2 0.8 -0.1
v 0.4 0.8 -0.1
v 0.4 1.7 -0.1
v 0.5 0 -0.1
v 0.5 0.9 -0.1
v 0.5 2.5 -0.1
v 0.5 2.6 -0.1
v 0.6 0.9 -0.1
v 0.6 1.7 -0.1
v 0.6 2.6 -0.1
v 0.6 2.7 -0.1
v 0.7 1.8 -0.1
v 0.7 2 -0.1
v 0.7 2.4 -0.1
v 0.7 2.5 -0.1
v 0.7 2.7 -0.1
v 0.7 2.8 -0.1
v 0.8 2.5 -0.1
v 0.8 2.8 -0.1
v 0.9 2 -0.1
v 0.9 2.4 -0.1
v 1 1.8 -0.1
v 1 1.9 -0.1
v 1 2 -0.1
v 1 2.5 -0.1
v 1.1 1.9 -0.1
v 1.1 2 -0.1
v -0.9 2 -0.2
v -0.9 2.4 -0.2
v -0.7 1.8 -0.2
v -0.7 1.9 -0.2
v -0.7 2 -0.2
v -0.7 2.4 -0.2
v -0.7 3.3 -0.2
v -0.7 3.4 -0.2
v -0.6 1.7 -0.2
v -0.6 1.8 -0.2
v -0.6 3.3 -0.2
v -0.6 3.4 -0.2
v -0.5 0.9 -0.2
v -0.5 1.7 -0.2
v -0.5 1.9 -0.2
v -0.4 0.8 -0.2
v -0.4 0.9 -0.2
v -0.4 3.5 -0.2
v -0.4 3.6 -0.2
v -0.3 1.6 -0.2
v -0.3 1.7 -0.2
v 0.3 1.6 -0.2
v 0.3 1.7 -0.2
v 0.4 0.8 -0.2
v 0.4 1.7 -0.2
v 0.4 3.5 -0.2
v 0.4 3.6 -0.2
v 0.5 1.7 -0.2
v 0.5 1.9 -0.2
v 0.6 1.7 -0.2
v 0.6 1.8 -0.2
v 0.6 3.3 -0.2
v 0.6 3.4 -0.2
v 0.7 1.8 -0.2
v 0.7 1.9 -0.2
v 0.7 2 -0.2
v 0.7 2.4 -0.2
v 0.7 3.3 -0.2
v 0.7 3.4 -0.2
v 0.9 2 -0.2
v 0.9 2.4 -0.2
v -0.7 1.9 -0.3
v -0.7 2.5 -0.3
v -0.7 2.8 -0.3
v -0.7 3.3 -0.3
v -0.6 2.6 -0.3
v -0.6 2.7 -0.3
v -0.6 2.8 -0.3
v -0.6 3.3 -0.3
v -0.6 3.4 -0.3
v -0.6 3.5 -0.3
v -0.5 1.7 -0.3
v -0.5 1.9 -0.3
v -0.5 2.5 -0.3
v -0.5 2.6 -0.3
v -0.3 1.6 -0.3
v -0.3 1.7 -0.3
v -0.3 2.6 -0.3
v -0.3 2.7 -0.3
v -0.2 2.4 -0.3
v -0.2 2.6 -0.3
v 0.2 2.4 -0.3
v 0.2 2.6 -0.3
v 0.3 1.6 -0.3
v 0.3 1.7 -0.3
v 0.3 2.6 -0.3
v 0.3 2.7 -0.3
v 0.5 1.7 -0.3
v 0.5 1.9 -0.3
v 0.5 2.5 -0.3
v 0.5 2.6 -0.3
v 0.6 2.6 -0.3
v 0.6 2.7 -0.3
v 0.6 2.8 -0.3
v 0.6 3.3 -0.3
v 0.6 3.4 -0.3
v 0.6 3.5 -0.3
v 0.7 1.9 -0.3
v 0.7 2.5 -0.3
v 0.7 2.8 -0.3
v 0.7 3.3 -0.3
v -0.7 2.7 -0.4
v -0.7 2.8 -0.4
v -0.6 2.8 -0.4
v -0.6 3.4 -0.4
v -0.3 2.6 -0.4
v -0.3 2.7 -0.4
v -0.3 2.8 -0.4
v -0.3 3.2 -0.4
v -0.2 2.4 -0.4
v -0.2 2.6 -0.4
v 0.2 2.4 -0.4
v 0.2 2.6 -0.4
v 0.3 2.6 -0.4
v 0.3 2.7 -0.4
v 0.3 2.8 -0.4
v 0.3 3.2 -0.4
v 0.6 2.8 -0.4
v 0.6 3.4 -0.4
v 0.7 2.7 -0.4
v 0.7 2.8 -0.4
v -0.3 2.8 -0.5
v -0.3 3.2 -0.5
v -0.0999999 2.9 -0.5
v -0.0999999 3.1 -0.5
v 0.1 2.9 -0.5
v 0.1 3.1 -0.5
v 0.3 2.8 -0.5
v 0.3 3.2 -0.5
v -0.0999999 2.9 -0.6
v -0.0999999 3.1 -0.6
v 0.1 2.9 -0.6
v 0.1 3.1 -0.6
v -0.6 0 0.7
v -0.0999999 0 0.7
v 0.1 0 0.7
v 0.6 0 0.7
v -0.6 0 -5.96046e-08
v -0.5 0 -5.96046e-08
v -0.2 0 -5.96046e-08
v -0.0999999 0 -5.96046e-08
v 0.1 0 -5.96046e-08
v 0.2 0 -5.96046e-08
v 0.5 0 -5.96046e-08
v 0.6 0 -5.96046e-08
v -0.5 0 -0.1
v -0.2 0 -0.1
v 0.2 0 -0.1
v 0.5 0 -0.1
v -0.4 0.8 0.6
v 0.4 0.8 0.6
v -0.4 0.8 0.5
v -0.2 0.8 0.5
v 0.2 0.8 0.5
v 0.4 0.8 0.5
v -0.2 0.8 0.4
v -0.0999999 0.8 0.4
v 0.1 0.8 0.4
v 0.2 0.8 0.4
v -0.2 0.8 -5.96046e-08
v -0.0999999 0.8 -5.96046e-08
v 0.1 0.8 -5.96046e-08
v 0.2 0.8 -5.96046e-08
v -0.4 0.8 -0.1
v -0.2 0.8 -0.1
v 0.2 0.8 -0.1
v 0.4 0.8 -0.1
v -0.4 0.8 -0.2
v 0.4 0.8 -0.2
v -1.2 0.9 0.6
v -0.8 0.9 0.6
v -0.5 0.9 0.6
v -0.4 0.9 0.6
v 0.8 0.9 0.6
v 1.2 0.9 0.6
v -0.6 0.9 0.5
v -0.5 0.9 0.5
v -0.4 0.9 0.5
v 0.5 0.9 0.5
v 0.6 0.9 0.5
v -0.7 0.9 0.4
v -0.6 0.9 0.4
v -0.5 0.9 0.4
v 0.5 0.9 0.4
v 0.6 0.9 0.4
v 0.7 0.9 0.4
v -1.2 0.9 0.3
v -0.8 0.9 0.3
v 0.8 0.9 0.3
v 1.2 0.9 0.3
v -0.7 0.9 -5.96046e-08
v -0.6 0.9 -5.96046e-08
v -0.5 0.9 -5.96046e-08
v 0.5 0.9 -5.96046e-08
v 0.6 0.9 -5.96046e-08
v 0.7 0.9 -5.96046e-08
v -0.6 0.9 -0.1
v -0.5 0.9 -0.1
v -0.4 0.9 -0.1
v 0.5 0.9 -0.1
v 0.6 0.9 -0.1
v -0.5 0.9 -0.2
v -0.4 0.9 -0.2
v -1.2 1 0.3
v -0.8 1 0.3
v 0.8 1 0.3
v 1.2 1 0.3
v -1.2 1 0.2
v -0.8 1 0.2
v 0.8 1 0.2
v 1.2 1 0.2
v -1.1 1.2 0.2
v -0.9 1.2 0.2
v 0.9 1.2 0.2
v 1.1 1.2 0.2
v -1.1 1.2 0.1
v -0.9 1.2 0.1
v 0.9 1.2 0.1
v 1.1 1.2 0.1
v -1.2 1.3 0.2
v -1.1 1.3 0.2
v -0.9 1.3 0.2
v -0.8 1.3 0.2
v 0.8 1.3 0.2
v 0.9 1.3 0.2
v 1.1 1.3 0.2
v 1.2 1.3 0.2
v -1.2 1.3 0.1
v -1.1 1.3 0.1
v -0.9 1.3 0.1
v -0.8 1.3 0.1
v 0.8 1.3 0.1
v 0.9 1.3 0.1
v 1.1 1.3 0.1
v 1.2 1.3 0.1
v -1.1 1.4 0.1
v -0.9 1.4 0.1
v 0.9 1.4 0.1
v 1.1 1.4 0.1
v -1.1 1.4 -5.96046e-08
v -0.9 1.4 -5.96046e-08
v 0.9 1.4 -5.96046e-08
v 1.1 1.4 -5.96046e-08
v -0.3 1.5 0.7
v -0.0999999 1.5 0.7
v 0.1 1.5 0.7
v 0.3 1.5 0.7
v -0.3 1.5 0.6
v -0.0999999 1.5 0.6
v 0.1 1.5 0.6
v 0.3 1.5 0.6
v -1.2 1.5 0.1
v -1.1 1.5 0.1
v -0.9 1.5 0.1
v -0.8 1.5 0.1
v 0.8 1.5 0.1
v 0.9 1.5 0.1
v 1.1 1.5 0.1
v 1.2 1.5 0.1
v -1.2 1.5 -5.96046e-08
v -1.1 1.5 -5.96046e-08
v -0.9 1.5 -5.96046e-08
v -0.8 1.5 -5.96046e-08
v 0.8 1.5 -5.96046e-08
v 0.9 1.5 -5.96046e-08
v 1.1 1.5 -5.96046e-08
v 1.2 1.5 -5.96046e-08
v -0.4 1.6 0.7
v -0.3 1.6 0.7
v -0.0999999 1.6 0.7
v 0.1 1.6 0.7
v 0.3 1.6 0.7
v 0.4 1.6 0.7
v -0.4 1.6 0.6
v -0.3 1.6 0.6
v -0.0999999 1.6 0.6
v 0.1 1.6 0.6
v 0.3 1.6 0.6
v 0.4 1.6 0.6
v -0.3 1.6 -0.2
v 0.3 1.6 -0.2
v -0.3 1.6 -0.3
v 0.3 1.6 -0.3
v -0.6 1.7 0.7
v -0.4 1.7 0.7
v 0.4 1.7 0.7
v 0.6 1.7 0.7
v -0.5 1.7 0.6
v -0.4 1.7 0.6
v 0.4 1.7 0.6
v -0.7 1.7 0.5
v -0.6 1.7 0.5
v -0.5 1.7 0.5
v 0.4 1.7 0.5
v 0.6 1.7 0.5
v 0.7 1.7 0.5
v -0.7 1.7 0.4
v -0.6 1.7 0.4
v 0.6 1.7 0.4
v 0.7 1.7 0.4
v -0.6 1.7 -0.1
v -0.5 1.7 -0.1
v 0.4 1.7 -0.1
v 0.6 1.7 -0.1
v -0.6 1.7 -0.2
v -0.5 1.7 -0.2
v -0.3 1.7 -0.2
v 0.3 1.7 -0.2
v 0.4 1.7 -0.2
v 0.5 1.7 -0.2
v 0.6 1.7 -0.2
v -0.5 1.7 -0.3
v -0.3 1.7 -0.3
v 0.3 1.7 -0.3
v 0.5 1.7 -0.3
v -0.8 1.8 0.6
v -0.6 1.8 0.6
v 0.6 1.8 0.6
v 0.8 1.8 0.6
v -1.1 1.8 0.5
v -1 1.8 0.5
v -0.7 1.8 0.5
v -0.6 1.8 0.5
v 0.6 1.8 0.5
v 0.7 1.8 0.5
v 1 1.8 0.5
v 1.1 1.8 0.5
v -1.1 1.8 0.4
v -1 1.8 0.4
v -0.8 1.8 0.4
v -0.7 1.8 0.4
v 0.7 1.8 0.4
v 0.8 1.8 0.4
v 1 1.8 0.4
v 1.1 1.8 0.4
v -1 1.8 -5.96046e-08
v -0.8 1.8 -5.96046e-08
v -0.7 1.8 -5.96046e-08
v -0.6 1.8 -5.96046e-08
v 0.6 1.8 -5.96046e-08
v 0.7 1.8 -5.96046e-08
v 0.8 1.8 -5.96046e-08
v 1 1.8 -5.96046e-08
v -1 1.8 -0.1
v -0.7 1.8 -0.1
v -0.6 1.8 -0.1
v 0.6 1.8 -0.1
v 0.7 1.8 -0.1
v 1 1.8 -0.1
v -0.7 1.8 -0.2
v -0.6 1.8 -0.2
v 0.6 1.8 -0.2
v 0.7 1.8 -0.2
v -1.2 1.9 0.5
v -1.1 1.9 0.5
v -1 1.9 0.5
v -0.8 1.9 0.5
v 0.8 1.9 0.5
v 1 1.9 0.5
v 1.1 1.9 0.5
v 1.2 1.9 0.5
v -1.1 1.9 0.4
v -1 1.9 0.4
v -0.8 1.9 0.4
v 0.8 1.9 0.4
v 1 1.9 0.4
v 1.1 1.9 0.4
v -1.2 1.9 0.3
v -1.1 1.9 0.3
v 1.1 1.9 0.3
v 1.2 1.9 0.3
v -1.2 1.9 0.1
v -1.1 1.9 0.1
v 1.1 1.9 0.1
v 1.2 1.9 0.1
v -1.2 1.9 -5.96046e-08
v -1.1 1.9 -5.96046e-08
v -1 1.9 -5.96046e-08
v 1 1.9 -5.96046e-08
v 1.1 1.9 -5.96046e-08
v 1.2 1.9 -5.96046e-08
v -1.1 1.9 -0.1
v -1 1.9 -0.1
v 1 1.9 -0.1
v 1.1 1.9 -0.1
v -0.7 1.9 -0.2
v -0.5 1.9 -0.2
v 0.5 1.9 -0.2
v 0.7 1.9 -0.2
v -0.7 1.9 -0.3
v -0.5 1.9 -0.3
v 0.5 1.9 -0.3
v 0.7 1.9 -0.3
v -0.9 2 -0.1
v -0.7 2 -0.1
v 0.7 2 -0.1
v 0.9 2 -0.1
v -0.9 2 -0.2
v -0.7 2 -0.2
v 0.7 2 -0.2
v 0.9 2 -0.2
v -0.9 2.1 0.6
v -0.8 2.1 0.6
v 0.8 2.1 0.6
v 0.9 2.1 0.6
v -0.9 2.1 0.5
v -0.8 2.1 0.5
v 0.8 2.1 0.5
v 0.9 2.1 0.5
v -0.6 2.2 0.8
v -0.4 2.2 0.8
v 0.4 2.2 0.8
v 0.6 2.2 0.8
v -0.6 2.2 0.7
v -0.4 2.2 0.7
v 0.4 2.2 0.7
v 0.6 2.2 0.7
v -0.7 2.3 0.7
v -0.6 2.3 0.7
v 0.6 2.3 0.7
v 0.7 2.3 0.7
v -0.7 2.3 0.6
v -0.6 2.3 0.6
v 0.6 2.3 0.6
v 0.7 2.3 0.6
v -0.4 2.4 0.8
v -0.2 2.4 0.8
v 0.2 2.4 0.8
v 0.4 2.4 0.8
v -0.4 2.4 0.7
v -0.2 2.4 0.7
v 0.2 2.4 0.7
v 0.4 2.4 0.7
v -0.2 2.4 -0.3
v 0.2 2.4 -0.3
v -0.2 2.4 -0.4
v 0.2 2.4 -0.4
v -0.8 2.6 0.8
v -0.4 2.6 0.8
v 0.4 2.6 0.8
v 0.8 2.6 0.8
v -0.7 2.6 0.7
v -0.4 2.6 0.7
v 0.4 2.6 0.7
v 0.7 2.6 0.7
v -0.8 2.6 0.4
v -0.7 2.6 0.4
v 0.7 2.6 0.4
v 0.8 2.6 0.4
v -0.6 2.6 -0.1
v -0.5 2.6 -0.1
v 0.5 2.6 -0.1
v 0.6 2.6 -0.1
v -0.6 2.6 -0.3
v -0.5 2.6 -0.3
v -0.3 2.6 -0.3
v -0.2 2.6 -0.3
v 0.2 2.6 -0.3
v 0.3 2.6 -0.3
v 0.5 2.6 -0.3
v 0.6 2.6 -0.3
v -0.3 2.6 -0.4
v -0.2 2.6 -0.4
v 0.2 2.6 -0.4
v 0.3 2.6 -0.4
v -0.0999999 2.7 0.7
v 0.1 2.7 0.7
v -0.0999999 2.7 0.6
v 0.1 2.7 0.6
v -0.7 2.7 -0.1
v -0.6 2.7 -0.1
v 0.6 2.7 -0.1
v 0.7 2.7 -0.1
v -0.6 2.7 -0.3
v -0.3 2.7 -0.3
v 0.3 2.7 -0.3
v 0.6 2.7 -0.3
v -0.7 2.7 -0.4
v -0.3 2.7 -0.4
v 0.3 2.7 -0.4
v 0.7 2.7 -0.4
v -0.2 2.8 0.7
v -0.0999999 2.8 0.7
v 0.1 2.8 0.7
v 0.2 2.8 0.7
v -0.2 2.8 0.6
v -0.0999999 2.8 0.6
v 0.1 2.8 0.6
v 0.2 2.8 0.6
v -0.3 2.8 -0.4
v 0.3 2.8 -0.4
v -0.3 2.8 -0.5
v 0.3 2.8 -0.5
v -0.0999999 2.9 -0.5
v 0.1 2.9 -0.5
v -0.0999999 2.9 -0.6
v 0.1 2.9 -0.6
v -0.5 3.1 0.8
v -0.4 3.1 0.8
v 0.4 3.1 0.8
v 0.5 3.1 0.8
v -0.5 3.1 0.7
v 0.5 3.1 0.7
v -0.5 3.1 0.6
v -0.4 3.1 0.6
v 0.4 3.1 0.6
v 0.5 3.1 0.6
v -0.7 3.1 0.4
v -0.6 3.1 0.4
v 0.6 3.1 0.4
v 0.7 3.1 0.4
v -0.7 3.1 0.3
v -0.6 3.1 0.3
v 0.6 3.1 0.3
v 0.7 3.1 0.3
v -0.4 3.2 0.8
v -0.3 3.2 0.8
v 0.3 3.2 0.8
v 0.4 3.2 0.8
v -0.4 3.2 0.7
v -0.3 3.2 0.7
v 0.3 3.2 0.7
v 0.4 3.2 0.7
v -0.8 3.2 0.4
v -0.7 3.2 0.4
v 0.7 3.2 0.4
v 0.8 3.2 0.4
v -0.8 3.2 -5.96046e-08
v -0.7 3.2 -5.96046e-08
v 0.7 3.2 -5.96046e-08
v 0.8 3.2 -5.96046e-08
v -0.3 3.3 0.8
v 0.3 3.3 0.8
v -0.4 3.3 0.7
v -0.3 3.3 0.7
v 0.3 3.3 0.7
v 0.4 3.3 0.7
v -0.4 3.3 0.6
v 0.4 3.3 0.6
v -0.7 3.5 0.4
v -0.6 3.5 0.4
v -0.5 3.5 0.4
v -0.4 3.5 0.4
v 0.4 3.5 0.4
v 0.5 3.5 0.4
v 0.6 3.5 0.4
v 0.7 3.5 0.4
v -0.7 3.5 0.3
v -0.6 3.5 0.3
v -0.5 3.5 0.3
v -0.4 3.5 0.3
v 0.4 3.5 0.3
v 0.5 3.5 0.3
v 0.6 3.5 0.3
v 0.7 3.5 0.3
v -0.6 3.6 0.4
v -0.5 3.6 0.4
v 0.5 3.6 0.4
v 0.6 3.6 0.4
v -0.6 3.6 0.3
v -0.5 3.6 0.3
v 0.5 3.6 0.3
v 0.6 3.6 0.3
v -0.6 0.1 0.7
v -0.5 0.1 0.7
v -0.2 0.1 0.7
v -0.0999999 0.1 0.7
v 0.1 0.1 0.7
v 0.2 0.1 0.7
v 0.5 0.1 0.7
v 0.6 0.1 0.7
v -0.6 0.1 0.6
v -0.5 0.1 0.6
v -0.2 0.1 0.6
v -0.0999999 0.1 0.6
v 0.1 0.1 0.6
v 0.2 0.1 0.6
v 0.5 0.1 0.6
v 0.6 0.1 0.6
v -0.5 0.2 0.7
v -0.2 0.2 0.7
v 0.2 0.2 0.7
v 0.5 0.2 0.7
v -0.6 0.2 0.6
v -0.5 0.2 0.6
v -0.2 0.2 0.6
v -0.0999999 0.2 0.6
v 0.1 0.2 0.6
v 0.2 0.2 0.6
v 0.5 0.2 0.6
v 0.6 0.2 0.6
v -0.5 0.2 0.5
v -0.2 0.2 0.5
v 0.2 0.2 0.5
v 0.5 0.2 0.5
v -0.6 0.2 0.4
v -0.5 0.2 0.4
v -0.2 0.2 0.4
v -0.0999999 0.2 0.4
v 0.1 0.2 0.4
v 0.2 0.2 0.4
v 0.5 0.2 0.4
v 0.6 0.2 0.4
v -1.2 1.1 0.6
v -1.1 1.1 0.6
v -0.9 1.1 0.6
v -0.8 1.1 0.6
v 0.8 1.1 0.6
v 0.9 1.1 0.6
v 1.1 1.1 0.6
v 1.2 1.1 0.6
v -1.2 1.1 0.5
v -1.1 1.1 0.5
v -0.9 1.1 0.5
v -0.8 1.1 0.5
v 0.8 1.1 0.5
v 0.9 1.1 0.5
v 1.1 1.1 0.5
v 1.2 1.1 0.5
v -1.1 1.2 0.6
v -0.9 1.2 0.6
v 0.9 1.2 0.6
v 1.1 1.2 0.6
v -1.1 1.2 0.5
v -0.9 1.2 0.5
v 0.9 1.2 0.5
v 1.1 1.2 0.5
v -1.2 1.3 0.5
v -1.1 1.3 0.5
v -0.9 1.3 0.5
v -0.8 1.3 0.5
v 0.8 1.3 0.5
v 0.9 1.3 0.5
v 1.1 1.3 0.5
v 1.2 1.3 0.5
v -1.2 1.3 0.4
v -1.1 1.3 0.4
v -0.9 1.3 0.4
v -0.8 1.3 0.4
v 0.8 1.3 0.4
v 0.9 1.3 0.4
v 1.1 1.3 0.4
v 1.2 1.3 0.4
v -1.1 1.4 0.5
v -0.9 1.4 0.5
v 0.9 1.4 0.5
v 1.1 1.4 0.5
v -1.1 1.4 0.4
v -0.9 1.4 0.4
v 0.9 1.4 0.4
v 1.1 1.4 0.4
v -1.2 1.8 0.4
v -1.1 1.8 0.4
v 1.1 1.8 0.4
v 1.2 1.8 0.4
v -1.2 1.8 0.3
v -1.1 1.8 0.3
v 1.1 1.8 0.3
v 1.2 1.8 0.3
v -1.2 1.8 0.1
v -1.1 1.8 0.1
v 1.1 1.8 0.1
v 1.2 1.8 0.1
v -1.2 1.8 -5.96046e-08
v -1.1 1.8 -5.96046e-08
v 1.1 1.8 -5.96046e-08
v 1.2 1.8 -5.96046e-08
v -1.2 2 0.5
v -1 2 0.5
v 1 2 0.5
v 1.2 2 0.5
v -1.1 2 0.4
v -1 2 0.4
v 1 2 0.4
v 1.1 2 0.4
v -1.2 2 0.3
v -1.1 2 0.3
v 1.1 2 0.3
v 1.2 2 0.3
v -1.2 2 0.1
v -1.1 2 0.1
v 1.1 2 0.1
v 1.2 2 0.1
v -1.2 2 -5.96046e-08
v -1.1 2 -5.96046e-08
v -1 2 -5.96046e-08
v 1 2 -5.96046e-08
v 1.1 2 -5.96046e-08
v 1.2 2 -5.96046e-08
v -1.1 2 -0.1
v -1 2 -0.1
v 1 2 -0.1
v 1.1 2 -0.1
v -1.2 2.1 0.3
v -1.1 2.1 0.3
v 1.1 2.1 0.3
v 1.2 2.1 0.3
v -1.2 2.1 0.1
v -1.1 2.1 0.1
v 1.1 2.1 0.1
v 1.2 2.1 0.1
v -1 2.3 0.5
v -0.9 2.3 0.5
v 0.9 2.3 0.5
v 1 2.3 0.5
v -1 2.3 0.4
v -0.9 2.3 0.4
v 0.9 2.3 0.4
v 1 2.3 0.4
v -0.9 2.4 0.6
v -0.7 2.4 0.6
v 0.7 2.4 0.6
v 0.9 2.4 0.6
v -1.1 2.4 0.4
v -0.9 2.4 0.4
v -0.7 2.4 0.4
v 0.7 2.4 0.4
v 0.9 2.4 0.4
v 1.1 2.4 0.4
v -1.1 2.4 -5.96046e-08
v -1 2.4 -5.96046e-08
v -0.9 2.4 -5.96046e-08
v 0.9 2.4 -5.96046e-08
v 1 2.4 -5.96046e-08
v 1.1 2.4 -5.96046e-08
v -0.9 2.4 -0.1
v -0.7 2.4 -0.1
v 0.7 2.4 -0.1
v 0.9 2.4 -0.1
v -0.9 2.4 -0.2
v -0.7 2.4 -0.2
v 0.7 2.4 -0.2
v 0.9 2.4 -0.2
v -0.6 2.5 0.8
v -0.2 2.5 0.8
v 0.2 2.5 0.8
v 0.6 2.5 0.8
v -0.6 2.5 0.7
v -0.2 2.5 0.7
v 0.2 2.5 0.7
v 0.6 2.5 0.7
v -0.2 2.5 0.6
v 0.2 2.5 0.6
v -0.9 2.5 0.4
v -0.8 2.5 0.4
v 0.8 2.5 0.4
v 0.9 2.5 0.4
v -1 2.5 -5.96046e-08
v -0.9 2.5 -5.96046e-08
v 0.9 2.5 -5.96046e-08
v 1 2.5 -5.96046e-08
v -1 2.5 -0.1
v -0.8 2.5 -0.1
v -0.7 2.5 -0.1
v -0.5 2.5 -0.1
v 0.5 2.5 -0.1
v 0.7 2.5 -0.1
v 0.8 2.5 -0.1
v 1 2.5 -0.1
v -0.7 2.5 -0.3
v -0.5 2.5 -0.3
v 0.5 2.5 -0.3
v 0.7 2.5 -0.3
v -0.4 2.6 0.7
v -0.2 2.6 0.7
v 0.2 2.6 0.7
v 0.4 2.6 0.7
v -0.4 2.6 0.6
v -0.2 2.6 0.6
v 0.2 2.6 0.6
v 0.4 2.6 0.6
v -0.8 2.7 0.8
v -0.7 2.7 0.8
v 0.7 2.7 0.8
v 0.8 2.7 0.8
v -0.8 2.7 0.5
v -0.7 2.7 0.5
v 0.7 2.7 0.5
v 0.8 2.7 0.5
v -0.7 2.8 0.8
v -0.4 2.8 0.8
v 0.4 2.8 0.8
v 0.7 2.8 0.8
v -0.7 2.8 0.7
v -0.4 2.8 0.7
v 0.4 2.8 0.7
v 0.7 2.8 0.7
v -0.8 2.8 0.5
v -0.7 2.8 0.5
v 0.7 2.8 0.5
v 0.8 2.8 0.5
v -0.8 2.8 0.4
v -0.7 2.8 0.4
v 0.7 2.8 0.4
v 0.8 2.8 0.4
v -0.8 2.8 -5.96046e-08
v -0.7 2.8 -5.96046e-08
v 0.7 2.8 -5.96046e-08
v 0.8 2.8 -5.96046e-08
v -0.8 2.8 -0.1
v -0.7 2.8 -0.1
v 0.7 2.8 -0.1
v 0.8 2.8 -0.1
v -0.7 2.8 -0.3
v -0.6 2.8 -0.3
v 0.6 2.8 -0.3
v 0.7 2.8 -0.3
v -0.7 2.8 -0.4
v -0.6 2.8 -0.4
v 0.6 2.8 -0.4
v 0.7 2.8 -0.4
v -0.5 2.9 0.7
v -0.4 2.9 0.7
v -0.2 2.9 0.7
v 0.2 2.9 0.7
v 0.4 2.9 0.7
v 0.5 2.9 0.7
v -0.5 2.9 0.6
v -0.4 2.9 0.6
v -0.2 2.9 0.6
v -0.0999999 2.9 0.6
v 0.1 2.9 0.6
v 0.2 2.9 0.6
v 0.4 2.9 0.6
v 0.5 2.9 0.6
v -0.7 3 0.4
v -0.6 3 0.4
v 0.6 3 0.4
v 0.7 3 0.4
v -0.7 3 0.3
v -0.6 3 0.3
v 0.6 3 0.3
v 0.7 3 0.3
v -0.7 3.1 0.7
v -0.6 3.1 0.7
v 0.6 3.1 0.7
v 0.7 3.1 0.7
v -0.7 3.1 0.6
v -0.6 3.1 0.6
v 0.6 3.1 0.6
v 0.7 3.1 0.6
v -0.8 3.1 0.4
v -0.7 3.1 0.4
v 0.7 3.1 0.4
v 0.8 3.1 0.4
v -0.8 3.1 -5.96046e-08
v -0.7 3.1 -5.96046e-08
v 0.7 3.1 -5.96046e-08
v 0.8 3.1 -5.96046e-08
v -0.0999999 3.1 -0.5
v 0.1 3.1 -0.5
v -0.0999999 3.1 -0.6
v 0.1 3.1 -0.6
v -0.6 3.2 0.5
v -0.5 3.2 0.5
v 0.5 3.2 0.5
v 0.6 3.2 0.5
v -0.6 3.2 0.4
v -0.5 3.2 0.4
v 0.5 3.2 0.4
v 0.6 3.2 0.4
v -0.6 3.2 0.3
v -0.5 3.2 0.3
v 0.5 3.2 0.3
v 0.6 3.2 0.3
v -0.3 3.2 -0.4
v 0.3 3.2 -0.4
v -0.3 3.2 -0.5
v 0.3 3.2 -0.5
v -0.7 3.3 0.6
v -0.6 3.3 0.6
v -0.5 3.3 0.6
v 0.5 3.3 0.6
v 0.6 3.3 0.6
v 0.7 3.3 0.6
v -0.6 3.3 0.5
v -0.5 3.3 0.5
v 0.5 3.3 0.5
v 0.6 3.3 0.5
v -0.7 3.3 0.4
v -0.6 3.3 0.4
v 0.6 3.3 0.4
v 0.7 3.3 0.4
v -0.7 3.3 0.3
v -0.6 3.3 0.3
v 0.6 3.3 0.3
v 0.7 3.3 0.3
v -0.7 3.3 -0.2
v -0.6 3.3 -0.2
v 0.6 3.3 -0.2
v 0.7 3.3 -0.2
v -0.7 3.3 -0.3
v -0.6 3.3 -0.3
v 0.6 3.3 -0.3
v 0.7 3.3 -0.3
v -0.6 3.4 0.7
v -0.5 3.4 0.7
v 0.5 3.4 0.7
v 0.6 3.4 0.7
v -0.6 3.4 0.6
v -0.5 3.4 0.6
v 0.5 3.4 0.6
v 0.6 3.4 0.6
v -0.5 3.4 0.5
v -0.4 3.4 0.5
v 0.4 3.4 0.5
v 0.5 3.4 0.5
v -0.4 3.4 0.4
v 0.4 3.4 0.4
v -0.5 3.4 0.3
v -0.4 3.4 0.3
v 0.4 3.4 0.3
v 0.5 3.4 0.3
v -0.7 3.4 -5.96046e-08
v -0.6 3.4 -5.96046e-08
v 0.6 3.4 -5.96046e-08
v 0.7 3.4 -5.96046e-08
v -0.7 3.4 -0.2
v -0.6 3.4 -0.2
v 0.6 3.4 -0.2
v 0.7 3.4 -0.2
v -0.6 3.4 -0.3
v 0.6 3.4 -0.3
v -0.6 3.4 -0.4
v 0.6 3.4 -0.4
v -0.5 3.5 0.8
v 0.5 3.5 0.8
v -0.4 3.5 0.7
v -0.2 3.5 0.7
v 0.2 3.5 0.7
v 0.4 3.5 0.7
v -0.2 3.5 0.6
v 0.2 3.5 0.6
v -0.5 3.5 0.5
v -0.4 3.5 0.5
v 0.4 3.5 0.5
v 0.5 3.5 0.5
v -0.6 3.5 -5.96046e-08
v -0.4 3.5 -5.96046e-08
v 0.4 3.5 -5.96046e-08
v 0.6 3.5 -5.96046e-08
v -0.4 3.5 -0.2
v 0.4 3.5 -0.2
v -0.6 3.5 -0.3
v 0.6 3.5 -0.3
v -0.4 3.6 0.7
v -0.2 3.6 0.7
v 0.2 3.6 0.7
v 0.4 3.6 0.7
v -0.2 3.6 0.6
v 0.2 3.6 0.6
v -0.8 3.6 0.4
v -0.7 3.6 0.4
v -0.4 3.6 0.4
v -0.3 3.6 0.4
v -0.0999999 3.6 0.4
v 0.1 3.6 0.4
v 0.3 3.6 0.4
v 0.4 3.6 0.4
v 0.7 3.6 0.4
v 0.8 3.6 0.4
v -0.2 3.6 0.3
v -0.0999999 3.6 0.3
v 0.1 3.6 0.3
v 0.2 3.6 0.3
v -0.8 3.6 -5.96046e-08
v -0.7 3.6 -5.96046e-08
v -0.4 3.6 -5.96046e-08
v -0.3 3.6 -5.96046e-08
v -0.2 3.6 -5.96046e-08
v 0.2 3.6 -5.96046e-08
v 0.3 3.6 -5.96046e-08
v 0.4 3.6 -5.96046e-08
v 0.7 3.6 -5.96046e-08
v 0.8 3.6 -5.96046e-08
v -0.4 3.6 -0.2
v 0.4 3.6 -0.2
v -0.7 3.7 0.4
v -0.4 3.7 0.4
v -0.0999999 3.7 0.4
v 0.1 3.7 0.4
v 0.4 3.7 0.4
v 0.7 3.7 0.4
v -0.2 3.7 0.3
v -0.0999999 3.7 0.3
v 0.1 3.7 0.3
v 0.2 3.7 0.3
v -0.7 3.7 -5.96046e-08
v -0.4 3.7 -5.96046e-08
v -0.2 3.7 -5.96046e-08
v 0.2 3.7 -5.96046e-08
v 0.4 3.7 -5.96046e-08
v 0.7 3.7 -5.96046e-08

# faces
f 3/5/1 2/5/1 1/5/1
f 5/5/1 3/5/1 1/5/1
f 5/5/1 4/5/1 3/5/1
f 6/5/1 4/5/1 5/5/1
f 7/5/1 4/5/1 6/5/1
f 8/5/1 4/5/1 7/5/1
f 9/5/1 4/5/1 8/5/1
f 11/5/1 10/5/1 9/5/1
f 11/5/1 9/5/1 8/5/1
f 13/5/1 11/5/1 8/5/1
f 13/5/1 12/5/1 11/5/1
f 14/5/1 12/5/1 13/5/1
f 15/5/1 12/5/1 14/5/1
f 16/5/1 12/5/1 15/5/1
f 18/5/1 15/5/1 14/5/1
f 19/5/1 15/5/1 18/5/1
f 21/2/1 18/2/1 17/2/1
f 21/2/1 20/2/1 19/2/1
f 21/2/1 19/2/1 18/2/1
f 22/2/1 20/2/1 21/2/1
f 23/2/1 20/2/1 22/2/1
f 24/2/1 20/2/1 23/2/1
f 25/2/1 23/2/1 22/2/1
f 26/2/1 23/2/1 25/2/1
f 29/5/1 28/5/1 27/5/1
f 30/5/1 28/5/1 29/5/1
f 35/5/1 32/5/1 31/5/1
f 36/5/1 32/5/1 35/5/1
f 37/5/1 34/5/1 33/5/1
f 38/5/1 34/5/1 37/5/1
f 41/5/1 40/5/1 39/5/1
f 42/5/1 40/5/1 41/5/1
f 48/2/1 44/2/1 43/2/1
f 49/5/1 45/5/1 44/5/1
f 49/2/1 44/2/1 48/2/1
f 50/5/1 45/5/1 49/5/1
f 51/5/1 47/5/1 46/5/1
f 52/5/1 47/5/1 51/5/1
f 57/2/1 53/2/1 52/2/1
f 58/2/1 53/2/1 57/2/1
f 59/2/1 55/2/1 54/2/1
f 60/2/1 57/2/1 56/2/1
f 61/2/1 59/2/1 54/2/1
f 61/2/1 60/2/1 59/2/1
f 62/2/1 57/2/1 60/2/1
f 62/2/1 60/2/1 61/2/1
f 65/2/1 64/2/1 63/2/1
f 66/2/1 64/2/1 65/2/1
f 71/2/1 68/2/1 67/2/1
f 72/2/1 68/2/1 71/2/1
f 73/2/1 70/2/1 69/2/1
f 74/2/1 70/2/1 73/2/1
f 75/2/1 70/2/1 74/2/1
f 80/2/1 79/2/1 78/2/1
f 82/2/1 80/2/1 78/2/1
f 82/2/1 81/2/1 80/2/1
f 83/2/1 81/2/1 82/2/1
f 85/2/1 77/2/1 76/2/1
f 86/2/1 77/2/1 85/2/1
f 87/2/1 84/2/1 83/2/1
f 88/2/1 84/2/1 87/2/1
f 91/2/1 90/2/1 89/2/1
f 92/2/1 90/2/1 91/2/1
f 93/2/1 91/2/1 89/2/1
f 94/2/1 91/2/1 93/2/1
f 98/2/1 96/2/1 95/2/1
f 99/2/1 98/2/1 97/2/1
f 100/2/1 98/2/1 99/2/1
f 101/2/1 98/2/1 100/2/1
f 102/2/1 96/2/1 98/2/1
f 102/2/1 98/2/1 101/2/1
f 103/2/1 96/2/1 102/2/1
f 104/2/1 96/2/1 103/2/1
f 105/2/1 103/2/1 102/2/1
f 106/2/1 103/2/1 105/2/1
f 109/5/1 108/5/1 107/5/1
f 110/5/1 108/5/1 109/5/1
f 114/5/1 112/5/1 111/5/1
f 115/2/1 114/2/1 113/2/1
f 116/5/1 112/5/1 114/5/1
f 116/2/1 114/2/1 115/2/1
f 117/5/1 112/5/1 116/5/1
f 120/2/1 119/2/1 118/2/1
f 122/2/1 120/2/1 118/2/1
f 122/2/1 121/2/1 120/2/1
f 123/2/1 121/2/1 122/2/1
f 126/2/1 125/2/1 124/2/1
f 129/2/1 121/2/1 123/2/1
f 130/2/1 129/2/1 128/2/1
f 131/2/1 121/2/1 129/2/1
f 131/2/1 129/2/1 130/2/1
f 132/2/1 127/2/1 126/2/1
f 132/2/1 126/2/1 124/2/1
f 133/2/1 127/2/1 132/2/1
f 138/2/1 135/2/1 134/2/1
f 139/2/1 135/2/1 138/2/1
f 140/2/1 135/2/1 139/2/1
f 143/2/1 137/2/1 136/2/1
f 144/2/1 137/2/1 143/2/1
f 145/2/1 137/2/1 144/2/1
f 146/2/1 141/2/1 140/2/1
f 146/2/1 140/2/1 139/2/1
f 147/2/1 141/2/1 146/2/1
f 148/2/1 141/2/1 147/2/1
f 149/2/1 144/2/1 143/2/1
f 149/2/1 143/2/1 142/2/1
f 150/2/1 148/2/1 147/2/1
f 150/5/1 149/5/1 148/5/1
f 151/2/1 144/2/1 149/2/1
f 151/5/1 149/5/1 150/5/1
f 152/2/1 150/2/1 147/2/1
f 153/2/1 150/2/1 152/2/1
f 154/2/1 144/2/1 151/2/1
f 155/2/1 144/2/1 154/2/1
f 156/2/1 154/2/1 151/2/1
f 157/2/1 154/2/1 156/2/1
f 160/5/1 159/5/1 158/5/1
f 161/5/1 159/5/1 160/5/1
f 164/5/1 163/5/1 162/5/1
f 165/5/1 163/5/1 164/5/1
f 166/5/1 163/5/1 165/5/1
f 167/5/1 163/5/1 166/5/1
f 169/5/1 163/5/1 167/5/1
f 170/5/1 163/5/1 169/5/1
f 173/5/1 169/5/1 168/5/1
f 174/5/1 169/5/1 173/5/1
f 175/5/1 171/5/1 170/5/1
f 177/2/1 173/2/1 172/2/1
f 178/2/1 173/2/1 177/2/1
f 179/5/1 175/5/1 170/5/1
f 180/2/1 176/2/1 175/2/1
f 180/5/1 175/5/1 179/5/1
f 181/2/1 176/2/1 180/2/1
f 183/2/1 177/2/1 172/2/1
f 184/2/1 177/2/1 183/2/1
f 184/2/1 183/2/1 182/2/1
f 185/2/1 177/2/1 184/2/1
f 186/2/1 184/2/1 182/2/1
f 187/2/1 184/2/1 186/2/1
f 190/2/1 189/2/1 188/2/1
f 191/2/1 189/2/1 190/2/1
f 198/2/1 195/2/1 194/2/1
f 199/2/1 195/2/1 198/2/1
f 200/2/1 197/2/1 196/2/1
f 202/2/1 193/2/1 192/2/1
f 203/2/1 200/2/1 196/2/1
f 204/2/1 200/2/1 203/2/1
f 206/2/1 202/2/1 201/2/1
f 207/2/1 193/2/1 202/2/1
f 207/2/1 202/2/1 206/2/1
f 208/2/1 193/2/1 207/2/1
f 209/2/1 206/2/1 205/2/1
f 209/2/1 207/2/1 206/2/1
f 210/2/1 207/2/1 209/2/1
f 215/5/1 214/5/1 213/5/1
f 216/5/1 214/5/1 215/5/1
f 220/5/1 218/5/1 217/5/1
f 221/5/1 218/5/1 220/5/1
f 222/5/1 212/5/1 211/5/1
f 223/5/1 212/5/1 222/5/1
f 225/5/1 220/5/1 219/5/1
f 226/5/1 220/5/1 225/5/1
f 227/5/1 224/5/1 223/5/1
f 228/5/1 224/5/1 227/5/1
f 230/2/1 229/2/1 228/2/1
f 231/2/1 229/2/1 230/2/1
f 234/2/1 233/2/1 232/2/1
f 235/2/1 233/2/1 234/2/1
f 242/5/1 239/5/1 238/5/1
f 242/5/1 240/5/1 239/5/1
f 243/2/1 237/2/1 236/2/1
f 244/2/1 242/2/1 241/2/1
f 245/5/1 240/5/1 242/5/1
f 245/2/1 242/2/1 244/2/1
f 246/5/1 240/5/1 245/5/1
f 247/2/1 243/2/1 236/2/1
f 247/2/1 244/2/1 243/2/1
f 247/2/1 245/2/1 244/2/1
f 248/2/1 245/2/1 247/2/1
f 251/5/1 250/5/1 249/5/1
f 252/5/1 250/5/1 251/5/1
f 257/5/1 254/5/1 253/5/1
f 258/5/1 254/5/1 257/5/1
f 259/5/1 256/5/1 255/5/1
f 260/5/1 256/5/1 259/5/1
f 263/2/1 262/2/1 261/2/1
f 264/2/1 262/2/1 263/2/1
f 269/2/1 266/2/1 265/2/1
f 270/5/1 267/5/1 266/5/1
f 270/2/1 266/2/1 269/2/1
f 271/5/1 267/5/1 270/5/1
f 274/2/1 269/2/1 268/2/1
f 274/2/1 270/2/1 269/2/1
f 275/2/1 270/2/1 274/2/1
f 276/2/1 273/2/1 272/2/1
f 277/2/1 273/2/1 276/2/1
f 280/2/1 279/2/1 278/2/1
f 281/2/1 279/2/1 280/2/1
f 284/2/1 283/2/1 282/2/1
f 285/2/1 283/2/1 284/2/1
f 288/2/1 287/2/1 286/2/1
f 289/2/1 287/2/1 288/2/1
f 292/2/1 291/2/1 290/2/1
f 293/2/1 291/2/1 292/2/1
f 296/2/1 295/2/1 294/2/1
f 297/2/1 295/2/1 296/2/1
f 300/1/1 299/1/1 298/1/1
f 301/1/1 299/1/1 300/1/1
f 304/2/1 303/2/1 302/2/1
f 305/2/1 303/2/1 304/2/1
f 308/1/1 307/1/1 306/1/1
f 309/1/1 307/1/1 308/1/1
f 312/2/1 311/2/1 310/2/1
f 313/2/1 311/2/1 312/2/1
f 316/2/1 315/2/1 314/2/1
f 317/2/1 315/2/1 316/2/1
f 320/5/1 319/5/1 318/5/1
f 321/5/1 319/5/1 320/5/1
f 322/5/1 319/5/1 321/5/1
f 323/5/1 319/5/1 322/5/1
f 324/5/1 319/5/1 323/5/1
f 325/5/1 319/5/1 324/5/1
f 328/2/1 327/2/1 326/2/1
f 329/2/1 327/2/1 328/2/1
f 334/5/1 333/5/1 332/5/1
f 335/5/1 333/5/1 334/5/1
f 338/5/1 337/5/1 336/5/1
f 339/5/1 337/5/1 338/5/1
f 340/5/1 331/5/1 330/5/1
f 341/5/1 331/5/1 340/5/1
f 344/2/1 343/2/1 342/2/1
f 345/2/1 343/2/1 344/2/1
f 347/2/1 346/2/1 345/2/1
f 348/2/1 346/2/1 347/2/1
f 351/2/1 350/2/1 349/2/1
f 352/2/1 350/2/1 351/2/1
f 355/2/1 354/2/1 353/2/1
f 356/2/1 354/2/1 355/2/1
f 359/2/1 358/2/1 357/2/1
f 360/2/1 358/2/1 359/2/1
f 364/2/1 362/2/1 361/2/1
f 364/2/1 363/2/1 362/2/1
f 365/2/1 363/2/1 364/2/1
f 366/2/1 363/2/1 365/2/1
f 367/2/1 363/2/1 366/2/1
f 370/2/1 369/2/1 368/2/1
f 371/2/1 369/2/1 370/2/1
f 372/2/1 369/2/1 371/2/1
f 373/2/1 372/2/1 371/2/1
f 374/2/1 372/2/1 373/2/1
f 377/5/1 376/5/1 375/5/1
f 378/5/1 376/5/1 377/5/1
f 381/2/1 380/2/1 379/2/1
f 382/2/1 380/2/1 381/2/1
f 386/2/1 384/2/1 383/2/1
f 387/5/1 385/5/1 384/5/1
f 387/2/1 384/2/1 386/2/1
f 388/5/1 385/5/1 387/5/1
f 391/5/1 390/5/1 389/5/1
f 392/5/1 390/5/1 391/5/1
f 395/2/1 394/2/1 393/2/1
f 396/2/1 394/2/1 395/2/1
f 399/5/1 398/5/1 397/5/1
f 400/5/1 398/5/1 399/5/1
f 403/5/1 402/5/1 401/5/1
f 405/5/1 403/5/1 401/5/1
f 405/5/1 404/5/1 403/5/1
f 406/5/1 404/5/1 405/5/1
f 407/5/1 404/5/1 406/5/1
f 408/5/1 404/5/1 407/5/1
f 409/5/1 404/5/1 408/5/1
f 411/5/1 410/5/1 409/5/1
f 411/5/1 409/5/1 408/5/1
f 413/5/1 411/5/1 408/5/1
f 413/5/1 412/5/1 411/5/1
f 414/5/1 412/5/1 413/5/1
f 417/5/1 416/5/1 415/5/1
f 418/5/1 416/5/1 417/5/1
f 423/5/1 420/5/1 419/5/1
f 424/5/1 420/5/1 423/5/1
f 425/5/1 422/5/1 421/5/1
f 426/5/1 422/5/1 425/5/1
f 429/5/1 428/5/1 427/5/1
f 430/5/1 428/5/1 429/5/1
f 433/2/1 432/2/1 431/2/1
f 434/2/1 432/2/1 433/2/1
f 435/2/2 436/2/2 437/2/2
f 437/2/2 436/2/2 438/2/2
f 439/5/2 440/5/2 441/5/2
f 441/5/2 440/5/2 442/5/2
f 443/5/2 444/5/2 447/5/2
f 447/5/2 444/5/2 448/5/2
f 445/5/2 446/5/2 449/5/2
f 449/5/2 446/5/2 450/5/2
f 451/5/2 452/5/2 453/5/2
f 453/5/2 452/5/2 454/5/2
f 455/5/2 456/5/2 457/5/2
f 455/5/2 457/5/2 459/5/2
f 457/5/2 458/5/2 459/5/2
f 459/5/2 458/5/2 460/5/2
f 460/5/2 458/5/2 461/5/2
f 461/5/2 458/5/2 462/5/2
f 462/5/2 458/5/2 463/5/2
f 463/5/2 464/5/2 465/5/2
f 462/5/2 463/5/2 465/5/2
f 462/5/2 465/5/2 467/5/2
f 465/5/2 466/5/2 467/5/2
f 467/5/2 466/5/2 468/5/2
f 469/2/2 470/2/2 471/2/2
f 471/2/2 470/2/2 472/2/2
f 473/5/2 474/5/2 475/5/2
f 475/5/2 474/5/2 476/5/2
f 477/2/2 478/2/2 480/2/2
f 478/5/2 479/5/2 481/5/2
f 480/2/2 478/2/2 481/2/2
f 481/5/2 479/5/2 482/5/2
f 483/5/2 484/5/2 485/5/2
f 485/5/2 484/5/2 486/5/2
f 487/2/2 488/2/2 489/2/2
f 489/2/2 488/2/2 490/2/2
f 491/2/2 492/2/2 493/2/2
f 493/2/2 492/2/2 494/2/2
f 495/2/2 496/2/2 498/2/2
f 496/2/2 497/2/2 498/2/2
f 498/2/2 497/2/2 499/2/2
f 499/2/2 497/2/2 500/2/2
f 500/2/2 497/2/2 501/2/2
f 502/2/2 503/2/2 504/2/2
f 504/2/2 503/2/2 505/2/2
f 505/2/2 503/2/2 506/2/2
f 505/2/2 506/2/2 507/2/2
f 507/2/2 506/2/2 508/2/2
f 509/5/2 510/5/2 511/5/2
f 511/5/2 510/5/2 512/5/2
f 513/2/2 514/2/2 515/2/2
f 515/2/2 514/2/2 516/2/2
f 519/5/2 520/5/2 521/5/2
f 521/5/2 520/5/2 522/5/2
f 523/5/2 524/5/2 525/5/2
f 525/5/2 524/5/2 526/5/2
f 517/5/2 518/5/2 527/5/2
f 527/5/2 518/5/2 528/5/2
f 529/2/2 530/2/2 531/2/2
f 531/2/2 530/2/2 532/2/2
f 532/2/2 533/2/2 534/2/2
f 534/2/2 533/2/2 535/2/2
f 536/2/2 537/2/2 538/2/2
f 538/2/2 537/2/2 539/2/2
f 540/5/2 541/5/2 542/5/2
f 542/5/2 541/5/2 543/5/2
f 543/5/2 541/5/2 544/5/2
f 544/5/2 541/5/2 545/5/2
f 545/5/2 541/5/2 546/5/2
f 546/5/2 541/5/2 547/5/2
f 548/2/2 549/2/2 550/2/2
f 550/2/2 549/2/2 551/2/2
f 552/1/2 553/1/2 554/1/2
f 554/1/2 553/1/2 555/1/2
f 556/2/2 557/2/2 558/2/2
f 558/2/2 557/2/2 559/2/2
f 560/2/2 561/2/2 562/2/2
f 562/2/2 561/2/2 563/2/2
f 564/2/2 565/2/2 566/2/2
f 566/2/2 565/2/2 567/2/2
f 568/1/2 569/1/2 570/1/2
f 570/1/2 569/1/2 571/1/2
f 572/2/2 573/2/2 574/2/2
f 574/2/2 573/2/2 575/2/2
f 576/2/2 577/2/2 578/2/2
f 578/2/2 577/2/2 579/2/2
f 580/2/2 581/2/2 582/2/2
f 582/2/2 581/2/2 583/2/2
f 584/2/2 585/2/2 586/2/2
f 586/2/2 585/2/2 587/2/2
f 588/2/2 589/2/2 590/2/2
f 590/2/2 589/2/2 591/2/2
f 592/5/2 593/5/2 597/5/2
f 596/2/2 597/2/2 598/2/2
f 597/5/2 593/5/2 599/5/2
f 598/2/2 597/2/2 599/2/2
f 599/5/2 593/5/2 600/5/2
f 594/5/2 595/5/2 601/5/2
f 601/5/2 595/5/2 602/5/2
f 603/2/2 604/2/2 607/2/2
f 604/5/2 605/5/2 608/5/2
f 607/2/2 604/2/2 608/2/2
f 608/5/2 605/5/2 609/5/2
f 606/2/2 607/2/2 612/2/2
f 607/2/2 608/2/2 612/2/2
f 612/2/2 608/2/2 613/2/2
f 610/2/2 611/2/2 614/2/2
f 614/2/2 611/2/2 615/2/2
f 618/5/2 619/5/2 620/5/2
f 620/5/2 619/5/2 621/5/2
f 622/5/2 623/5/2 624/5/2
f 624/5/2 623/5/2 625/5/2
f 616/5/2 617/5/2 626/5/2
f 626/5/2 617/5/2 627/5/2
f 628/2/2 629/2/2 630/2/2
f 630/2/2 629/2/2 631/2/2
f 632/2/2 633/2/2 634/2/2
f 634/2/2 633/2/2 635/2/2
f 638/5/2 639/5/2 642/5/2
f 639/5/2 640/5/2 642/5/2
f 636/2/2 637/2/2 643/2/2
f 641/2/2 642/2/2 644/2/2
f 642/5/2 640/5/2 645/5/2
f 644/2/2 642/2/2 645/2/2
f 645/5/2 640/5/2 646/5/2
f 636/2/2 643/2/2 647/2/2
f 643/2/2 644/2/2 647/2/2
f 644/2/2 645/2/2 647/2/2
f 647/2/2 645/2/2 648/2/2
f 649/5/2 650/5/2 651/5/2
f 651/5/2 650/5/2 652/5/2
f 653/5/2 654/5/2 655/5/2
f 655/5/2 654/5/2 656/5/2
f 656/5/2 654/5/2 657/5/2
f 657/5/2 654/5/2 658/5/2
f 658/5/2 654/5/2 660/5/2
f 660/5/2 654/5/2 661/5/2
f 659/5/2 660/5/2 664/5/2
f 664/5/2 660/5/2 665/5/2
f 661/5/2 662/5/2 666/5/2
f 663/2/2 664/2/2 668/2/2
f 668/2/2 664/2/2 669/2/2
f 661/5/2 666/5/2 670/5/2
f 666/2/2 667/2/2 671/2/2
f 670/5/2 666/5/2 671/5/2
f 671/2/2 667/2/2 672/2/2
f 663/2/2 668/2/2 674/2/2
f 674/2/2 668/2/2 675/2/2
f 673/2/2 674/2/2 675/2/2
f 675/2/2 668/2/2 676/2/2
f 673/2/2 675/2/2 677/2/2
f 677/2/2 675/2/2 678/2/2
f 679/2/2 680/2/2 681/2/2
f 681/2/2 680/2/2 682/2/2
f 685/2/2 686/2/2 689/2/2
f 689/2/2 686/2/2 690/2/2
f 687/2/2 688/2/2 691/2/2
f 683/2/2 684/2/2 693/2/2
f 687/2/2 691/2/2 694/2/2
f 694/2/2 691/2/2 695/2/2
f 692/2/2 693/2/2 697/2/2
f 693/2/2 684/2/2 698/2/2
f 697/2/2 693/2/2 698/2/2
f 698/2/2 684/2/2 699/2/2
f 696/2/2 697/2/2 700/2/2
f 697/2/2 698/2/2 700/2/2
f 700/2/2 698/2/2 701/2/2
f 702/5/2 703/5/2 705/5/2
f 704/2/2 705/2/2 706/2/2
f 705/5/2 703/5/2 707/5/2
f 706/2/2 705/2/2 707/2/2
f 707/5/2 703/5/2 708/5/2
f 709/2/2 710/2/2 711/2/2
f 709/2/2 711/2/2 713/2/2
f 711/2/2 712/2/2 713/2/2
f 713/2/2 712/2/2 714/2/2
f 715/2/2 716/2/2 717/2/2
f 714/2/2 712/2/2 720/2/2
f 719/2/2 720/2/2 721/2/2
f 720/2/2 712/2/2 722/2/2
f 721/2/2 720/2/2 722/2/2
f 717/2/2 718/2/2 723/2/2
f 715/2/2 717/2/2 723/2/2
f 723/2/2 718/2/2 724/2/2
f 725/2/2 726/2/2 729/2/2
f 729/2/2 726/2/2 730/2/2
f 730/2/2 726/2/2 731/2/2
f 727/2/2 728/2/2 734/2/2
f 734/2/2 728/2/2 735/2/2
f 735/2/2 728/2/2 736/2/2
f 731/2/2 732/2/2 737/2/2
f 730/2/2 731/2/2 737/2/2
f 737/2/2 732/2/2 738/2/2
f 738/2/2 732/2/2 739/2/2
f 734/2/2 735/2/2 740/2/2
f 733/2/2 734/2/2 740/2/2
f 738/2/2 739/2/2 741/2/2
f 739/5/2 740/5/2 741/5/2
f 740/2/2 735/2/2 742/2/2
f 741/5/2 740/5/2 742/5/2
f 738/2/2 741/2/2 743/2/2
f 743/2/2 741/2/2 744/2/2
f 742/2/2 735/2/2 745/2/2
f 745/2/2 735/2/2 746/2/2
f 742/2/2 745/2/2 747/2/2
f 747/2/2 745/2/2 748/2/2
f 749/5/2 750/5/2 751/5/2
f 751/5/2 750/5/2 752/5/2
f 753/2/2 754/2/2 755/2/2
f 755/2/2 754/2/2 756/2/2
f 753/2/2 755/2/2 757/2/2
f 757/2/2 755/2/2 758/2/2
f 759/2/2 760/2/2 762/2/2
f 761/2/2 762/2/2 763/2/2
f 763/2/2 762/2/2 764/2/2
f 764/2/2 762/2/2 765/2/2
f 762/2/2 760/2/2 766/2/2
f 765/2/2 762/2/2 766/2/2
f 766/2/2 760/2/2 767/2/2
f 767/2/2 760/2/2 768/2/2
f 766/2/2 767/2/2 769/2/2
f 769/2/2 767/2/2 770/2/2
f 771/5/2 772/5/2 773/5/2
f 773/5/2 772/5/2 774/5/2
f 777/2/2 778/2/2 779/2/2
f 777/2/2 779/2/2 781/2/2
f 779/2/2 780/2/2 781/2/2
f 781/2/2 780/2/2 782/2/2
f 775/2/2 776/2/2 784/2/2
f 784/2/2 776/2/2 785/2/2
f 782/2/2 783/2/2 786/2/2
f 786/2/2 783/2/2 787/2/2
f 788/2/2 789/2/2 790/2/2
f 790/2/2 789/2/2 791/2/2
f 792/2/2 793/2/2 796/2/2
f 796/2/2 793/2/2 797/2/2
f 794/2/2 795/2/2 798/2/2
f 798/2/2 795/2/2 799/2/2
f 799/2/2 795/2/2 800/2/2
f 801/5/2 802/5/2 803/5/2
f 803/5/2 802/5/2 804/5/2
f 805/5/2 806/5/2 809/5/2
f 809/5/2 806/5/2 810/5/2
f 807/5/2 808/5/2 811/5/2
f 811/5/2 808/5/2 812/5/2
f 813/5/2 814/5/2 815/5/2
f 815/5/2 814/5/2 816/5/2
f 817/2/2 818/2/2 822/2/2
f 818/5/2 819/5/2 823/5/2
f 822/2/2 818/2/2 823/2/2
f 823/5/2 819/5/2 824/5/2
f 820/5/2 821/5/2 825/5/2
f 825/5/2 821/5/2 826/5/2
f 826/2/2 827/2/2 831/2/2
f 831/2/2 827/2/2 832/2/2
f 828/2/2 829/2/2 833/2/2
f 830/2/2 831/2/2 834/2/2
f 828/2/2 833/2/2 835/2/2
f 833/2/2 834/2/2 835/2/2
f 834/2/2 831/2/2 836/2/2
f 835/2/2 834/2/2 836/2/2
f 837/5/2 838/5/2 839/5/2
f 837/5/2 839/5/2 841/5/2
f 839/5/2 840/5/2 841/5/2
f 841/5/2 840/5/2 842/5/2
f 842/5/2 840/5/2 843/5/2
f 843/5/2 840/5/2 844/5/2
f 844/5/2 840/5/2 845/5/2
f 845/5/2 846/5/2 847/5/2
f 844/5/2 845/5/2 847/5/2
f 844/5/2 847/5/2 849/5/2
f 847/5/2 848/5/2 849/5/2
f 849/5/2 848/5/2 850/5/2
f 850/5/2 848/5/2 851/5/2
f 851/5/2 848/5/2 852/5/2
f 850/5/2 851/5/2 854/5/2
f 854/5/2 851/5/2 855/5/2
f 853/2/2 854/2/2 857/2/2
f 855/2/2 856/2/2 857/2/2
f 854/2/2 855/2/2 857/2/2
f 857/2/2 856/2/2 858/2/2
f 858/2/2 856/2/2 859/2/2
f 859/2/2 856/2/2 860/2/2
f 858/2/2 859/2/2 861/2/2
f 861/2/2 859/2/2 862/2/2
f 865/2/3 864/2/3 863/2/3
f 871/2/3 868/2/3 867/2/3
f 872/2/3 868/2/3 871/2/3
f 873/2/3 865/2/3 863/2/3
f 873/2/3 866/2/3 865/2/3
f 874/2/3 866/2/3 873/2/3
f 875/2/3 870/2/3 869/2/3
f 876/2/3 870/2/3 875/2/3
f 877/2/3 870/2/3 876/2/3
f 878/2/3 870/2/3 877/2/3
f 879/2/3 868/2/3 872/2/3
f 880/2/3 868/2/3 879/2/3
f 884/2/3 870/2/3 878/2/3
f 886/2/3 882/2/3 881/2/3
f 890/2/3 884/2/3 883/2/3
f 891/2/3 890/2/3 889/2/3
f 892/2/3 870/2/3 884/2/3
f 892/2/3 890/2/3 891/2/3
f 892/2/3 884/2/3 890/2/3
f 893/2/3 886/2/3 885/2/3
f 894/2/3 882/2/3 886/2/3
f 894/2/3 886/2/3 893/2/3
f 895/2/3 888/2/3 887/2/3
f 896/2/3 888/2/3 895/2/3
f 897/2/3 895/2/3 887/2/3
f 898/2/3 895/2/3 897/2/3
f 907/2/3 900/2/3 899/2/3
f 908/2/3 900/2/3 907/2/3
f 909/2/3 902/2/3 901/2/3
f 911/5/3 904/5/3 903/5/3
f 913/2/3 910/2/3 909/2/3
f 913/2/3 909/2/3 901/2/3
f 914/2/3 910/2/3 913/2/3
f 915/2/3 910/2/3 914/2/3
f 917/2/3 906/2/3 905/2/3
f 918/2/3 906/2/3 917/2/3
f 920/2/3 900/2/3 908/2/3
f 921/2/3 913/2/3 901/2/3
f 922/2/3 913/2/3 921/2/3
f 926/2/3 919/2/3 918/2/3
f 926/2/3 917/2/3 916/2/3
f 926/2/3 918/2/3 917/2/3
f 927/5/3 912/5/3 911/5/3
f 927/5/3 911/5/3 903/5/3
f 928/5/3 912/5/3 927/5/3
f 929/2/3 926/2/3 925/2/3
f 929/2/3 919/2/3 926/2/3
f 930/2/3 920/2/3 908/2/3
f 931/2/3 920/2/3 930/2/3
f 934/2/3 924/2/3 923/2/3
f 935/2/3 924/2/3 934/2/3
f 936/5/3 927/5/3 903/5/3
f 937/5/3 927/5/3 936/5/3
f 938/2/3 929/2/3 925/2/3
f 938/2/3 930/2/3 929/2/3
f 939/2/3 930/2/3 938/2/3
f 941/1/3 933/1/3 932/1/3
f 945/2/3 930/2/3 939/2/3
f 946/1/3 941/1/3 940/1/3
f 947/1/3 933/1/3 941/1/3
f 947/1/3 941/1/3 946/1/3
f 948/5/3 943/5/3 942/5/3
f 950/2/3 945/2/3 944/2/3
f 950/2/3 930/2/3 945/2/3
f 951/2/3 930/2/3 950/2/3
f 953/1/3 933/1/3 947/1/3
f 954/1/3 933/1/3 953/1/3
f 957/2/3 950/2/3 944/2/3
f 958/2/3 950/2/3 957/2/3
f 959/2/3 950/2/3 958/2/3
f 960/2/3 950/2/3 959/2/3
f 961/2/3 950/2/3 960/2/3
f 962/2/3 950/2/3 961/2/3
f 963/2/3 952/2/3 951/2/3
f 966/2/3 956/2/3 955/2/3
f 967/2/3 956/2/3 966/2/3
f 968/5/3 949/5/3 948/5/3
f 968/5/3 948/5/3 942/5/3
f 969/5/3 949/5/3 968/5/3
f 970/2/3 965/2/3 964/2/3
f 973/5/3 968/5/3 942/5/3
f 974/5/3 968/5/3 973/5/3
f 975/2/3 961/2/3 960/2/3
f 976/2/3 961/2/3 975/2/3
f 978/2/3 963/2/3 951/2/3
f 979/2/3 972/2/3 971/2/3
f 979/2/3 971/2/3 970/2/3
f 980/2/3 972/2/3 979/2/3
f 981/2/3 978/2/3 977/2/3
f 982/2/3 963/2/3 978/2/3
f 982/2/3 978/2/3 981/2/3
f 983/2/3 979/2/3 970/2/3
f 983/2/3 970/2/3 964/2/3
f 984/2/3 979/2/3 983/2/3
f 987/5/3 986/5/3 985/5/3
f 989/5/3 987/5/3 985/5/3
f 989/5/3 988/5/3 987/5/3
f 990/5/3 988/5/3 989/5/3
f 993/5/3 989/5/3 985/5/3
f 994/5/3 989/5/3 993/5/3
f 996/2/3 992/2/3 991/2/3
f 997/2/3 996/2/3 995/2/3
f 997/2/3 992/2/3 996/2/3
f 998/2/3 992/2/3 997/2/3
f 1003/2/3 997/2/3 995/2/3
f 1004/2/3 997/2/3 1003/2/3
f 1005/2/3 1000/2/3 999/2/3
f 1006/2/3 1000/2/3 1005/2/3
f 1007/5/3 1002/5/3 1001/5/3
f 1008/5/3 1002/5/3 1007/5/3
f 1014/5/3 1010/5/3 1009/5/3
f 1015/5/3 1010/5/3 1014/5/3
f 1016/5/3 1010/5/3 1015/5/3
f 1018/5/3 1012/5/3 1011/5/3
f 1019/5/3 1012/5/3 1018/5/3
f 1022/5/3 1014/5/3 1013/5/3
f 1022/5/3 1015/5/3 1014/5/3
f 1023/5/3 1015/5/3 1022/5/3
f 1024/6/3 1020/6/3 1019/6/3
f 1024/6/3 1019/6/3 1018/6/3
f 1024/5/3 1018/5/3 1017/5/3
f 1025/6/3 1020/6/3 1024/6/3
f 1029/5/3 1024/5/3 1017/5/3
f 1030/5/3 1024/5/3 1029/5/3
f 1031/5/3 1024/5/3 1030/5/3
f 1032/4/3 1025/4/3 1024/4/3
f 1032/5/3 1024/5/3 1031/5/3
f 1035/5/3 1027/5/3 1026/5/3
f 1036/5/3 1027/5/3 1035/5/3
f 1037/5/3 1022/5/3 1013/5/3
f 1039/5/3 1031/5/3 1030/5/3
f 1039/3/3 1030/3/3 1029/3/3
f 1040/5/3 1031/5/3 1039/5/3
f 1041/4/3 1025/4/3 1032/4/3
f 1042/6/3 1020/6/3 1025/6/3
f 1042/4/3 1025/4/3 1041/4/3
f 1043/5/3 1021/5/3 1020/5/3
f 1043/6/3 1020/6/3 1042/6/3
f 1046/5/3 1038/5/3 1037/5/3
f 1046/5/3 1037/5/3 1013/5/3
f 1047/5/3 1038/5/3 1046/5/3
f 1048/3/3 1039/3/3 1029/3/3
f 1050/5/3 1042/5/3 1041/5/3
f 1050/5/3 1043/5/3 1042/5/3
f 1051/5/3 1043/5/3 1050/5/3
f 1052/5/3 1021/5/3 1043/5/3
f 1052/5/3 1043/5/3 1051/5/3
f 1053/5/3 1045/5/3 1044/5/3
f 1054/5/3 1045/5/3 1053/5/3
f 1055/5/3 1029/5/3 1028/5/3
f 1056/3/3 1048/3/3 1029/3/3
f 1056/5/3 1029/5/3 1055/5/3
f 1057/5/3 1049/5/3 1048/5/3
f 1057/3/3 1048/3/3 1056/3/3
f 1058/5/3 1049/5/3 1057/5/3
f 1059/4/3 1051/4/3 1050/4/3
f 1060/2/3 1034/2/3 1033/2/3
f 1061/2/3 1034/2/3 1060/2/3
f 1062/5/3 1046/5/3 1013/5/3
f 1064/5/3 1058/5/3 1057/5/3
f 1064/5/3 1059/5/3 1058/5/3
f 1064/4/3 1051/4/3 1059/4/3
f 1064/5/3 1057/5/3 1056/5/3
f 1065/6/3 1052/6/3 1051/6/3
f 1065/4/3 1051/4/3 1064/4/3
f 1066/5/3 1063/5/3 1062/5/3
f 1066/5/3 1062/5/3 1013/5/3
f 1067/5/3 1063/5/3 1066/5/3
f 1068/5/3 1064/5/3 1056/5/3
f 1069/6/3 1065/6/3 1064/6/3
f 1069/5/3 1064/5/3 1068/5/3
f 1070/6/3 1052/6/3 1065/6/3
f 1070/6/3 1065/6/3 1069/6/3
f 1071/5/3 1021/5/3 1052/5/3
f 1071/6/3 1052/6/3 1070/6/3
f 1072/5/3 1021/5/3 1071/5/3
f 1075/5/3 1070/5/3 1069/5/3
f 1076/5/3 1070/5/3 1075/5/3
f 1077/5/3 1074/5/3 1073/5/3
f 1078/5/3 1074/5/3 1077/5/3
f 1083/2/3 1080/2/3 1079/2/3
f 1085/2/3 1082/2/3 1081/2/3
f 1086/2/3 1082/2/3 1085/2/3
f 1089/2/3 1084/2/3 1083/2/3
f 1089/2/3 1083/2/3 1079/2/3
f 1090/2/3 1084/2/3 1089/2/3
f 1091/5/3 1088/5/3 1087/5/3
f 1093/2/3 1084/2/3 1090/2/3
f 1094/2/3 1084/2/3 1093/2/3
f 1095/5/3 1092/5/3 1091/5/3
f 1095/5/3 1091/5/3 1087/5/3
f 1096/5/3 1092/5/3 1095/5/3
f 1097/5/3 1095/5/3 1087/5/3
f 1098/5/3 1095/5/3 1097/5/3
f 1103/5/3 1100/5/3 1099/5/3
f 1104/5/3 1100/5/3 1103/5/3
f 1105/5/3 1100/5/3 1104/5/3
f 1108/2/3 1102/2/3 1101/2/3
f 1109/2/3 1108/2/3 1107/2/3
f 1110/2/3 1102/2/3 1108/2/3
f 1110/2/3 1108/2/3 1109/2/3
f 1111/2/3 1102/2/3 1110/2/3
f 1114/5/3 1106/5/3 1105/5/3
f 1114/5/3 1105/5/3 1104/5/3
f 1115/5/3 1106/5/3 1114/5/3
f 1116/5/3 1106/5/3 1115/5/3
f 1117/2/3 1111/2/3 1110/2/3
f 1117/2/3 1112/2/3 1111/2/3
f 1118/2/3 1112/2/3 1117/2/3
f 1119/5/3 1115/5/3 1114/5/3
f 1119/5/3 1114/5/3 1113/5/3
f 1120/5/3 1115/5/3 1119/5/3
f 1121/2/3 1117/2/3 1110/2/3
f 1122/2/3 1117/2/3 1121/2/3
f 1127/2/3 1124/2/3 1123/2/3
f 1128/2/3 1124/2/3 1127/2/3
f 1130/2/3 1126/2/3 1125/2/3
f 1131/2/3 1126/2/3 1130/2/3
f 1133/5/3 1130/5/3 1129/5/3
f 1134/5/3 1130/5/3 1133/5/3
f 1135/5/3 1133/5/3 1132/5/3
f 1136/5/3 1133/5/3 1135/5/3
f 1137/5/3 1135/5/3 1132/5/3
f 1138/5/3 1135/5/3 1137/5/3
f 1141/5/3 1140/5/3 1139/5/3
f 1143/5/3 1141/5/3 1139/5/3
f 1143/5/3 1142/5/3 1141/5/3
f 1144/5/3 1142/5/3 1143/5/3
f 1145/5/3 1142/5/3 1144/5/3
f 1146/5/3 1142/5/3 1145/5/3
f 1148/2/3 1147/2/3 1146/2/3
f 1149/2/3 1147/2/3 1148/2/3
f 1156/2/3 1151/2/3 1150/2/3
f 1157/2/3 1151/2/3 1156/2/3
f 1158/5/3 1153/5/3 1152/5/3
f 1159/5/3 1153/5/3 1158/5/3
f 1160/5/3 1153/5/3 1159/5/3
f 1162/2/3 1155/2/3 1154/2/3
f 1165/2/3 1163/2/3 1162/2/3
f 1165/2/3 1162/2/3 1154/2/3
f 1166/2/3 1163/2/3 1165/2/3
f 1167/2/3 1163/2/3 1166/2/3
f 1169/5/3 1161/5/3 1160/5/3
f 1169/5/3 1160/5/3 1159/5/3
f 1170/5/3 1161/5/3 1169/5/3
f 1171/5/3 1161/5/3 1170/5/3
f 1172/2/3 1166/2/3 1165/2/3
f 1172/2/3 1165/2/3 1164/2/3
f 1173/2/3 1166/2/3 1172/2/3
f 1174/5/3 1170/5/3 1169/5/3
f 1174/5/3 1169/5/3 1168/5/3
f 1175/5/3 1170/5/3 1174/5/3
f 1176/2/3 1166/2/3 1173/2/3
f 1177/2/3 1166/2/3 1176/2/3
f 1180/5/3 1179/5/3 1178/5/3
f 1181/5/3 1179/5/3 1180/5/3
f 1182/5/3 1179/5/3 1181/5/3
f 1185/5/3 1182/5/3 1181/5/3
f 1187/2/3 1184/2/3 1183/2/3
f 1188/2/3 1184/2/3 1187/2/3
f 1190/5/3 1186/5/3 1185/5/3
f 1190/5/3 1185/5/3 1181/5/3
f 1191/2/3 1184/2/3 1188/2/3
f 1192/2/3 1184/2/3 1191/2/3
f 1194/5/3 1190/5/3 1189/5/3
f 1195/5/3 1186/5/3 1190/5/3
f 1195/5/3 1190/5/3 1194/5/3
f 1196/5/3 1186/5/3 1195/5/3
f 1197/2/3 1193/2/3 1192/2/3
f 1205/2/3 1197/2/3 1192/2/3
f 1205/2/3 1198/2/3 1197/2/3
f 1206/2/3 1198/2/3 1205/2/3
f 1207/2/3 1200/2/3 1199/2/3
f 1208/2/3 1200/2/3 1207/2/3
f 1209/5/3 1202/5/3 1201/5/3
f 1210/5/3 1202/5/3 1209/5/3
f 1211/5/3 1202/5/3 1210/5/3
f 1212/5/3 1202/5/3 1211/5/3
f 1215/5/3 1204/5/3 1203/5/3
f 1216/5/3 1204/5/3 1215/5/3
f 1217/5/3 1213/5/3 1212/5/3
f 1217/5/3 1212/5/3 1211/5/3
f 1218/5/3 1213/5/3 1217/5/3
f 1219/5/3 1215/5/3 1214/5/3
f 1220/5/3 1215/5/3 1219/5/3
f 1222/5/3 1213/5/3 1218/5/3
f 1223/5/3 1222/5/3 1221/5/3
f 1224/5/3 1213/5/3 1222/5/3
f 1224/5/3 1222/5/3 1223/5/3
f 1225/5/3 1213/5/3 1224/5/3
f 1228/5/3 1227/5/3 1226/5/3
f 1229/5/3 1227/5/3 1228/5/3
f 1234/2/3 1231/2/3 1230/2/3
f 1235/2/3 1231/2/3 1234/2/3
f 1236/5/3 1233/5/3 1232/5/3
f 1237/5/3 1233/5/3 1236/5/3
f 1243/5/3 1239/5/3 1238/5/3
f 1243/5/3 1240/5/3 1239/5/3
f 1244/5/3 1240/5/3 1243/5/3
f 1245/5/3 1242/5/3 1241/5/3
f 1246/5/3 1242/5/3 1245/5/3
f 1249/5/3 1240/5/3 1244/5/3
f 1250/5/3 1247/5/3 1246/5/3
f 1251/5/3 1247/5/3 1250/5/3
f 1258/5/3 1249/5/3 1248/5/3
f 1259/5/3 1240/5/3 1249/5/3
f 1259/5/3 1249/5/3 1258/5/3
f 1260/5/3 1240/5/3 1259/5/3
f 1264/2/3 1253/2/3 1252/2/3
f 1265/2/3 1253/2/3 1264/2/3
f 1266/2/3 1255/2/3 1254/2/3
f 1267/2/3 1255/2/3 1266/2/3
f 1268/5/3 1257/5/3 1256/5/3
f 1268/5/3 1258/5/3 1257/5/3
f 1268/5/3 1259/5/3 1258/5/3
f 1269/5/3 1259/5/3 1268/5/3
f 1270/5/3 1263/5/3 1262/5/3
f 1270/5/3 1262/5/3 1261/5/3
f 1271/5/3 1263/5/3 1270/5/3
f 1273/2/3 1264/2/3 1252/2/3
f 1274/2/3 1264/2/3 1273/2/3
f 1275/5/3 1263/5/3 1271/5/3
f 1276/5/3 1263/5/3 1275/5/3
f 1278/2/3 1273/2/3 1272/2/3
f 1280/5/3 1275/5/3 1271/5/3
f 1281/5/3 1275/5/3 1280/5/3
f 1282/2/3 1278/2/3 1277/2/3
f 1283/2/3 1273/2/3 1278/2/3
f 1283/2/3 1278/2/3 1282/2/3
f 1284/5/3 1281/5/3 1280/5/3
f 1284/5/3 1280/5/3 1279/5/3
f 1285/5/3 1281/5/3 1284/5/3
f 1290/5/3 1287/5/3 1286/5/3
f 1291/5/3 1287/5/3 1290/5/3
f 1292/2/3 1289/2/3 1288/2/3
f 1293/2/3 1289/2/3 1292/2/3
f 1298/2/3 1295/2/3 1294/2/3
f 1299/2/3 1295/2/3 1298/2/3
f 1301/5/3 1297/5/3 1296/5/3
f 1302/5/3 1297/5/3 1301/5/3
f 1304/5/3 1303/5/3 1302/5/3
f 1304/5/3 1302/5/3 1301/5/3
f 1304/5/3 1301/5/3 1300/5/3
f 1305/5/3 1303/5/3 1304/5/3
f 1306/5/3 1303/5/3 1305/5/3
f 1307/5/3 1303/5/3 1306/5/3
f 1308/5/3 1306/5/3 1305/5/3
f 1309/5/3 1306/5/3 1308/5/3
f 1312/2/3 1311/2/3 1310/2/3
f 1313/2/3 1311/2/3 1312/2/3
f 1316/2/3 1315/2/3 1314/2/3
f 1317/2/3 1315/2/3 1316/2/3
f 1321/5/3 1319/5/3 1318/5/3
f 1322/5/3 1319/5/3 1321/5/3
f 1326/5/3 1321/5/3 1320/5/3
f 1326/5/3 1322/5/3 1321/5/3
f 1326/5/3 1323/5/3 1322/5/3
f 1327/5/3 1323/5/3 1326/5/3
f 1328/5/3 1323/5/3 1327/5/3
f 1329/5/3 1323/5/3 1328/5/3
f 1330/2/3 1325/2/3 1324/2/3
f 1331/2/3 1325/2/3 1330/2/3
f 1332/5/3 1328/5/3 1327/5/3
f 1333/5/3 1328/5/3 1332/5/3
f 1338/5/3 1335/5/3 1334/5/3
f 1339/5/3 1335/5/3 1338/5/3
f 1340/2/3 1337/2/3 1336/2/3
f 1341/2/3 1337/2/3 1340/2/3
f 1344/2/3 1343/2/3 1342/2/3
f 1345/2/3 1343/2/3 1344/2/3
f 1348/2/3 1347/2/3 1346/2/3
f 1349/2/3 1347/2/3 1348/2/3
f 1350/2/4 1351/2/4 1352/2/4
f 1352/2/4 1351/2/4 1353/2/4
f 1354/2/4 1355/2/4 1356/2/4
f 1356/2/4 1355/2/4 1357/2/4
f 1358/2/4 1359/2/4 1360/2/4
f 1360/2/4 1359/2/4 1361/2/4
f 1362/2/4 1363/2/4 1364/2/4
f 1364/2/4 1363/2/4 1365/2/4
f 1366/2/4 1367/2/4 1368/2/4
f 1368/2/4 1367/2/4 1369/2/4
f 1370/2/4 1371/2/4 1372/2/4
f 1372/2/4 1371/2/4 1373/2/4
f 1374/2/4 1375/2/4 1378/2/4
f 1378/2/4 1375/2/4 1379/2/4
f 1376/2/4 1377/2/4 1380/2/4
f 1380/2/4 1377/2/4 1381/2/4
f 1382/2/4 1383/2/4 1384/2/4
f 1384/2/4 1383/2/4 1385/2/4
f 1386/2/4 1387/2/4 1388/2/4
f 1388/2/4 1387/2/4 1389/2/4
f 1390/5/4 1391/5/4 1392/5/4
f 1392/5/4 1391/5/4 1393/5/4
f 1394/5/4 1395/5/4 1396/5/4
f 1396/5/4 1395/5/4 1397/5/4
f 1398/5/4 1399/5/4 1400/5/4
f 1400/5/4 1399/5/4 1401/5/4
f 1398/5/4 1400/5/4 1402/5/4
f 1398/5/4 1402/5/4 1404/5/4
f 1402/5/4 1403/5/4 1404/5/4
f 1404/5/4 1403/5/4 1405/5/4
f 1406/5/4 1407/5/4 1408/5/4
f 1408/5/4 1407/5/4 1409/5/4
f 1406/5/4 1408/5/4 1410/5/4
f 1406/5/4 1410/5/4 1412/5/4
f 1410/5/4 1411/5/4 1412/5/4
f 1412/5/4 1411/5/4 1413/5/4
f 1414/5/4 1415/5/4 1421/5/4
f 1421/5/4 1415/5/4 1422/5/4
f 1422/5/4 1415/5/4 1423/5/4
f 1416/5/4 1417/5/4 1424/5/4
f 1424/5/4 1417/5/4 1425/5/4
f 1418/2/4 1419/2/4 1426/2/4
f 1426/2/4 1419/2/4 1427/2/4
f 1420/5/4 1421/5/4 1428/5/4
f 1421/5/4 1422/5/4 1428/5/4
f 1428/5/4 1422/5/4 1429/5/4
f 1429/5/4 1422/5/4 1430/5/4
f 1430/5/4 1431/5/4 1432/5/4
f 1429/5/4 1430/5/4 1432/5/4
f 1432/5/4 1431/5/4 1433/5/4
f 1434/5/4 1435/5/4 1437/5/4
f 1437/5/4 1435/5/4 1438/5/4
f 1438/5/4 1435/5/4 1439/5/4
f 1436/5/4 1437/5/4 1440/5/4
f 1437/5/4 1438/5/4 1440/5/4
f 1440/5/4 1438/5/4 1441/5/4
f 1441/5/4 1438/5/4 1442/5/4
f 1442/5/4 1443/5/4 1448/5/4
f 1441/5/4 1442/5/4 1448/5/4
f 1448/5/4 1443/5/4 1449/5/4
f 1444/5/4 1445/5/4 1450/5/4
f 1450/5/4 1445/5/4 1451/5/4
f 1446/2/4 1447/2/4 1452/2/4
f 1452/2/4 1447/2/4 1453/2/4
f 1454/5/4 1455/5/4 1459/5/4
f 1459/5/4 1455/5/4 1460/5/4
f 1456/2/4 1457/2/4 1461/2/4
f 1461/2/4 1457/2/4 1462/2/4
f 1459/5/4 1460/5/4 1464/5/4
f 1458/5/4 1459/5/4 1464/5/4
f 1460/5/4 1461/5/4 1464/5/4
f 1464/5/4 1461/5/4 1465/5/4
f 1462/2/4 1463/2/4 1466/2/4
f 1466/2/4 1463/2/4 1467/2/4
f 1458/5/4 1464/5/4 1468/5/4
f 1468/5/4 1464/5/4 1469/5/4
f 1469/5/4 1464/5/4 1470/5/4
f 1470/5/4 1464/5/4 1471/5/4
f 1472/2/4 1473/2/4 1478/2/4
f 1478/2/4 1473/2/4 1479/2/4
f 1474/5/4 1475/5/4 1480/5/4
f 1480/5/4 1475/5/4 1481/5/4
f 1481/5/4 1475/5/4 1482/5/4
f 1476/5/4 1477/5/4 1485/5/4
f 1485/5/4 1477/5/4 1486/5/4
f 1482/5/4 1483/5/4 1487/5/4
f 1481/5/4 1482/5/4 1487/5/4
f 1487/5/4 1483/5/4 1488/5/4
f 1484/5/4 1485/5/4 1489/5/4
f 1489/5/4 1485/5/4 1490/5/4
f 1488/5/4 1483/5/4 1491/5/4
f 1491/5/4 1483/5/4 1492/5/4
f 1492/5/4 1483/5/4 1493/5/4
f 1494/5/4 1495/5/4 1498/5/4
f 1498/5/4 1495/5/4 1499/5/4
f 1500/5/4 1501/5/4 1502/5/4
f 1502/5/4 1501/5/4 1503/5/4
f 1496/2/4 1497/2/4 1504/2/4
f 1504/2/4 1497/2/4 1505/2/4
f 1509/5/4 1510/5/4 1511/5/4
f 1511/5/4 1510/5/4 1512/5/4
f 1506/5/4 1507/5/4 1515/5/4
f 1507/5/4 1508/5/4 1515/5/4
f 1512/5/4 1513/5/4 1516/5/4
f 1516/5/4 1513/5/4 1517/5/4
f 1514/5/4 1515/5/4 1521/5/4
f 1515/5/4 1508/5/4 1522/5/4
f 1521/5/4 1515/5/4 1522/5/4
f 1522/5/4 1508/5/4 1523/5/4
f 1518/2/4 1519/2/4 1526/2/4
f 1526/2/4 1519/2/4 1527/2/4
f 1520/5/4 1521/5/4 1528/5/4
f 1521/5/4 1522/5/4 1528/5/4
f 1528/5/4 1522/5/4 1529/5/4
f 1524/5/4 1525/5/4 1531/5/4
f 1531/5/4 1525/5/4 1532/5/4
f 1530/5/4 1531/5/4 1532/5/4
f 1530/5/4 1532/5/4 1536/5/4
f 1532/5/4 1533/5/4 1536/5/4
f 1536/5/4 1533/5/4 1537/5/4
f 1537/5/4 1533/5/4 1538/5/4
f 1538/5/4 1533/5/4 1539/5/4
f 1534/2/4 1535/2/4 1540/2/4
f 1540/2/4 1535/2/4 1541/2/4
f 1537/5/4 1538/5/4 1542/5/4
f 1542/5/4 1538/5/4 1543/5/4
f 1539/2/4 1540/2/4 1544/2/4
f 1544/2/4 1540/2/4 1545/2/4
f 1546/2/4 1547/2/4 1549/2/4
f 1549/2/4 1547/2/4 1550/2/4
f 1548/2/4 1549/2/4 1552/2/4
f 1550/2/4 1551/2/4 1552/2/4
f 1549/2/4 1550/2/4 1552/2/4
f 1552/2/4 1551/2/4 1553/2/4
f 1553/2/4 1551/2/4 1554/2/4
f 1548/2/4 1552/2/4 1556/2/4
f 1556/2/4 1552/2/4 1557/2/4
f 1554/2/4 1555/2/4 1558/2/4
f 1553/2/4 1554/2/4 1558/2/4
f 1558/2/4 1555/2/4 1559/2/4
f 1559/2/4 1555/2/4 1560/2/4
f 1560/2/4 1555/2/4 1561/2/4
f 1559/2/4 1560/2/4 1564/2/4
f 1564/2/4 1560/2/4 1565/2/4
f 1562/5/4 1563/5/4 1567/5/4
f 1567/5/4 1563/5/4 1568/5/4
f 1559/2/4 1564/2/4 1569/2/4
f 1569/2/4 1564/2/4 1570/2/4
f 1566/5/4 1567/5/4 1571/5/4
f 1571/5/4 1567/5/4 1572/5/4
f 1566/5/4 1571/5/4 1573/5/4
f 1573/5/4 1571/5/4 1574/5/4
f 1575/5/4 1576/5/4 1577/5/4
f 1575/5/4 1577/5/4 1579/5/4
f 1577/5/4 1578/5/4 1579/5/4
f 1579/5/4 1578/5/4 1580/5/4
f 1580/5/4 1578/5/4 1583/5/4
f 1583/5/4 1578/5/4 1584/5/4
f 1581/2/4 1582/2/4 1585/2/4
f 1581/2/4 1585/2/4 1590/2/4
f 1585/2/4 1586/2/4 1590/2/4
f 1590/2/4 1586/2/4 1591/2/4
f 1590/2/4 1591/2/4 1593/2/4
f 1591/2/4 1592/2/4 1593/2/4
f 1589/2/4 1590/2/4 1593/2/4
f 1593/2/4 1592/2/4 1594/2/4
f 1587/2/4 1588/2/4 1595/2/4
f 1589/2/4 1593/2/4 1596/2/4
f 1587/2/4 1595/2/4 1597/2/4
f 1595/2/4 1596/2/4 1597/2/4
f 1597/2/4 1596/2/4 1598/2/4
f 1598/2/4 1596/2/4 1599/2/4
f 1596/2/4 1593/2/4 1600/2/4
f 1599/2/4 1596/2/4 1600/2/4
f 1598/2/4 1599/2/4 1601/2/4
f 1601/2/4 1599/2/4 1602/2/4
f 1603/2/4 1604/2/4 1607/2/4
f 1607/2/4 1604/2/4 1608/2/4
f 1605/2/4 1606/2/4 1612/2/4
f 1609/2/4 1610/2/4 1613/2/4
f 1613/2/4 1610/2/4 1614/2/4
f 1611/2/4 1612/2/4 1616/2/4
f 1612/2/4 1606/2/4 1617/2/4
f 1616/2/4 1612/2/4 1617/2/4
f 1615/5/4 1616/5/4 1619/5/4
f 1618/5/4 1619/5/4 1622/5/4
f 1619/5/4 1616/5/4 1622/5/4
f 1622/5/4 1616/5/4 1623/5/4
f 1618/5/4 1622/5/4 1624/5/4
f 1618/5/4 1624/5/4 1626/5/4
f 1624/5/4 1625/5/4 1626/5/4
f 1626/5/4 1625/5/4 1627/5/4
f 1620/2/4 1621/2/4 1628/2/4
f 1628/2/4 1621/2/4 1629/2/4
f 1630/2/4 1631/2/4 1632/2/4
f 1632/2/4 1631/2/4 1633/2/4
f 1633/2/4 1631/2/4 1636/2/4
f 1636/2/4 1631/2/4 1637/2/4
f 1634/2/4 1635/2/4 1640/2/4
f 1640/2/4 1635/2/4 1641/2/4
f 1638/2/4 1639/2/4 1642/2/4
f 1642/2/4 1639/2/4 1643/2/4
f 1646/2/4 1647/2/4 1650/2/4
f 1650/2/4 1647/2/4 1651/2/4
f 1644/2/4 1645/2/4 1655/2/4
f 1655/2/4 1645/2/4 1656/2/4
f 1648/2/4 1649/2/4 1657/2/4
f 1655/2/4 1656/2/4 1659/2/4
f 1656/2/4 1657/2/4 1659/2/4
f 1654/2/4 1655/2/4 1659/2/4
f 1657/2/4 1649/2/4 1660/2/4
f 1659/2/4 1657/2/4 1660/2/4
f 1660/2/4 1649/2/4 1661/2/4
f 1658/2/4 1659/2/4 1662/2/4
f 1659/2/4 1660/2/4 1662/2/4
f 1662/2/4 1660/2/4 1663/2/4
f 1658/2/4 1662/2/4 1664/2/4
f 1658/2/4 1664/2/4 1666/2/4
f 1664/2/4 1665/2/4 1666/2/4
f 1666/2/4 1665/2/4 1667/2/4
f 1667/2/4 1665/2/4 1668/2/4
f 1667/2/4 1668/2/4 1670/2/4
f 1668/2/4 1669/2/4 1670/2/4
f 1670/2/4 1669/2/4 1671/2/4
f 1671/2/4 1669/2/4 1672/2/4
f 1672/2/4 1669/2/4 1673/2/4
f 1673/2/4 1669/2/4 1674/2/4
f 1674/2/4 1669/2/4 1675/2/4
f 1652/2/4 1653/2/4 1678/2/4
f 1678/2/4 1653/2/4 1679/2/4
f 1671/2/4 1672/2/4 1680/2/4
f 1680/2/4 1672/2/4 1681/2/4
f 1676/2/4 1677/2/4 1682/2/4
f 1682/2/4 1677/2/4 1683/2/4
f 1684/2/4 1685/2/4 1686/2/4
f 1684/2/4 1686/2/4 1689/2/4
f 1686/2/4 1687/2/4 1689/2/4
f 1689/2/4 1687/2/4 1690/2/4
f 1690/2/4 1687/2/4 1691/2/4
f 1688/2/4 1689/2/4 1693/2/4
f 1689/2/4 1690/2/4 1693/2/4
f 1692/2/4 1693/2/4 1694/2/4
f 1693/2/4 1690/2/4 1695/2/4
f 1694/2/4 1693/2/4 1695/2/4
f 1695/2/4 1690/2/4 1696/2/4
f 1696/2/4 1690/2/4 1697/2/4
f 1697/2/4 1690/2/4 1698/2/4
f 1691/2/4 1687/2/4 1699/2/4
f 1697/2/4 1698/2/4 1700/2/4
f 1698/2/4 1699/2/4 1700/2/4
f 1699/2/4 1687/2/4 1701/2/4
f 1700/2/4 1699/2/4 1701/2/4
f 1697/2/4 1700/2/4 1702/2/4
f 1702/2/4 1700/2/4 1703/2/4
f 1704/2/4 1705/2/4 1706/2/4
f 1706/2/4 1705/2/4 1707/2/4
f 1704/2/4 1706/2/4 1708/2/4
f 1707/2/4 1705/2/4 1709/2/4
f 1704/2/4 1708/2/4 1710/2/4
f 1708/2/4 1709/2/4 1710/2/4
f 1709/2/4 1705/2/4 1711/2/4
f 1710/2/4 1709/2/4 1711/2/4
f 1712/2/4 1713/2/4 1714/2/4
f 1714/2/4 1713/2/4 1715/2/4
f 1720/5/5 1717/5/5 1716/5/5
f 1721/5/5 1717/5/5 1720/5/5
f 1722/5/5 1717/5/5 1721/5/5
f 1723/5/5 1717/5/5 1722/5/5
f 1724/5/5 1719/5/5 1718/5/5
f 1725/5/5 1719/5/5 1724/5/5
f 1726/5/5 1719/5/5 1725/5/5
f 1727/5/5 1719/5/5 1726/5/5
f 1728/5/5 1722/5/5 1721/5/5
f 1729/5/5 1722/5/5 1728/5/5
f 1730/5/5 1726/5/5 1725/5/5
f 1731/5/5 1726/5/5 1730/5/5
f 1734/5/5 1733/5/5 1732/5/5
f 1735/5/5 1733/5/5 1734/5/5
f 1736/5/5 1733/5/5 1735/5/5
f 1737/5/5 1733/5/5 1736/5/5
f 1738/5/5 1736/5/5 1735/5/5
f 1739/5/5 1736/5/5 1738/5/5
f 1740/5/5 1736/5/5 1739/5/5
f 1741/5/5 1736/5/5 1740/5/5
f 1743/5/5 1740/5/5 1739/5/5
f 1744/5/5 1740/5/5 1743/5/5
f 1747/5/5 1743/5/5 1742/5/5
f 1747/5/5 1745/5/5 1744/5/5
f 1747/5/5 1744/5/5 1743/5/5
f 1748/5/5 1745/5/5 1747/5/5
f 1750/5/5 1748/5/5 1747/5/5
f 1750/5/5 1749/5/5 1748/5/5
f 1750/5/5 1747/5/5 1746/5/5
f 1751/5/5 1749/5/5 1750/5/5
f 1759/5/5 1755/5/5 1754/5/5
f 1760/5/5 1755/5/5 1759/5/5
f 1764/5/5 1759/5/5 1758/5/5
f 1765/5/5 1759/5/5 1764/5/5
f 1766/5/5 1762/5/5 1761/5/5
f 1767/5/5 1762/5/5 1766/5/5
f 1769/5/5 1753/5/5 1752/5/5
f 1770/5/5 1753/5/5 1769/5/5
f 1771/5/5 1757/5/5 1756/5/5
f 1772/5/5 1757/5/5 1771/5/5
f 1773/5/5 1764/5/5 1763/5/5
f 1774/5/5 1764/5/5 1773/5/5
f 1777/5/5 1768/5/5 1767/5/5
f 1778/5/5 1768/5/5 1777/5/5
f 1779/5/5 1775/5/5 1774/5/5
f 1780/5/5 1775/5/5 1779/5/5
f 1782/5/5 1777/5/5 1776/5/5
f 1783/5/5 1777/5/5 1782/5/5
f 1784/5/5 1781/5/5 1780/5/5
f 1785/5/5 1781/5/5 1784/5/5
f 1790/5/5 1787/5/5 1786/5/5
f 1791/5/5 1787/5/5 1790/5/5
f 1792/5/5 1789/5/5 1788/5/5
f 1793/5/5 1789/5/5 1792/5/5
f 1798/5/5 1795/5/5 1794/5/5
f 1799/5/5 1795/5/5 1798/5/5
f 1800/5/5 1797/5/5 1796/5/5
f 1801/5/5 1797/5/5 1800/5/5
f 1810/5/5 1803/5/5 1802/5/5
f 1811/5/5 1803/5/5 1810/5/5
f 1812/5/5 1805/5/5 1804/5/5
f 1813/5/5 1805/5/5 1812/5/5
f 1814/5/5 1807/5/5 1806/5/5
f 1815/5/5 1807/5/5 1814/5/5
f 1816/5/5 1809/5/5 1808/5/5
f 1817/5/5 1809/5/5 1816/5/5
f 1822/5/5 1819/5/5 1818/5/5
f 1823/5/5 1819/5/5 1822/5/5
f 1824/5/5 1821/5/5 1820/5/5
f 1825/5/5 1821/5/5 1824/5/5
f 1830/2/5 1827/2/5 1826/2/5
f 1831/2/5 1827/2/5 1830/2/5
f 1832/2/5 1829/2/5 1828/2/5
f 1833/2/5 1829/2/5 1832/2/5
f 1842/5/5 1835/5/5 1834/5/5
f 1843/5/5 1835/5/5 1842/5/5
f 1844/5/5 1837/5/5 1836/5/5
f 1845/5/5 1837/5/5 1844/5/5
f 1846/5/5 1839/5/5 1838/5/5
f 1847/5/5 1839/5/5 1846/5/5
f 1848/5/5 1841/5/5 1840/5/5
f 1849/5/5 1841/5/5 1848/5/5
f 1856/2/5 1851/2/5 1850/2/5
f 1857/2/5 1851/2/5 1856/2/5
f 1858/2/5 1853/2/5 1852/2/5
f 1859/2/5 1853/2/5 1858/2/5
f 1860/2/5 1855/2/5 1854/2/5
f 1861/2/5 1855/2/5 1860/2/5
f 1864/2/5 1863/2/5 1862/2/5
f 1865/2/5 1863/2/5 1864/2/5
f 1870/2/5 1867/2/5 1866/2/5
f 1871/2/5 1867/2/5 1870/2/5
f 1872/2/5 1869/2/5 1868/2/5
f 1874/2/5 1870/2/5 1866/2/5
f 1875/2/5 1870/2/5 1874/2/5
f 1876/2/5 1869/2/5 1872/2/5
f 1877/2/5 1869/2/5 1876/2/5
f 1879/2/5 1874/2/5 1873/2/5
f 1880/2/5 1874/2/5 1879/2/5
f 1881/2/5 1878/2/5 1877/2/5
f 1882/2/5 1878/2/5 1881/2/5
f 1887/2/5 1884/2/5 1883/2/5
f 1888/2/5 1884/2/5 1887/2/5
f 1891/2/5 1886/2/5 1885/2/5
f 1892/2/5 1886/2/5 1891/2/5
f 1893/2/5 1886/2/5 1892/2/5
f 1894/2/5 1889/2/5 1888/2/5
f 1895/2/5 1889/2/5 1894/2/5
f 1896/2/5 1892/2/5 1891/2/5
f 1896/2/5 1891/2/5 1890/2/5
f 1897/2/5 1892/2/5 1896/2/5
f 1904/2/5 1899/2/5 1898/2/5
f 1905/2/5 1899/2/5 1904/2/5
f 1906/2/5 1901/2/5 1900/2/5
f 1907/2/5 1901/2/5 1906/2/5
f 1910/2/5 1903/2/5 1902/2/5
f 1911/2/5 1903/2/5 1910/2/5
f 1912/2/5 1904/2/5 1898/2/5
f 1913/2/5 1904/2/5 1912/2/5
f 1914/2/5 1901/2/5 1907/2/5
f 1915/2/5 1901/2/5 1914/2/5
f 1916/2/5 1909/2/5 1908/2/5
f 1917/2/5 1909/2/5 1916/2/5
f 1919/5/5 1913/5/5 1912/5/5
f 1920/5/5 1913/5/5 1919/5/5
f 1923/5/5 1915/5/5 1914/5/5
f 1924/5/5 1915/5/5 1923/5/5
f 1926/2/5 1921/2/5 1920/2/5
f 1926/2/5 1919/2/5 1918/2/5
f 1926/2/5 1920/2/5 1919/2/5
f 1927/2/5 1921/2/5 1926/2/5
f 1928/2/5 1921/2/5 1927/2/5
f 1929/2/5 1925/2/5 1924/2/5
f 1929/2/5 1924/2/5 1923/2/5
f 1929/2/5 1923/2/5 1922/2/5
f 1930/2/5 1925/2/5 1929/2/5
f 1931/2/5 1925/2/5 1930/2/5
f 1932/2/5 1928/2/5 1927/2/5
f 1933/2/5 1928/2/5 1932/2/5
f 1934/2/5 1930/2/5 1929/2/5
f 1935/2/5 1930/2/5 1934/2/5
f 1944/2/5 1937/2/5 1936/2/5
f 1945/2/5 1939/2/5 1938/2/5
f 1946/2/5 1939/2/5 1945/2/5
f 1947/2/5 1941/2/5 1940/2/5
f 1948/2/5 1941/2/5 1947/2/5
f 1949/2/5 1943/2/5 1942/2/5
f 1950/2/5 1944/2/5 1936/2/5
f 1951/2/5 1944/2/5 1950/2/5
f 1952/2/5 1943/2/5 1949/2/5
f 1953/2/5 1943/2/5 1952/2/5
f 1958/2/5 1955/2/5 1954/2/5
f 1959/2/5 1955/2/5 1958/2/5
f 1962/2/5 1957/2/5 1956/2/5
f 1963/2/5 1957/2/5 1962/2/5
f 1964/2/5 1960/2/5 1959/2/5
f 1965/2/5 1960/2/5 1964/2/5
f 1966/2/5 1962/2/5 1961/2/5
f 1967/2/5 1962/2/5 1966/2/5
f 1972/2/5 1969/2/5 1968/2/5
f 1973/2/5 1969/2/5 1972/2/5
f 1974/2/5 1971/2/5 1970/2/5
f 1975/2/5 1971/2/5 1974/2/5
f 1980/2/5 1977/2/5 1976/2/5
f 1981/2/5 1977/2/5 1980/2/5
f 1982/2/5 1979/2/5 1978/2/5
f 1983/2/5 1979/2/5 1982/2/5
f 1988/2/5 1985/2/5 1984/2/5
f 1989/2/5 1985/2/5 1988/2/5
f 1990/2/5 1987/2/5 1986/2/5
f 1991/2/5 1987/2/5 1990/2/5
f 1996/2/5 1993/2/5 1992/2/5
f 1997/2/5 1993/2/5 1996/2/5
f 1998/2/5 1995/2/5 1994/2/5
f 1999/2/5 1995/2/5 1998/2/5
f 2004/2/5 2001/2/5 2000/2/5
f 2005/2/5 2001/2/5 2004/2/5
f 2006/2/5 2003/2/5 2002/2/5
f 2007/2/5 2003/2/5 2006/2/5
f 2012/2/5 2009/2/5 2008/2/5
f 2013/2/5 2009/2/5 2012/2/5
f 2014/2/5 2011/2/5 2010/2/5
f 2015/2/5 2011/2/5 2014/2/5
f 2018/2/5 2017/2/5 2016/2/5
f 2019/2/5 2017/2/5 2018/2/5
f 2024/2/5 2021/2/5 2020/2/5
f 2025/2/5 2021/2/5 2024/2/5
f 2026/2/5 2023/2/5 2022/2/5
f 2027/2/5 2023/2/5 2026/2/5
f 2028/2/5 2024/2/5 2020/2/5
f 2029/2/5 2024/2/5 2028/2/5
f 2030/2/5 2023/2/5 2027/2/5
f 2031/2/5 2023/2/5 2030/2/5
f 2036/2/5 2033/2/5 2032/2/5
f 2037/2/5 2033/2/5 2036/2/5
f 2042/2/5 2035/2/5 2034/2/5
f 2043/2/5 2035/2/5 2042/2/5
f 2044/2/5 2039/2/5 2038/2/5
f 2045/2/5 2039/2/5 2044/2/5
f 2046/2/5 2041/2/5 2040/2/5
f 2047/2/5 2041/2/5 2046/2/5
f 2050/1/5 2049/1/5 2048/1/5
f 2051/1/5 2049/1/5 2050/1/5
f 2056/2/5 2053/2/5 2052/2/5
f 2059/2/5 2055/2/5 2054/2/5
f 2060/2/5 2057/2/5 2056/2/5
f 2060/2/5 2056/2/5 2052/2/5
f 2061/2/5 2057/2/5 2060/2/5
f 2062/2/5 2059/2/5 2058/2/5
f 2063/2/5 2055/2/5 2059/2/5
f 2063/2/5 2059/2/5 2062/2/5
f 2068/1/5 2065/1/5 2064/1/5
f 2069/1/5 2065/1/5 2068/1/5
f 2070/1/5 2067/1/5 2066/1/5
f 2071/1/5 2067/1/5 2070/1/5
f 2074/2/5 2073/2/5 2072/2/5
f 2075/2/5 2073/2/5 2074/2/5
f 2078/2/5 2077/2/5 2076/2/5
f 2079/2/5 2077/2/5 2078/2/5
f 2084/2/5 2081/2/5 2080/2/5
f 2085/2/5 2083/2/5 2082/2/5
f 2086/2/5 2081/2/5 2084/2/5
f 2087/2/5 2081/2/5 2086/2/5
f 2088/2/5 2085/2/5 2082/2/5
f 2089/2/5 2085/2/5 2088/2/5
f 2094/5/5 2091/5/5 2090/5/5
f 2095/5/5 2091/5/5 2094/5/5
f 2096/5/5 2093/5/5 2092/5/5
f 2097/5/5 2093/5/5 2096/5/5
f 2102/2/5 2099/2/5 2098/2/5
f 2103/2/5 2099/2/5 2102/2/5
f 2104/2/5 2101/2/5 2100/2/5
f 2105/2/5 2101/2/5 2104/2/5
f 2110/5/5 2107/5/5 2106/5/5
f 2111/5/5 2107/5/5 2110/5/5
f 2112/5/5 2109/5/5 2108/5/5
f 2113/5/5 2109/5/5 2112/5/5
f 2117/2/5 2115/2/5 2114/2/5
f 2118/2/5 2115/2/5 2117/2/5
f 2120/2/5 2117/2/5 2116/2/5
f 2120/2/5 2119/2/5 2118/2/5
f 2120/2/5 2118/2/5 2117/2/5
f 2121/2/5 2119/2/5 2120/2/5
f 2130/5/5 2123/5/5 2122/5/5
f 2131/5/5 2123/5/5 2130/5/5
f 2132/5/5 2125/5/5 2124/5/5
f 2133/5/5 2125/5/5 2132/5/5
f 2134/5/5 2127/5/5 2126/5/5
f 2135/5/5 2127/5/5 2134/5/5
f 2136/5/5 2129/5/5 2128/5/5
f 2137/5/5 2129/5/5 2136/5/5
f 2142/5/5 2139/5/5 2138/5/5
f 2143/5/5 2139/5/5 2142/5/5
f 2144/5/5 2141/5/5 2140/5/5
f 2145/5/5 2141/5/5 2144/5/5
f 2146/5/6 2147/5/6 2154/5/6
f 2154/5/6 2147/5/6 2155/5/6
f 2148/5/6 2149/5/6 2156/5/6
f 2156/5/6 2149/5/6 2157/5/6
f 2150/5/6 2151/5/6 2158/5/6
f 2158/5/6 2151/5/6 2159/5/6
f 2152/5/6 2153/5/6 2160/5/6
f 2160/5/6 2153/5/6 2161/5/6
f 2162/5/6 2163/5/6 2167/5/6
f 2167/5/6 2163/5/6 2168/5/6
f 2164/5/6 2165/5/6 2171/5/6
f 2171/5/6 2165/5/6 2172/5/6
f 2168/5/6 2169/5/6 2174/5/6
f 2166/5/6 2167/5/6 2174/5/6
f 2167/5/6 2168/5/6 2174/5/6
f 2174/5/6 2169/5/6 2175/5/6
f 2172/5/6 2173/5/6 2176/5/6
f 2171/5/6 2172/5/6 2176/5/6
f 2170/5/6 2171/5/6 2176/5/6
f 2176/5/6 2173/5/6 2177/5/6
f 2166/5/6 2174/5/6 2178/5/6
f 2178/5/6 2174/5/6 2179/5/6
f 2175/5/6 2169/5/6 2180/5/6
f 2180/5/6 2169/5/6 2181/5/6
f 2170/5/6 2176/5/6 2182/5/6
f 2182/5/6 2176/5/6 2183/5/6
f 2177/5/6 2173/5/6 2184/5/6
f 2184/5/6 2173/5/6 2185/5/6
f 2186/5/6 2187/5/6 2194/5/6
f 2194/5/6 2187/5/6 2195/5/6
f 2188/5/6 2189/5/6 2196/5/6
f 2196/5/6 2189/5/6 2197/5/6
f 2190/5/6 2191/5/6 2198/5/6
f 2198/5/6 2191/5/6 2199/5/6
f 2192/5/6 2193/5/6 2200/5/6
f 2200/5/6 2193/5/6 2201/5/6
f 2202/5/6 2203/5/6 2206/5/6
f 2206/5/6 2203/5/6 2207/5/6
f 2204/5/6 2205/5/6 2208/5/6
f 2208/5/6 2205/5/6 2209/5/6
f 2210/5/6 2211/5/6 2218/5/6
f 2218/5/6 2211/5/6 2219/5/6
f 2212/5/6 2213/5/6 2220/5/6
f 2220/5/6 2213/5/6 2221/5/6
f 2214/5/6 2215/5/6 2222/5/6
f 2222/5/6 2215/5/6 2223/5/6
f 2216/5/6 2217/5/6 2224/5/6
f 2224/5/6 2217/5/6 2225/5/6
f 2226/5/6 2227/5/6 2230/5/6
f 2230/5/6 2227/5/6 2231/5/6
f 2228/5/6 2229/5/6 2232/5/6
f 2232/5/6 2229/5/6 2233/5/6
f 2234/5/6 2235/5/6 2238/5/6
f 2238/5/6 2235/5/6 2239/5/6
f 2236/5/6 2237/5/6 2240/5/6
f 2240/5/6 2237/5/6 2241/5/6
f 2242/5/6 2243/5/6 2246/5/6
f 2246/5/6 2243/5/6 2247/5/6
f 2244/5/6 2245/5/6 2248/5/6
f 2248/5/6 2245/5/6 2249/5/6
f 2250/2/6 2251/2/6 2254/2/6
f 2254/2/6 2251/2/6 2255/2/6
f 2252/2/6 2253/2/6 2256/2/6
f 2256/2/6 2253/2/6 2257/2/6
f 2250/2/6 2254/2/6 2258/2/6
f 2258/2/6 2254/2/6 2259/2/6
f 2257/2/6 2253/2/6 2260/2/6
f 2260/2/6 2253/2/6 2261/2/6
f 2262/2/6 2263/2/6 2266/2/6
f 2266/2/6 2263/2/6 2267/2/6
f 2264/2/6 2265/2/6 2270/2/6
f 2270/2/6 2265/2/6 2271/2/6
f 2267/2/6 2268/2/6 2272/2/6
f 2272/2/6 2268/2/6 2273/2/6
f 2269/2/6 2270/2/6 2274/2/6
f 2274/2/6 2270/2/6 2275/2/6
f 2276/2/6 2277/2/6 2280/2/6
f 2280/2/6 2277/2/6 2281/2/6
f 2278/2/6 2279/2/6 2282/2/6
f 2282/2/6 2279/2/6 2283/2/6
f 2284/2/6 2285/2/6 2288/2/6
f 2288/2/6 2285/2/6 2289/2/6
f 2286/2/6 2287/2/6 2290/2/6
f 2290/2/6 2287/2/6 2291/2/6
f 2292/2/6 2293/2/6 2297/2/6
f 2297/2/6 2293/2/6 2298/2/6
f 2294/2/6 2295/2/6 2299/2/6
f 2299/2/6 2295/2/6 2300/2/6
f 2296/2/6 2297/2/6 2302/2/6
f 2302/2/6 2297/2/6 2303/2/6
f 2303/2/6 2297/2/6 2304/2/6
f 2300/2/6 2301/2/6 2305/2/6
f 2305/2/6 2301/2/6 2306/2/6
f 2306/2/6 2301/2/6 2307/2/6
f 2308/2/6 2309/2/6 2312/2/6
f 2312/2/6 2309/2/6 2313/2/6
f 2310/2/6 2311/2/6 2314/2/6
f 2314/2/6 2311/2/6 2315/2/6
f 2316/2/6 2317/2/6 2320/2/6
f 2320/2/6 2317/2/6 2321/2/6
f 2318/2/6 2319/2/6 2322/2/6
f 2322/2/6 2319/2/6 2323/2/6
f 2321/2/6 2322/2/6 2324/2/6
f 2324/2/6 2322/2/6 2325/2/6
f 2326/2/6 2327/2/6 2331/2/6
f 2328/2/6 2329/2/6 2332/2/6
f 2330/2/6 2331/2/6 2334/2/6
f 2331/2/6 2327/2/6 2335/2/6
f 2334/2/6 2331/2/6 2335/2/6
f 2332/2/6 2333/2/6 2340/2/6
f 2328/2/6 2332/2/6 2340/2/6
f 2340/2/6 2333/2/6 2341/2/6
f 2336/2/6 2337/2/6 2342/2/6
f 2342/2/6 2337/2/6 2343/2/6
f 2338/2/6 2339/2/6 2344/2/6
f 2344/2/6 2339/2/6 2345/2/6
f 2346/2/6 2347/2/6 2350/2/6
f 2350/2/6 2347/2/6 2351/2/6
f 2348/2/6 2349/2/6 2352/2/6
f 2352/2/6 2349/2/6 2353/2/6
f 2354/2/6 2355/2/6 2358/2/6
f 2358/2/6 2355/2/6 2359/2/6
f 2356/2/6 2357/2/6 2360/2/6
f 2360/2/6 2357/2/6 2361/2/6
f 2362/2/6 2363/2/6 2366/2/6
f 2366/2/6 2363/2/6 2367/2/6
f 2364/2/6 2365/2/6 2368/2/6
f 2368/2/6 2365/2/6 2369/2/6
f 2370/2/6 2371/2/6 2374/2/6
f 2374/2/6 2371/2/6 2375/2/6
f 2372/2/6 2373/2/6 2376/2/6
f 2376/2/6 2373/2/6 2377/2/6
f 2378/2/6 2379/2/6 2382/2/6
f 2382/2/6 2379/2/6 2383/2/6
f 2380/2/6 2381/2/6 2384/2/6
f 2384/2/6 2381/2/6 2385/2/6
f 2386/2/6 2387/2/6 2390/2/6
f 2390/2/6 2387/2/6 2391/2/6
f 2388/2/6 2389/2/6 2392/2/6
f 2392/2/6 2389/2/6 2393/2/6
f 2394/2/6 2395/2/6 2400/2/6
f 2400/2/6 2395/2/6 2401/2/6
f 2396/1/6 2397/1/6 2402/1/6
f 2402/1/6 2397/1/6 2403/1/6
f 2403/1/6 2397/1/6 2404/1/6
f 2404/1/6 2397/1/6 2405/1/6
f 2398/2/6 2399/2/6 2406/2/6
f 2406/2/6 2399/2/6 2407/2/6
f 2408/2/6 2409/2/6 2412/2/6
f 2412/2/6 2409/2/6 2413/2/6
f 2410/2/6 2411/2/6 2414/2/6
f 2414/2/6 2411/2/6 2415/2/6
f 2416/2/6 2417/2/6 2420/2/6
f 2420/2/6 2417/2/6 2421/2/6
f 2418/2/6 2419/2/6 2422/2/6
f 2422/2/6 2419/2/6 2423/2/6
f 2424/2/6 2425/2/6 2428/2/6
f 2428/2/6 2425/2/6 2429/2/6
f 2426/2/6 2427/2/6 2430/2/6
f 2430/2/6 2427/2/6 2431/2/6
f 2432/2/6 2433/2/6 2434/2/6
f 2434/2/6 2433/2/6 2435/2/6
f 2436/2/6 2437/2/6 2440/2/6
f 2440/2/6 2437/2/6 2441/2/6
f 2438/2/6 2439/2/6 2442/2/6
f 2442/2/6 2439/2/6 2443/2/6
f 2440/5/6 2441/5/6 2444/5/6
f 2444/5/6 2441/5/6 2445/5/6
f 2442/5/6 2443/5/6 2446/5/6
f 2446/5/6 2443/5/6 2447/5/6
f 2448/2/6 2449/2/6 2450/2/6
f 2450/2/6 2449/2/6 2451/2/6
f 2452/2/6 2453/2/6 2458/2/6
f 2453/2/6 2454/2/6 2458/2/6
f 2458/2/6 2454/2/6 2459/2/6
f 2456/2/6 2457/2/6 2460/2/6
f 2455/2/6 2456/2/6 2460/2/6
f 2460/2/6 2457/2/6 2461/2/6
f 2452/2/6 2458/2/6 2462/2/6
f 2462/2/6 2458/2/6 2463/2/6
f 2461/2/6 2457/2/6 2464/2/6
f 2464/2/6 2457/2/6 2465/2/6
f 2462/5/6 2463/5/6 2466/5/6
f 2466/5/6 2463/5/6 2467/5/6
f 2464/5/6 2465/5/6 2468/5/6
f 2468/5/6 2465/5/6 2469/5/6
f 2470/2/6 2471/2/6 2474/2/6
f 2474/2/6 2471/2/6 2475/2/6
f 2472/2/6 2473/2/6 2476/2/6
f 2476/2/6 2473/2/6 2477/2/6
f 2478/2/6 2479/2/6 2482/2/6
f 2482/2/6 2479/2/6 2483/2/6
f 2480/2/6 2481/2/6 2484/2/6
f 2484/2/6 2481/2/6 2485/2/6
f 2486/5/6 2487/5/6 2490/5/6
f 2488/5/6 2489/5/6 2491/5/6
f 2486/5/6 2490/5/6 2492/5/6
f 2492/5/6 2490/5/6 2493/5/6
f 2491/5/6 2489/5/6 2494/5/6
f 2494/5/6 2489/5/6 2495/5/6
f 2496/2/6 2497/2/6 2500/2/6
f 2500/2/6 2497/2/6 2501/2/6
f 2498/2/6 2499/2/6 2502/2/6
f 2502/2/6 2499/2/6 2503/2/6
f 2504/2/6 2505/2/6 2506/2/6
f 2506/2/6 2505/2/6 2507/2/6
f 2508/2/6 2509/2/6 2510/2/6
f 2510/2/6 2509/2/6 2511/2/6
f 2511/2/6 2509/2/6 2512/2/6
f 2512/2/6 2509/2/6 2513/2/6
f 2511/2/6 2512/2/6 2514/2/6
f 2514/2/6 2512/2/6 2515/2/6
f 2508/2/6 2510/2/6 2516/2/6
f 2516/2/6 2510/2/6 2517/2/6
f 2513/2/6 2509/2/6 2518/2/6
f 2518/2/6 2509/2/6 2519/2/6
f 2520/2/6 2521/2/6 2524/2/6
f 2522/2/6 2523/2/6 2525/2/6
f 2520/2/6 2524/2/6 2526/2/6
f 2524/2/6 2525/2/6 2526/2/6
f 2525/2/6 2523/2/6 2527/2/6
f 2526/2/6 2525/2/6 2527/2/6
f 2528/2/6 2529/2/6 2532/2/6
f 2530/2/6 2531/2/6 2533/2/6
f 2528/2/6 2532/2/6 2536/2/6
f 2532/2/6 2533/2/6 2536/2/6
f 2536/2/6 2533/2/6 2537/2/6
f 2537/2/6 2533/2/6 2538/2/6
f 2538/2/6 2533/2/6 2539/2/6
f 2533/2/6 2531/2/6 2540/2/6
f 2539/2/6 2533/2/6 2540/2/6
f 2540/2/6 2531/2/6 2541/2/6
f 2537/2/6 2538/2/6 2544/2/6
f 2544/2/6 2538/2/6 2545/2/6
f 2539/2/6 2540/2/6 2546/2/6
f 2546/2/6 2540/2/6 2547/2/6
f 2534/5/6 2535/5/6 2548/5/6
f 2548/5/6 2535/5/6 2549/5/6
f 2536/5/6 2537/5/6 2550/5/6
f 2537/2/6 2544/2/6 2551/2/6
f 2550/5/6 2537/5/6 2551/5/6
f 2551/2/6 2544/2/6 2552/2/6
f 2547/2/6 2540/2/6 2553/2/6
f 2540/5/6 2541/5/6 2554/5/6
f 2553/2/6 2540/2/6 2554/2/6
f 2554/5/6 2541/5/6 2555/5/6
f 2542/5/6 2543/5/6 2556/5/6
f 2556/5/6 2543/5/6 2557/5/6
f 2551/2/6 2552/2/6 2558/2/6
f 2554/2/6 2555/2/6 2558/2/6
f 2553/2/6 2554/2/6 2558/2/6
f 2552/2/6 2553/2/6 2558/2/6
f 2550/2/6 2551/2/6 2558/2/6
f 2558/2/6 2555/2/6 2559/2/6
f 2562/2/6 2563/2/6 2567/2/6
f 2567/2/6 2563/2/6 2568/2/6
f 2560/5/6 2561/5/6 2570/5/6
f 2570/5/6 2561/5/6 2571/5/6
f 2568/2/6 2569/2/6 2572/2/6
f 2566/2/6 2567/2/6 2572/2/6
f 2567/2/6 2568/2/6 2572/2/6
f 2572/2/6 2569/2/6 2573/2/6
f 2564/5/6 2565/5/6 2574/5/6
f 2574/5/6 2565/5/6 2575/5/6
