# MagicaVoxel @ Ephtracy

# group
o 

# material
mtllib Ewok01-Cafe.mtl
usemtl palette

# normals
vn -1 0 0
vn 1 0 0
vn 0 0 1
vn 0 0 -1
vn 0 -1 0
vn 0 1 0

# texcoords
vt 0.369141 0.5
vt 0.861328 0.5
vt 0.869141 0.5
vt 0.876953 0.5
vt 0.962891 0.5
vt 0.994141 0.5

# verts
v -1.2 0.9 0.6
v -1.2 0.9 0.3
v -1.2 1 0.3
v -1.2 1 0.2
v -1.2 1.1 0.6
v -1.2 1.1 0.5
v -1.2 1.3 0.5
v -1.2 1.3 0.4
v -1.2 1.3 0.2
v -1.2 1.3 0.1
v -1.2 1.5 0.1
v -1.2 1.5 -5.96046e-08
v -1.2 1.8 0.4
v -1.2 1.8 0.3
v -1.2 1.8 0.1
v -1.2 1.8 -5.96046e-08
v -1.2 1.9 0.5
v -1.2 1.9 0.3
v -1.2 1.9 0.1
v -1.2 1.9 -5.96046e-08
v -1.2 2 0.5
v -1.2 2 0.3
v -1.2 2 0.1
v -1.2 2 -5.96046e-08
v -1.2 2.1 0.3
v -1.2 2.1 0.1
v -1.1 1.1 0.6
v -1.1 1.1 0.5
v -1.1 1.2 0.6
v -1.1 1.2 0.5
v -1.1 1.2 0.2
v -1.1 1.2 0.1
v -1.1 1.3 0.5
v -1.1 1.3 0.4
v -1.1 1.3 0.2
v -1.1 1.3 0.1
v -1.1 1.4 0.5
v -1.1 1.4 0.4
v -1.1 1.4 0.1
v -1.1 1.4 -5.96046e-08
v -1.1 1.5 0.1
v -1.1 1.5 -5.96046e-08
v -1.1 1.8 0.5
v -1.1 1.8 0.4
v -1.1 1.8 0.3
v -1.1 1.8 0.1
v -1.1 1.8 -5.96046e-08
v -1.1 1.9 0.5
v -1.1 1.9 0.4
v -1.1 1.9 0.3
v -1.1 1.9 0.1
v -1.1 1.9 -5.96046e-08
v -1.1 1.9 -0.1
v -1.1 2 0.4
v -1.1 2 0.3
v -1.1 2 0.1
v -1.1 2 -5.96046e-08
v -1.1 2 -0.1
v -1.1 2.1 0.3
v -1.1 2.1 0.1
v -1.1 2.4 0.4
v -1.1 2.4 -5.96046e-08
v -1 1.8 -5.96046e-08
v -1 1.8 -0.1
v -1 1.9 -5.96046e-08
v -1 1.9 -0.1
v -1 2 0.5
v -1 2 0.4
v -1 2 -5.96046e-08
v -1 2 -0.1
v -1 2.3 0.5
v -1 2.3 0.4
v -1 2.4 -5.96046e-08
v -1 2.5 -5.96046e-08
v -1 2.5 -0.1
v -0.9 2 -0.1
v -0.9 2 -0.2
v -0.9 2.1 0.6
v -0.9 2.1 0.5
v -0.9 2.3 0.5
v -0.9 2.3 0.4
v -0.9 2.4 0.6
v -0.9 2.4 0.4
v -0.9 2.4 -5.96046e-08
v -0.9 2.4 -0.1
v -0.9 2.4 -0.2
v -0.9 2.5 0.4
v -0.9 2.5 -5.96046e-08
v -0.8 1.8 0.6
v -0.8 1.8 0.4
v -0.8 1.9 0.5
v -0.8 1.9 0.4
v -0.8 2.1 0.6
v -0.8 2.1 0.5
v -0.8 2.5 0.4
v -0.8 2.5 -0.1
v -0.8 2.6 0.8
v -0.8 2.6 0.4
v -0.8 2.7 0.8
v -0.8 2.7 0.5
v -0.8 2.8 0.5
v -0.8 2.8 0.4
v -0.8 2.8 -5.96046e-08
v -0.8 2.8 -0.1
v -0.8 3.1 0.4
v -0.8 3.1 -5.96046e-08
v -0.8 3.2 0.4
v -0.8 3.2 -5.96046e-08
v -0.8 3.6 0.4
v -0.8 3.6 -5.96046e-08
v -0.7 0.9 0.4
v -0.7 0.9 -5.96046e-08
v -0.7 1.7 0.5
v -0.7 1.7 0.4
v -0.7 1.8 0.5
v -0.7 1.8 0.4
v -0.7 1.8 -5.96046e-08
v -0.7 1.8 -0.1
v -0.7 1.8 -0.2
v -0.7 1.9 -0.2
v -0.7 1.9 -0.3
v -0.7 2 -0.1
v -0.7 2 -0.2
v -0.7 2.3 0.7
v -0.7 2.3 0.6
v -0.7 2.4 0.6
v -0.7 2.4 0.4
v -0.7 2.4 -0.1
v -0.7 2.4 -0.2
v -0.7 2.5 -0.1
v -0.7 2.5 -0.3
v -0.7 2.6 0.7
v -0.7 2.6 0.4
v -0.7 2.7 0.8
v -0.7 2.7 0.5
v -0.7 2.7 -0.1
v -0.7 2.7 -0.4
v -0.7 2.8 0.8
v -0.7 2.8 0.7
v -0.7 2.8 0.5
v -0.7 2.8 0.4
v -0.7 2.8 -5.96046e-08
v -0.7 2.8 -0.1
v -0.7 2.8 -0.3
v -0.7 2.8 -0.4
v -0.7 3.1 0.7
v -0.7 3.1 0.6
v -0.7 3.1 0.4
v -0.7 3.1 -5.96046e-08
v -0.7 3.2 0.4
v -0.7 3.2 -5.96046e-08
v -0.7 3.3 0.6
v -0.7 3.3 0.4
v -0.7 3.3 -0.2
v -0.7 3.3 -0.3
v -0.7 3.4 -5.96046e-08
v -0.7 3.4 -0.2
v -0.7 3.6 0.4
v -0.7 3.6 -5.96046e-08
v -0.7 3.7 0.4
v -0.7 3.7 -5.96046e-08
v -0.6 0 0.7
v -0.6 0 -5.96046e-08
v -0.6 0.1 0.7
v -0.6 0.1 0.6
v -0.6 0.2 0.6
v -0.6 0.2 0.4
v -0.6 0.9 0.5
v -0.6 0.9 0.4
v -0.6 0.9 -5.96046e-08
v -0.6 0.9 -0.1
v -0.6 1.7 0.7
v -0.6 1.7 0.5
v -0.6 1.7 0.4
v -0.6 1.7 -0.1
v -0.6 1.7 -0.2
v -0.6 1.8 0.6
v -0.6 1.8 0.5
v -0.6 1.8 -5.96046e-08
v -0.6 1.8 -0.1
v -0.6 1.8 -0.2
v -0.6 2.2 0.8
v -0.6 2.2 0.7
v -0.6 2.3 0.7
v -0.6 2.3 0.6
v -0.6 2.5 0.8
v -0.6 2.5 0.7
v -0.6 2.6 -0.1
v -0.6 2.6 -0.3
v -0.6 2.7 -0.1
v -0.6 2.7 -0.3
v -0.6 2.8 -0.3
v -0.6 2.8 -0.4
v -0.6 3 0.4
v -0.6 3 0.3
v -0.6 3.1 0.7
v -0.6 3.1 0.6
v -0.6 3.1 0.4
v -0.6 3.1 0.3
v -0.6 3.3 0.6
v -0.6 3.3 -0.2
v -0.6 3.3 -0.3
v -0.6 3.4 0.7
v -0.6 3.4 0.6
v -0.6 3.4 -5.96046e-08
v -0.6 3.4 -0.2
v -0.6 3.4 -0.3
v -0.6 3.4 -0.4
v -0.6 3.5 -5.96046e-08
v -0.6 3.5 -0.3
v -0.5 0 -5.96046e-08
v -0.5 0 -0.1
v -0.5 0.1 0.7
v -0.5 0.1 0.6
v -0.5 0.2 0.7
v -0.5 0.2 0.6
v -0.5 0.2 0.5
v -0.5 0.2 0.4
v -0.5 0.9 0.6
v -0.5 0.9 0.5
v -0.5 0.9 0.4
v -0.5 0.9 -5.96046e-08
v -0.5 0.9 -0.1
v -0.5 0.9 -0.2
v -0.5 1.7 0.6
v -0.5 1.7 0.5
v -0.5 1.7 -0.1
v -0.5 1.7 -0.2
v -0.5 1.7 -0.3
v -0.5 1.9 -0.2
v -0.5 1.9 -0.3
v -0.5 2.5 -0.1
v -0.5 2.5 -0.3
v -0.5 2.6 -0.1
v -0.5 2.6 -0.3
v -0.5 3.1 0.8
v -0.5 3.1 0.7
v -0.5 3.2 0.5
v -0.5 3.2 0.4
v -0.5 3.2 0.3
v -0.5 3.3 0.6
v -0.5 3.3 0.5
v -0.5 3.4 0.7
v -0.5 3.4 0.6
v -0.5 3.4 0.5
v -0.5 3.4 0.3
v -0.5 3.5 0.8
v -0.5 3.5 0.5
v -0.5 3.5 0.4
v -0.5 3.5 0.3
v -0.5 3.6 0.4
v -0.5 3.6 0.3
v -0.4 0.8 0.6
v -0.4 0.8 0.5
v -0.4 0.8 -0.1
v -0.4 0.8 -0.2
v -0.4 0.9 0.6
v -0.4 0.9 0.5
v -0.4 0.9 -0.1
v -0.4 0.9 -0.2
v -0.4 1.6 0.7
v -0.4 1.6 0.6
v -0.4 1.7 0.7
v -0.4 1.7 0.6
v -0.4 3.4 0.5
v -0.4 3.4 0.4
v -0.4 3.4 0.3
v -0.4 3.5 0.7
v -0.4 3.5 0.5
v -0.4 3.5 0.4
v -0.4 3.5 0.3
v -0.4 3.5 -5.96046e-08
v -0.4 3.5 -0.2
v -0.4 3.6 0.7
v -0.4 3.6 0.4
v -0.4 3.6 -5.96046e-08
v -0.4 3.6 -0.2
v -0.3 1.5 0.7
v -0.3 1.5 0.6
v -0.3 1.6 0.7
v -0.3 1.6 0.6
v -0.3 1.6 -0.2
v -0.3 1.6 -0.3
v -0.3 1.7 -0.2
v -0.3 1.7 -0.3
v -0.3 2.6 -0.3
v -0.3 2.6 -0.4
v -0.3 2.7 -0.3
v -0.3 2.7 -0.4
v -0.3 2.8 -0.4
v -0.3 2.8 -0.5
v -0.3 3.2 -0.4
v -0.3 3.2 -0.5
v -0.2 2.4 -0.3
v -0.2 2.4 -0.4
v -0.2 2.6 -0.3
v -0.2 2.6 -0.4
v -0.2 2.8 0.7
v -0.2 2.8 0.6
v -0.2 2.9 0.7
v -0.2 2.9 0.6
v -0.2 3.6 0.3
v -0.2 3.6 -5.96046e-08
v -0.2 3.7 0.3
v -0.2 3.7 -5.96046e-08
v -0.0999999 2.7 0.7
v -0.0999999 2.7 0.6
v -0.0999999 2.8 0.7
v -0.0999999 2.8 0.6
v -0.0999999 2.9 -0.5
v -0.0999999 2.9 -0.6
v -0.0999999 3.1 -0.5
v -0.0999999 3.1 -0.6
v -0.0999999 3.6 0.4
v -0.0999999 3.6 0.3
v -0.0999999 3.7 0.4
v -0.0999999 3.7 0.3
v 0.1 0 0.7
v 0.1 0 -5.96046e-08
v 0.1 0.1 0.7
v 0.1 0.1 0.6
v 0.1 0.2 0.6
v 0.1 0.2 0.4
v 0.1 0.8 0.4
v 0.1 0.8 -5.96046e-08
v 0.1 1.5 0.7
v 0.1 1.5 0.6
v 0.1 1.6 0.7
v 0.1 1.6 0.6
v 0.2 0 -5.96046e-08
v 0.2 0 -0.1
v 0.2 0.1 0.7
v 0.2 0.1 0.6
v 0.2 0.2 0.7
v 0.2 0.2 0.6
v 0.2 0.2 0.5
v 0.2 0.2 0.4
v 0.2 0.8 0.5
v 0.2 0.8 0.4
v 0.2 0.8 -5.96046e-08
v 0.2 0.8 -0.1
v 0.2 2.4 0.8
v 0.2 2.4 0.7
v 0.2 2.5 0.8
v 0.2 2.5 0.7
v 0.2 2.5 0.6
v 0.2 2.6 0.7
v 0.2 2.6 0.6
v 0.2 3.5 0.7
v 0.2 3.5 0.6
v 0.2 3.6 0.7
v 0.2 3.6 0.6
v 0.3 3.2 0.8
v 0.3 3.2 0.7
v 0.3 3.3 0.8
v 0.3 3.3 0.7
v 0.4 2.2 0.8
v 0.4 2.2 0.7
v 0.4 2.4 0.8
v 0.4 2.4 0.7
v 0.4 2.6 0.8
v 0.4 2.6 0.7
v 0.4 2.6 0.6
v 0.4 2.8 0.8
v 0.4 2.8 0.7
v 0.4 2.9 0.7
v 0.4 2.9 0.6
v 0.4 3.1 0.8
v 0.4 3.1 0.6
v 0.4 3.2 0.8
v 0.4 3.2 0.7
v 0.4 3.2 0.6
v 0.4 3.3 0.7
v 0.4 3.3 0.6
v 0.4 3.6 0.4
v 0.4 3.6 -5.96046e-08
v 0.4 3.7 0.4
v 0.4 3.7 -5.96046e-08
v 0.5 2.9 0.7
v 0.5 2.9 0.6
v 0.5 3.1 0.7
v 0.5 3.1 0.6
v 0.6 3.2 0.5
v 0.6 3.2 0.4
v 0.6 3.2 0.3
v 0.6 3.3 0.5
v 0.6 3.3 0.4
v 0.6 3.3 0.3
v 0.6 3.5 0.4
v 0.6 3.5 0.3
v 0.6 3.6 0.4
v 0.6 3.6 0.3
v 0.7 3 0.4
v 0.7 3 0.3
v 0.7 3.1 0.4
v 0.7 3.1 0.3
v 0.7 3.3 0.4
v 0.7 3.3 0.3
v 0.7 3.5 0.4
v 0.7 3.5 0.3
v 0.8 0.9 0.6
v 0.8 0.9 0.3
v 0.8 1 0.3
v 0.8 1 0.2
v 0.8 1.1 0.6
v 0.8 1.1 0.5
v 0.8 1.3 0.5
v 0.8 1.3 0.4
v 0.8 1.3 0.2
v 0.8 1.3 0.1
v 0.8 1.5 0.1
v 0.8 1.5 -5.96046e-08
v 0.8 1.8 0.4
v 0.8 1.8 -5.96046e-08
v 0.9 1.1 0.6
v 0.9 1.1 0.5
v 0.9 1.2 0.6
v 0.9 1.2 0.5
v 0.9 1.2 0.2
v 0.9 1.2 0.1
v 0.9 1.3 0.5
v 0.9 1.3 0.4
v 0.9 1.3 0.2
v 0.9 1.3 0.1
v 0.9 1.4 0.5
v 0.9 1.4 0.4
v 0.9 1.4 0.1
v 0.9 1.4 -5.96046e-08
v 0.9 1.5 0.1
v 0.9 1.5 -5.96046e-08
v 1 1.8 0.5
v 1 1.8 0.4
v 1 1.9 0.5
v 1 1.9 0.4
v -1 1.8 0.5
v -1 1.8 0.4
v -1 1.9 0.5
v -1 1.9 0.4
v -0.9 1.1 0.6
v -0.9 1.1 0.5
v -0.9 1.2 0.6
v -0.9 1.2 0.5
v -0.9 1.2 0.2
v -0.9 1.2 0.1
v -0.9 1.3 0.5
v -0.9 1.3 0.4
v -0.9 1.3 0.2
v -0.9 1.3 0.1
v -0.9 1.4 0.5
v -0.9 1.4 0.4
v -0.9 1.4 0.1
v -0.9 1.4 -5.96046e-08
v -0.9 1.5 0.1
v -0.9 1.5 -5.96046e-08
v -0.8 0.9 0.6
v -0.8 0.9 0.3
v -0.8 1 0.3
v -0.8 1 0.2
v -0.8 1.1 0.6
v -0.8 1.1 0.5
v -0.8 1.3 0.5
v -0.8 1.3 0.4
v -0.8 1.3 0.2
v -0.8 1.3 0.1
v -0.8 1.5 0.1
v -0.8 1.5 -5.96046e-08
v -0.8 1.8 0.4
v -0.8 1.8 -5.96046e-08
v -0.7 3 0.4
v -0.7 3 0.3
v -0.7 3.1 0.4
v -0.7 3.1 0.3
v -0.7 3.3 0.4
v -0.7 3.3 0.3
v -0.7 3.5 0.4
v -0.7 3.5 0.3
v -0.6 3.2 0.5
v -0.6 3.2 0.4
v -0.6 3.2 0.3
v -0.6 3.3 0.5
v -0.6 3.3 0.4
v -0.6 3.3 0.3
v -0.6 3.5 0.4
v -0.6 3.5 0.3
v -0.6 3.6 0.4
v -0.6 3.6 0.3
v -0.5 2.9 0.7
v -0.5 2.9 0.6
v -0.5 3.1 0.7
v -0.5 3.1 0.6
v -0.4 2.2 0.8
v -0.4 2.2 0.7
v -0.4 2.4 0.8
v -0.4 2.4 0.7
v -0.4 2.6 0.8
v -0.4 2.6 0.7
v -0.4 2.6 0.6
v -0.4 2.8 0.8
v -0.4 2.8 0.7
v -0.4 2.9 0.7
v -0.4 2.9 0.6
v -0.4 3.1 0.8
v -0.4 3.1 0.6
v -0.4 3.2 0.8
v -0.4 3.2 0.7
v -0.4 3.2 0.6
v -0.4 3.3 0.7
v -0.4 3.3 0.6
v -0.4 3.6 0.4
v -0.4 3.6 -5.96046e-08
v -0.4 3.7 0.4
v -0.4 3.7 -5.96046e-08
v -0.3 3.2 0.8
v -0.3 3.2 0.7
v -0.3 3.3 0.8
v -0.3 3.3 0.7
v -0.2 0 -5.96046e-08
v -0.2 0 -0.1
v -0.2 0.1 0.7
v -0.2 0.1 0.6
v -0.2 0.2 0.7
v -0.2 0.2 0.6
v -0.2 0.2 0.5
v -0.2 0.2 0.4
v -0.2 0.8 0.5
v -0.2 0.8 0.4
v -0.2 0.8 -5.96046e-08
v -0.2 0.8 -0.1
v -0.2 2.4 0.8
v -0.2 2.4 0.7
v -0.2 2.5 0.8
v -0.2 2.5 0.7
v -0.2 2.5 0.6
v -0.2 2.6 0.7
v -0.2 2.6 0.6
v -0.2 3.5 0.7
v -0.2 3.5 0.6
v -0.2 3.6 0.7
v -0.2 3.6 0.6
v -0.0999999 0 0.7
v -0.0999999 0 -5.96046e-08
v -0.0999999 0.1 0.7
v -0.0999999 0.1 0.6
v -0.0999999 0.2 0.6
v -0.0999999 0.2 0.4
v -0.0999999 0.8 0.4
v -0.0999999 0.8 -5.96046e-08
v -0.0999999 1.5 0.7
v -0.0999999 1.5 0.6
v -0.0999999 1.6 0.7
v -0.0999999 1.6 0.6
v 0.1 2.7 0.7
v 0.1 2.7 0.6
v 0.1 2.8 0.7
v 0.1 2.8 0.6
v 0.1 2.9 -0.5
v 0.1 2.9 -0.6
v 0.1 3.1 -0.5
v 0.1 3.1 -0.6
v 0.1 3.6 0.4
v 0.1 3.6 0.3
v 0.1 3.7 0.4
v 0.1 3.7 0.3
v 0.2 2.4 -0.3
v 0.2 2.4 -0.4
v 0.2 2.6 -0.3
v 0.2 2.6 -0.4
v 0.2 2.8 0.7
v 0.2 2.8 0.6
v 0.2 2.9 0.7
v 0.2 2.9 0.6
v 0.2 3.6 0.3
v 0.2 3.6 -5.96046e-08
v 0.2 3.7 0.3
v 0.2 3.7 -5.96046e-08
v 0.3 1.5 0.7
v 0.3 1.5 0.6
v 0.3 1.6 0.7
v 0.3 1.6 0.6
v 0.3 1.6 -0.2
v 0.3 1.6 -0.3
v 0.3 1.7 -0.2
v 0.3 1.7 -0.3
v 0.3 2.6 -0.3
v 0.3 2.6 -0.4
v 0.3 2.7 -0.3
v 0.3 2.7 -0.4
v 0.3 2.8 -0.4
v 0.3 2.8 -0.5
v 0.3 3.2 -0.4
v 0.3 3.2 -0.5
v 0.4 0.8 0.6
v 0.4 0.8 0.5
v 0.4 0.8 -0.1
v 0.4 0.8 -0.2
v 0.4 1.6 0.7
v 0.4 1.6 0.6
v 0.4 1.7 0.7
v 0.4 1.7 0.6
v 0.4 1.7 0.5
v 0.4 1.7 -0.1
v 0.4 1.7 -0.2
v 0.4 3.4 0.5
v 0.4 3.4 0.4
v 0.4 3.4 0.3
v 0.4 3.5 0.7
v 0.4 3.5 0.5
v 0.4 3.5 0.4
v 0.4 3.5 0.3
v 0.4 3.5 -5.96046e-08
v 0.4 3.5 -0.2
v 0.4 3.6 0.7
v 0.4 3.6 0.4
v 0.4 3.6 -5.96046e-08
v 0.4 3.6 -0.2
v 0.5 0 -5.96046e-08
v 0.5 0 -0.1
v 0.5 0.1 0.7
v 0.5 0.1 0.6
v 0.5 0.2 0.7
v 0.5 0.2 0.6
v 0.5 0.2 0.5
v 0.5 0.2 0.4
v 0.5 0.9 0.5
v 0.5 0.9 0.4
v 0.5 0.9 -5.96046e-08
v 0.5 0.9 -0.1
v 0.5 1.7 -0.2
v 0.5 1.7 -0.3
v 0.5 1.9 -0.2
v 0.5 1.9 -0.3
v 0.5 2.5 -0.1
v 0.5 2.5 -0.3
v 0.5 2.6 -0.1
v 0.5 2.6 -0.3
v 0.5 3.1 0.8
v 0.5 3.1 0.7
v 0.5 3.2 0.5
v 0.5 3.2 0.4
v 0.5 3.2 0.3
v 0.5 3.3 0.6
v 0.5 3.3 0.5
v 0.5 3.4 0.7
v 0.5 3.4 0.6
v 0.5 3.4 0.5
v 0.5 3.4 0.3
v 0.5 3.5 0.8
v 0.5 3.5 0.5
v 0.5 3.5 0.4
v 0.5 3.5 0.3
v 0.5 3.6 0.4
v 0.5 3.6 0.3
v 0.6 0 0.7
v 0.6 0 -5.96046e-08
v 0.6 0.1 0.7
v 0.6 0.1 0.6
v 0.6 0.2 0.6
v 0.6 0.2 0.4
v 0.6 0.9 0.5
v 0.6 0.9 0.4
v 0.6 0.9 -5.96046e-08
v 0.6 0.9 -0.1
v 0.6 1.7 0.7
v 0.6 1.7 0.5
v 0.6 1.7 0.4
v 0.6 1.7 -0.1
v 0.6 1.7 -0.2
v 0.6 1.8 0.6
v 0.6 1.8 0.5
v 0.6 1.8 -5.96046e-08
v 0.6 1.8 -0.1
v 0.6 1.8 -0.2
v 0.6 2.2 0.8
v 0.6 2.2 0.7
v 0.6 2.3 0.7
v 0.6 2.3 0.6
v 0.6 2.5 0.8
v 0.6 2.5 0.7
v 0.6 2.6 -0.1
v 0.6 2.6 -0.3
v 0.6 2.7 -0.1
v 0.6 2.7 -0.3
v 0.6 2.8 -0.3
v 0.6 2.8 -0.4
v 0.6 3 0.4
v 0.6 3 0.3
v 0.6 3.1 0.7
v 0.6 3.1 0.6
v 0.6 3.1 0.4
v 0.6 3.1 0.3
v 0.6 3.3 0.6
v 0.6 3.3 -0.2
v 0.6 3.3 -0.3
v 0.6 3.4 0.7
v 0.6 3.4 0.6
v 0.6 3.4 -5.96046e-08
v 0.6 3.4 -0.2
v 0.6 3.4 -0.3
v 0.6 3.4 -0.4
v 0.6 3.5 -5.96046e-08
v 0.6 3.5 -0.3
v 0.7 0.9 0.4
v 0.7 0.9 -5.96046e-08
v 0.7 1.7 0.5
v 0.7 1.7 0.4
v 0.7 1.8 0.5
v 0.7 1.8 0.4
v 0.7 1.8 -5.96046e-08
v 0.7 1.8 -0.1
v 0.7 1.8 -0.2
v 0.7 1.9 -0.2
v 0.7 1.9 -0.3
v 0.7 2 -0.1
v 0.7 2 -0.2
v 0.7 2.3 0.7
v 0.7 2.3 0.6
v 0.7 2.4 0.6
v 0.7 2.4 0.4
v 0.7 2.4 -0.1
v 0.7 2.4 -0.2
v 0.7 2.5 -0.1
v 0.7 2.5 -0.3
v 0.7 2.6 0.7
v 0.7 2.6 0.4
v 0.7 2.7 0.8
v 0.7 2.7 0.5
v 0.7 2.7 -0.1
v 0.7 2.7 -0.4
v 0.7 2.8 0.8
v 0.7 2.8 0.7
v 0.7 2.8 0.5
v 0.7 2.8 0.4
v 0.7 2.8 -5.96046e-08
v 0.7 2.8 -0.1
v 0.7 2.8 -0.3
v 0.7 2.8 -0.4
v 0.7 3.1 0.7
v 0.7 3.1 0.6
v 0.7 3.1 0.4
v 0.7 3.1 -5.96046e-08
v 0.7 3.2 0.4
v 0.7 3.2 -5.96046e-08
v 0.7 3.3 0.6
v 0.7 3.3 0.4
v 0.7 3.3 -0.2
v 0.7 3.3 -0.3
v 0.7 3.4 -5.96046e-08
v 0.7 3.4 -0.2
v 0.7 3.6 0.4
v 0.7 3.6 -5.96046e-08
v 0.7 3.7 0.4
v 0.7 3.7 -5.96046e-08
v 0.8 1.8 0.6
v 0.8 1.8 0.4
v 0.8 1.9 0.5
v 0.8 1.9 0.4
v 0.8 2.1 0.6
v 0.8 2.1 0.5
v 0.8 2.5 0.4
v 0.8 2.5 -0.1
v 0.8 2.6 0.8
v 0.8 2.6 0.4
v 0.8 2.7 0.8
v 0.8 2.7 0.5
v 0.8 2.8 0.5
v 0.8 2.8 0.4
v 0.8 2.8 -5.96046e-08
v 0.8 2.8 -0.1
v 0.8 3.1 0.4
v 0.8 3.1 -5.96046e-08
v 0.8 3.2 0.4
v 0.8 3.2 -5.96046e-08
v 0.8 3.6 0.4
v 0.8 3.6 -5.96046e-08
v 0.9 2 -0.1
v 0.9 2 -0.2
v 0.9 2.1 0.6
v 0.9 2.1 0.5
v 0.9 2.3 0.5
v 0.9 2.3 0.4
v 0.9 2.4 0.6
v 0.9 2.4 0.4
v 0.9 2.4 -5.96046e-08
v 0.9 2.4 -0.1
v 0.9 2.4 -0.2
v 0.9 2.5 0.4
v 0.9 2.5 -5.96046e-08
v 1 1.8 -5.96046e-08
v 1 1.8 -0.1
v 1 1.9 -5.96046e-08
v 1 1.9 -0.1
v 1 2 0.5
v 1 2 0.4
v 1 2 -5.96046e-08
v 1 2 -0.1
v 1 2.3 0.5
v 1 2.3 0.4
v 1 2.4 -5.96046e-08
v 1 2.5 -5.96046e-08
v 1 2.5 -0.1
v 1.1 1.1 0.6
v 1.1 1.1 0.5
v 1.1 1.2 0.6
v 1.1 1.2 0.5
v 1.1 1.2 0.2
v 1.1 1.2 0.1
v 1.1 1.3 0.5
v 1.1 1.3 0.4
v 1.1 1.3 0.2
v 1.1 1.3 0.1
v 1.1 1.4 0.5
v 1.1 1.4 0.4
v 1.1 1.4 0.1
v 1.1 1.4 -5.96046e-08
v 1.1 1.5 0.1
v 1.1 1.5 -5.96046e-08
v 1.1 1.8 0.5
v 1.1 1.8 0.4
v 1.1 1.8 0.3
v 1.1 1.8 0.1
v 1.1 1.8 -5.96046e-08
v 1.1 1.9 0.5
v 1.1 1.9 0.4
v 1.1 1.9 0.3
v 1.1 1.9 0.1
v 1.1 1.9 -5.96046e-08
v 1.1 1.9 -0.1
v 1.1 2 0.4
v 1.1 2 0.3
v 1.1 2 0.1
v 1.1 2 -5.96046e-08
v 1.1 2 -0.1
v 1.1 2.1 0.3
v 1.1 2.1 0.1
v 1.1 2.4 0.4
v 1.1 2.4 -5.96046e-08
v 1.2 0.9 0.6
v 1.2 0.9 0.3
v 1.2 1 0.3
v 1.2 1 0.2
v 1.2 1.1 0.6
v 1.2 1.1 0.5
v 1.2 1.3 0.5
v 1.2 1.3 0.4
v 1.2 1.3 0.2
v 1.2 1.3 0.1
v 1.2 1.5 0.1
v 1.2 1.5 -5.96046e-08
v 1.2 1.8 0.4
v 1.2 1.8 0.3
v 1.2 1.8 0.1
v 1.2 1.8 -5.96046e-08
v 1.2 1.9 0.5
v 1.2 1.9 0.3
v 1.2 1.9 0.1
v 1.2 1.9 -5.96046e-08
v 1.2 2 0.5
v 1.2 2 0.3
v 1.2 2 0.1
v 1.2 2 -5.96046e-08
v 1.2 2.1 0.3
v 1.2 2.1 0.1
v -0.8 2.6 0.8
v -0.8 2.7 0.8
v -0.7 2.7 0.8
v -0.7 2.8 0.8
v -0.6 2.2 0.8
v -0.6 2.5 0.8
v -0.5 3.1 0.8
v -0.5 3.5 0.8
v -0.4 2.2 0.8
v -0.4 2.4 0.8
v -0.4 2.6 0.8
v -0.4 2.8 0.8
v -0.4 3.1 0.8
v -0.4 3.2 0.8
v -0.3 3.2 0.8
v -0.3 3.3 0.8
v -0.2 2.4 0.8
v -0.2 2.5 0.8
v 0.2 2.4 0.8
v 0.2 2.5 0.8
v 0.3 3.2 0.8
v 0.3 3.3 0.8
v 0.4 2.2 0.8
v 0.4 2.4 0.8
v 0.4 2.6 0.8
v 0.4 2.8 0.8
v 0.4 3.1 0.8
v 0.4 3.2 0.8
v 0.5 3.1 0.8
v 0.5 3.5 0.8
v 0.6 2.2 0.8
v 0.6 2.5 0.8
v 0.7 2.7 0.8
v 0.7 2.8 0.8
v 0.8 2.6 0.8
v 0.8 2.7 0.8
v -0.7 2.3 0.7
v -0.7 2.6 0.7
v -0.7 2.8 0.7
v -0.7 3.1 0.7
v -0.6 0 0.7
v -0.6 0.1 0.7
v -0.6 1.7 0.7
v -0.6 2.2 0.7
v -0.6 2.3 0.7
v -0.6 2.5 0.7
v -0.6 3.1 0.7
v -0.6 3.4 0.7
v -0.5 0.1 0.7
v -0.5 0.2 0.7
v -0.5 2.9 0.7
v -0.5 3.1 0.7
v -0.5 3.4 0.7
v -0.4 1.6 0.7
v -0.4 1.7 0.7
v -0.4 2.2 0.7
v -0.4 2.4 0.7
v -0.4 2.6 0.7
v -0.4 2.8 0.7
v -0.4 2.9 0.7
v -0.4 3.5 0.7
v -0.4 3.6 0.7
v -0.3 1.5 0.7
v -0.3 1.6 0.7
v -0.2 0.1 0.7
v -0.2 0.2 0.7
v -0.2 2.4 0.7
v -0.2 2.5 0.7
v -0.2 2.6 0.7
v -0.2 2.8 0.7
v -0.2 2.9 0.7
v -0.2 3.5 0.7
v -0.2 3.6 0.7
v -0.0999999 0 0.7
v -0.0999999 0.1 0.7
v -0.0999999 1.5 0.7
v -0.0999999 1.6 0.7
v -0.0999999 2.7 0.7
v -0.0999999 2.8 0.7
v 0.1 0 0.7
v 0.1 0.1 0.7
v 0.1 1.5 0.7
v 0.1 1.6 0.7
v 0.1 2.7 0.7
v 0.1 2.8 0.7
v 0.2 0.1 0.7
v 0.2 0.2 0.7
v 0.2 2.4 0.7
v 0.2 2.5 0.7
v 0.2 2.6 0.7
v 0.2 2.8 0.7
v 0.2 2.9 0.7
v 0.2 3.5 0.7
v 0.2 3.6 0.7
v 0.3 1.5 0.7
v 0.3 1.6 0.7
v 0.4 1.6 0.7
v 0.4 1.7 0.7
v 0.4 2.2 0.7
v 0.4 2.4 0.7
v 0.4 2.6 0.7
v 0.4 2.8 0.7
v 0.4 2.9 0.7
v 0.4 3.5 0.7
v 0.4 3.6 0.7
v 0.5 0.1 0.7
v 0.5 0.2 0.7
v 0.5 2.9 0.7
v 0.5 3.1 0.7
v 0.5 3.4 0.7
v 0.6 0 0.7
v 0.6 0.1 0.7
v 0.6 1.7 0.7
v 0.6 2.2 0.7
v 0.6 2.3 0.7
v 0.6 2.5 0.7
v 0.6 3.1 0.7
v 0.6 3.4 0.7
v 0.7 2.3 0.7
v 0.7 2.6 0.7
v 0.7 2.8 0.7
v 0.7 3.1 0.7
v -1.2 0.9 0.6
v -1.2 1.1 0.6
v -1.1 1.1 0.6
v -1.1 1.2 0.6
v -0.9 1.1 0.6
v -0.9 1.2 0.6
v -0.9 2.1 0.6
v -0.9 2.4 0.6
v -0.8 0.9 0.6
v -0.8 1.1 0.6
v -0.8 1.8 0.6
v -0.8 2.1 0.6
v -0.7 2.3 0.6
v -0.7 2.4 0.6
v -0.7 3.1 0.6
v -0.7 3.3 0.6
v -0.6 0.1 0.6
v -0.6 0.2 0.6
v -0.6 1.8 0.6
v -0.6 2.3 0.6
v -0.6 3.1 0.6
v -0.6 3.3 0.6
v -0.5 0.1 0.6
v -0.5 0.2 0.6
v -0.5 0.9 0.6
v -0.5 1.7 0.6
v -0.5 2.9 0.6
v -0.5 3.1 0.6
v -0.4 0.8 0.6
v -0.4 0.9 0.6
v -0.4 1.6 0.6
v -0.4 1.7 0.6
v -0.4 2.6 0.6
v -0.4 2.9 0.6
v -0.4 3.1 0.6
v -0.4 3.2 0.6
v -0.4 3.3 0.6
v -0.3 1.5 0.6
v -0.3 1.6 0.6
v -0.3 2.9 0.6
v -0.3 3.1 0.6
v -0.2 0.1 0.6
v -0.2 0.2 0.6
v -0.2 2.5 0.6
v -0.2 2.6 0.6
v -0.2 2.7 0.6
v -0.2 2.8 0.6
v -0.2 2.9 0.6
v -0.2 3.5 0.6
v -0.2 3.6 0.6
v -0.0999999 0.1 0.6
v -0.0999999 0.2 0.6
v -0.0999999 1.5 0.6
v -0.0999999 1.6 0.6
v -0.0999999 2.7 0.6
v -0.0999999 2.8 0.6
v -0.0999999 2.9 0.6
v -0.0999999 3.1 0.6
v -0.0999999 3.2 0.6
v 0.1 0.1 0.6
v 0.1 0.2 0.6
v 0.1 1.5 0.6
v 0.1 1.6 0.6
v 0.1 2.7 0.6
v 0.1 2.8 0.6
v 0.1 2.9 0.6
v 0.1 3.1 0.6
v 0.1 3.2 0.6
v 0.2 0.1 0.6
v 0.2 0.2 0.6
v 0.2 2.5 0.6
v 0.2 2.6 0.6
v 0.2 2.7 0.6
v 0.2 2.8 0.6
v 0.2 2.9 0.6
v 0.2 3.5 0.6
v 0.2 3.6 0.6
v 0.3 1.5 0.6
v 0.3 1.6 0.6
v 0.3 2.9 0.6
v 0.3 3.1 0.6
v 0.4 0.8 0.6
v 0.4 1.6 0.6
v 0.4 2.6 0.6
v 0.4 2.9 0.6
v 0.4 3.1 0.6
v 0.4 3.2 0.6
v 0.4 3.3 0.6
v 0.5 0.1 0.6
v 0.5 0.2 0.6
v 0.5 2.9 0.6
v 0.5 3.1 0.6
v 0.6 0.1 0.6
v 0.6 0.2 0.6
v 0.6 1.8 0.6
v 0.6 2.3 0.6
v 0.6 3.1 0.6
v 0.6 3.3 0.6
v 0.7 2.3 0.6
v 0.7 2.4 0.6
v 0.7 3.1 0.6
v 0.7 3.3 0.6
v 0.8 0.9 0.6
v 0.8 1.1 0.6
v 0.8 1.8 0.6
v 0.8 2.1 0.6
v 0.9 1.1 0.6
v 0.9 1.2 0.6
v 0.9 2.1 0.6
v 0.9 2.4 0.6
v 1.1 1.1 0.6
v 1.1 1.2 0.6
v 1.2 0.9 0.6
v 1.2 1.1 0.6
v -1.2 1.1 0.5
v -1.2 1.3 0.5
v -1.2 1.9 0.5
v -1.2 2 0.5
v -1.1 1.1 0.5
v -1.1 1.2 0.5
v -1.1 1.3 0.5
v -1.1 1.4 0.5
v -1.1 1.8 0.5
v -1.1 1.9 0.5
v -1 1.8 0.5
v -1 1.9 0.5
v -1 2 0.5
v -1 2.3 0.5
v -0.9 1.1 0.5
v -0.9 1.2 0.5
v -0.9 1.3 0.5
v -0.9 1.4 0.5
v -0.9 2.1 0.5
v -0.9 2.3 0.5
v -0.8 1.1 0.5
v -0.8 1.3 0.5
v -0.8 1.9 0.5
v -0.8 2.1 0.5
v -0.8 2.7 0.5
v -0.8 2.8 0.5
v -0.7 1.7 0.5
v -0.7 1.8 0.5
v -0.7 2.7 0.5
v -0.7 2.8 0.5
v -0.6 0.9 0.5
v -0.6 1.7 0.5
v -0.6 1.8 0.5
v -0.5 0.2 0.5
v -0.5 0.9 0.5
v -0.5 1.7 0.5
v -0.4 0.8 0.5
v -0.4 0.9 0.5
v -0.2 0.2 0.5
v -0.2 0.8 0.5
v 0.2 0.2 0.5
v 0.2 0.8 0.5
v 0.4 0.8 0.5
v 0.4 1.7 0.5
v 0.5 0.2 0.5
v 0.5 0.9 0.5
v 0.6 0.9 0.5
v 0.6 1.7 0.5
v 0.6 1.8 0.5
v 0.7 1.7 0.5
v 0.7 1.8 0.5
v 0.7 2.7 0.5
v 0.7 2.8 0.5
v 0.8 1.1 0.5
v 0.8 1.3 0.5
v 0.8 1.9 0.5
v 0.8 2.1 0.5
v 0.8 2.7 0.5
v 0.8 2.8 0.5
v 0.9 1.1 0.5
v 0.9 1.2 0.5
v 0.9 1.3 0.5
v 0.9 1.4 0.5
v 0.9 2.1 0.5
v 0.9 2.3 0.5
v 1 1.8 0.5
v 1 1.9 0.5
v 1 2 0.5
v 1 2.3 0.5
v 1.1 1.1 0.5
v 1.1 1.2 0.5
v 1.1 1.3 0.5
v 1.1 1.4 0.5
v 1.1 1.8 0.5
v 1.1 1.9 0.5
v 1.2 1.1 0.5
v 1.2 1.3 0.5
v 1.2 1.9 0.5
v 1.2 2 0.5
v -1.2 1.3 0.4
v -1.2 1.8 0.4
v -1.1 1.3 0.4
v -1.1 1.4 0.4
v -1.1 1.8 0.4
v -1.1 2 0.4
v -1.1 2.4 0.4
v -1 1.8 0.4
v -1 1.9 0.4
v -1 2 0.4
v -1 2.3 0.4
v -0.9 1.3 0.4
v -0.9 1.4 0.4
v -0.9 2.3 0.4
v -0.9 2.4 0.4
v -0.9 2.5 0.4
v -0.8 1.3 0.4
v -0.8 1.8 0.4
v -0.8 1.9 0.4
v -0.8 2.5 0.4
v -0.8 2.6 0.4
v -0.8 2.8 0.4
v -0.8 3.1 0.4
v -0.8 3.2 0.4
v -0.8 3.6 0.4
v -0.7 0.9 0.4
v -0.7 1.7 0.4
v -0.7 2.4 0.4
v -0.7 2.6 0.4
v -0.7 2.8 0.4
v -0.7 3.1 0.4
v -0.7 3.2 0.4
v -0.7 3.3 0.4
v -0.7 3.5 0.4
v -0.7 3.6 0.4
v -0.7 3.7 0.4
v -0.6 0.2 0.4
v -0.6 0.9 0.4
v -0.6 1.7 0.4
v -0.6 3.5 0.4
v -0.6 3.6 0.4
v -0.5 0.2 0.4
v -0.5 0.9 0.4
v -0.5 3.5 0.4
v -0.5 3.6 0.4
v -0.4 3.5 0.4
v -0.4 3.6 0.4
v -0.4 3.7 0.4
v -0.2 0.2 0.4
v -0.2 0.8 0.4
v -0.0999999 0.2 0.4
v -0.0999999 0.8 0.4
v -0.0999999 3.6 0.4
v -0.0999999 3.7 0.4
v 0.1 0.2 0.4
v 0.1 0.8 0.4
v 0.1 3.6 0.4
v 0.1 3.7 0.4
v 0.2 0.2 0.4
v 0.2 0.8 0.4
v 0.4 3.5 0.4
v 0.4 3.6 0.4
v 0.4 3.7 0.4
v 0.5 0.2 0.4
v 0.5 0.9 0.4
v 0.5 3.5 0.4
v 0.5 3.6 0.4
v 0.6 0.2 0.4
v 0.6 0.9 0.4
v 0.6 1.7 0.4
v 0.6 3.5 0.4
v 0.6 3.6 0.4
v 0.7 0.9 0.4
v 0.7 1.7 0.4
v 0.7 2.4 0.4
v 0.7 2.6 0.4
v 0.7 2.8 0.4
v 0.7 3.1 0.4
v 0.7 3.2 0.4
v 0.7 3.3 0.4
v 0.7 3.5 0.4
v 0.7 3.6 0.4
v 0.7 3.7 0.4
v 0.8 1.3 0.4
v 0.8 1.8 0.4
v 0.8 1.9 0.4
v 0.8 2.5 0.4
v 0.8 2.6 0.4
v 0.8 2.8 0.4
v 0.8 3.1 0.4
v 0.8 3.2 0.4
v 0.8 3.6 0.4
v 0.9 1.3 0.4
v 0.9 1.4 0.4
v 0.9 2.3 0.4
v 0.9 2.4 0.4
v 0.9 2.5 0.4
v 1 1.8 0.4
v 1 1.9 0.4
v 1 2 0.4
v 1 2.3 0.4
v 1.1 1.3 0.4
v 1.1 1.4 0.4
v 1.1 1.8 0.4
v 1.1 2 0.4
v 1.1 2.4 0.4
v 1.2 1.3 0.4
v 1.2 1.8 0.4
v -1.2 1.8 0.3
v -1.2 1.9 0.3
v -1.2 2 0.3
v -1.2 2.1 0.3
v -1.1 1.8 0.3
v -1.1 1.9 0.3
v -1.1 2 0.3
v -1.1 2.1 0.3
v -0.7 3 0.3
v -0.7 3.1 0.3
v -0.7 3.3 0.3
v -0.7 3.5 0.3
v -0.6 3 0.3
v -0.6 3.1 0.3
v -0.6 3.2 0.3
v -0.6 3.3 0.3
v -0.6 3.5 0.3
v -0.6 3.6 0.3
v -0.5 3.2 0.3
v -0.5 3.4 0.3
v -0.5 3.5 0.3
v -0.5 3.6 0.3
v -0.4 3.4 0.3
v -0.4 3.5 0.3
v -0.2 3.6 0.3
v -0.2 3.7 0.3
v -0.0999999 3.6 0.3
v -0.0999999 3.7 0.3
v 0.1 3.6 0.3
v 0.1 3.7 0.3
v 0.2 3.6 0.3
v 0.2 3.7 0.3
v 0.4 3.4 0.3
v 0.4 3.5 0.3
v 0.5 3.2 0.3
v 0.5 3.4 0.3
v 0.5 3.5 0.3
v 0.5 3.6 0.3
v 0.6 3 0.3
v 0.6 3.1 0.3
v 0.6 3.2 0.3
v 0.6 3.3 0.3
v 0.6 3.5 0.3
v 0.6 3.6 0.3
v 0.7 3 0.3
v 0.7 3.1 0.3
v 0.7 3.3 0.3
v 0.7 3.5 0.3
v 1.1 1.8 0.3
v 1.1 1.9 0.3
v 1.1 2 0.3
v 1.1 2.1 0.3
v 1.2 1.8 0.3
v 1.2 1.9 0.3
v 1.2 2 0.3
v 1.2 2.1 0.3
v -1 2.4 -5.96046e-08
v -1 2.5 -5.96046e-08
v -0.9 2.4 -5.96046e-08
v -0.9 2.5 -5.96046e-08
v 0.9 2.4 -5.96046e-08
v 0.9 2.5 -5.96046e-08
v 1 2.4 -5.96046e-08
v 1 2.5 -5.96046e-08
v -0.4 3.2 0.7
v -0.4 3.3 0.7
v -0.3 3.2 0.7
v -0.3 3.3 0.7
v 0.3 3.2 0.7
v 0.3 3.3 0.7
v 0.4 3.2 0.7
v 0.4 3.3 0.7
v -0.6 3.3 0.6
v -0.6 3.4 0.6
v -0.5 3.3 0.6
v -0.5 3.4 0.6
v 0.5 3.3 0.6
v 0.5 3.4 0.6
v 0.6 3.3 0.6
v 0.6 3.4 0.6
v -0.6 3.2 0.5
v -0.6 3.3 0.5
v -0.5 3.2 0.5
v -0.5 3.3 0.5
v -0.5 3.4 0.5
v -0.5 3.5 0.5
v -0.4 3.4 0.5
v -0.4 3.5 0.5
v 0.4 3.4 0.5
v 0.4 3.5 0.5
v 0.5 3.2 0.5
v 0.5 3.3 0.5
v 0.5 3.4 0.5
v 0.5 3.5 0.5
v 0.6 3.2 0.5
v 0.6 3.3 0.5
v -0.7 3 0.4
v -0.7 3.1 0.4
v -0.6 3 0.4
v -0.6 3.1 0.4
v 0.6 3 0.4
v 0.6 3.1 0.4
v 0.7 3 0.4
v 0.7 3.1 0.4
v -1.2 0.9 0.3
v -1.2 1 0.3
v -0.8 0.9 0.3
v -0.8 1 0.3
v 0.8 0.9 0.3
v 0.8 1 0.3
v 1.2 0.9 0.3
v 1.2 1 0.3
v -1.2 1 0.2
v -1.2 1.3 0.2
v -1.1 1.2 0.2
v -1.1 1.3 0.2
v -0.9 1.2 0.2
v -0.9 1.3 0.2
v -0.8 1 0.2
v -0.8 1.3 0.2
v 0.8 1 0.2
v 0.8 1.3 0.2
v 0.9 1.2 0.2
v 0.9 1.3 0.2
v 1.1 1.2 0.2
v 1.1 1.3 0.2
v 1.2 1 0.2
v 1.2 1.3 0.2
v -1.2 1.3 0.1
v -1.2 1.5 0.1
v -1.2 1.8 0.1
v -1.2 1.9 0.1
v -1.2 2 0.1
v -1.2 2.1 0.1
v -1.1 1.2 0.1
v -1.1 1.3 0.1
v -1.1 1.4 0.1
v -1.1 1.5 0.1
v -1.1 1.8 0.1
v -1.1 1.9 0.1
v -1.1 2 0.1
v -1.1 2.1 0.1
v -0.9 1.2 0.1
v -0.9 1.3 0.1
v -0.9 1.4 0.1
v -0.9 1.5 0.1
v -0.8 1.3 0.1
v -0.8 1.5 0.1
v 0.8 1.3 0.1
v 0.8 1.5 0.1
v 0.9 1.2 0.1
v 0.9 1.3 0.1
v 0.9 1.4 0.1
v 0.9 1.5 0.1
v 1.1 1.2 0.1
v 1.1 1.3 0.1
v 1.1 1.4 0.1
v 1.1 1.5 0.1
v 1.1 1.8 0.1
v 1.1 1.9 0.1
v 1.1 2 0.1
v 1.1 2.1 0.1
v 1.2 1.3 0.1
v 1.2 1.5 0.1
v 1.2 1.8 0.1
v 1.2 1.9 0.1
v 1.2 2 0.1
v 1.2 2.1 0.1
v -1.2 1.5 -5.96046e-08
v -1.2 1.8 -5.96046e-08
v -1.2 1.9 -5.96046e-08
v -1.2 2 -5.96046e-08
v -1.1 1.4 -5.96046e-08
v -1.1 1.5 -5.96046e-08
v -1.1 1.8 -5.96046e-08
v -1.1 1.9 -5.96046e-08
v -1.1 2 -5.96046e-08
v -1.1 2.4 -5.96046e-08
v -1 1.8 -5.96046e-08
v -1 1.9 -5.96046e-08
v -1 2 -5.96046e-08
v -1 2.4 -5.96046e-08
v -0.9 1.4 -5.96046e-08
v -0.9 1.5 -5.96046e-08
v -0.8 1.5 -5.96046e-08
v -0.8 1.8 -5.96046e-08
v -0.8 2.8 -5.96046e-08
v -0.8 3.1 -5.96046e-08
v -0.8 3.2 -5.96046e-08
v -0.8 3.6 -5.96046e-08
v -0.7 0.9 -5.96046e-08
v -0.7 1.8 -5.96046e-08
v -0.7 2.8 -5.96046e-08
v -0.7 3.1 -5.96046e-08
v -0.7 3.2 -5.96046e-08
v -0.7 3.4 -5.96046e-08
v -0.7 3.6 -5.96046e-08
v -0.7 3.7 -5.96046e-08
v -0.6 0 -5.96046e-08
v -0.6 0.9 -5.96046e-08
v -0.6 1.8 -5.96046e-08
v -0.6 3.4 -5.96046e-08
v -0.6 3.5 -5.96046e-08
v -0.5 0 -5.96046e-08
v -0.5 0.9 -5.96046e-08
v -0.4 3.5 -5.96046e-08
v -0.4 3.6 -5.96046e-08
v -0.4 3.7 -5.96046e-08
v -0.2 0 -5.96046e-08
v -0.2 0.8 -5.96046e-08
v -0.2 3.6 -5.96046e-08
v -0.2 3.7 -5.96046e-08
v -0.0999999 0 -5.96046e-08
v -0.0999999 0.8 -5.96046e-08
v 0.1 0 -5.96046e-08
v 0.1 0.8 -5.96046e-08
v 0.2 0 -5.96046e-08
v 0.2 0.8 -5.96046e-08
v 0.2 3.6 -5.96046e-08
v 0.2 3.7 -5.96046e-08
v 0.4 3.5 -5.96046e-08
v 0.4 3.6 -5.96046e-08
v 0.4 3.7 -5.96046e-08
v 0.5 0 -5.96046e-08
v 0.5 0.9 -5.96046e-08
v 0.6 0 -5.96046e-08
v 0.6 0.9 -5.96046e-08
v 0.6 1.8 -5.96046e-08
v 0.6 3.4 -5.96046e-08
v 0.6 3.5 -5.96046e-08
v 0.7 0.9 -5.96046e-08
v 0.7 1.8 -5.96046e-08
v 0.7 2.8 -5.96046e-08
v 0.7 3.1 -5.96046e-08
v 0.7 3.2 -5.96046e-08
v 0.7 3.4 -5.96046e-08
v 0.7 3.6 -5.96046e-08
v 0.7 3.7 -5.96046e-08
v 0.8 1.5 -5.96046e-08
v 0.8 1.8 -5.96046e-08
v 0.8 2.8 -5.96046e-08
v 0.8 3.1 -5.96046e-08
v 0.8 3.2 -5.96046e-08
v 0.8 3.6 -5.96046e-08
v 0.9 1.4 -5.96046e-08
v 0.9 1.5 -5.96046e-08
v 1 1.8 -5.96046e-08
v 1 1.9 -5.96046e-08
v 1 2 -5.96046e-08
v 1 2.4 -5.96046e-08
v 1.1 1.4 -5.96046e-08
v 1.1 1.5 -5.96046e-08
v 1.1 1.8 -5.96046e-08
v 1.1 1.9 -5.96046e-08
v 1.1 2 -5.96046e-08
v 1.1 2.4 -5.96046e-08
v 1.2 1.5 -5.96046e-08
v 1.2 1.8 -5.96046e-08
v 1.2 1.9 -5.96046e-08
v 1.2 2 -5.96046e-08
v -1.1 1.9 -0.1
v -1.1 2 -0.1
v -1 1.8 -0.1
v -1 1.9 -0.1
v -1 2 -0.1
v -1 2.5 -0.1
v -0.9 2 -0.1
v -0.9 2.4 -0.1
v -0.8 2.5 -0.1
v -0.8 2.8 -0.1
v -0.7 1.8 -0.1
v -0.7 2 -0.1
v -0.7 2.4 -0.1
v -0.7 2.5 -0.1
v -0.7 2.7 -0.1
v -0.7 2.8 -0.1
v -0.6 0.9 -0.1
v -0.6 1.7 -0.1
v -0.6 2.6 -0.1
v -0.6 2.7 -0.1
v -0.5 0 -0.1
v -0.5 0.9 -0.1
v -0.5 1.7 -0.1
v -0.5 2.5 -0.1
v -0.5 2.6 -0.1
v -0.4 0.8 -0.1
v -0.4 0.9 -0.1
v -0.2 0 -0.1
v -0.2 0.8 -0.1
v 0.2 0 -0.1
v 0.2 0.8 -0.1
v 0.4 0.8 -0.1
v 0.4 1.7 -0.1
v 0.5 0 -0.1
v 0.5 0.9 -0.1
v 0.5 2.5 -0.1
v 0.5 2.6 -0.1
v 0.6 0.9 -0.1
v 0.6 1.7 -0.1
v 0.6 2.6 -0.1
v 0.6 2.7 -0.1
v 0.7 1.8 -0.1
v 0.7 2 -0.1
v 0.7 2.4 -0.1
v 0.7 2.5 -0.1
v 0.7 2.7 -0.1
v 0.7 2.8 -0.1
v 0.8 2.5 -0.1
v 0.8 2.8 -0.1
v 0.9 2 -0.1
v 0.9 2.4 -0.1
v 1 1.8 -0.1
v 1 1.9 -0.1
v 1 2 -0.1
v 1 2.5 -0.1
v 1.1 1.9 -0.1
v 1.1 2 -0.1
v -0.9 2 -0.2
v -0.9 2.4 -0.2
v -0.7 1.8 -0.2
v -0.7 1.9 -0.2
v -0.7 2 -0.2
v -0.7 2.4 -0.2
v -0.7 3.3 -0.2
v -0.7 3.4 -0.2
v -0.6 1.7 -0.2
v -0.6 1.8 -0.2
v -0.6 3.3 -0.2
v -0.6 3.4 -0.2
v -0.5 0.9 -0.2
v -0.5 1.7 -0.2
v -0.5 1.9 -0.2
v -0.4 0.8 -0.2
v -0.4 0.9 -0.2
v -0.4 3.5 -0.2
v -0.4 3.6 -0.2
v -0.3 1.6 -0.2
v -0.3 1.7 -0.2
v 0.3 1.6 -0.2
v 0.3 1.7 -0.2
v 0.4 0.8 -0.2
v 0.4 1.7 -0.2
v 0.4 3.5 -0.2
v 0.4 3.6 -0.2
v 0.5 1.7 -0.2
v 0.5 1.9 -0.2
v 0.6 1.7 -0.2
v 0.6 1.8 -0.2
v 0.6 3.3 -0.2
v 0.6 3.4 -0.2
v 0.7 1.8 -0.2
v 0.7 1.9 -0.2
v 0.7 2 -0.2
v 0.7 2.4 -0.2
v 0.7 3.3 -0.2
v 0.7 3.4 -0.2
v 0.9 2 -0.2
v 0.9 2.4 -0.2
v -0.7 1.9 -0.3
v -0.7 2.5 -0.3
v -0.7 2.8 -0.3
v -0.7 3.3 -0.3
v -0.6 2.6 -0.3
v -0.6 2.7 -0.3
v -0.6 2.8 -0.3
v -0.6 3.3 -0.3
v -0.6 3.4 -0.3
v -0.6 3.5 -0.3
v -0.5 1.7 -0.3
v -0.5 1.9 -0.3
v -0.5 2.5 -0.3
v -0.5 2.6 -0.3
v -0.3 1.6 -0.3
v -0.3 1.7 -0.3
v -0.3 2.6 -0.3
v -0.3 2.7 -0.3
v -0.2 2.4 -0.3
v -0.2 2.6 -0.3
v 0.2 2.4 -0.3
v 0.2 2.6 -0.3
v 0.3 1.6 -0.3
v 0.3 1.7 -0.3
v 0.3 2.6 -0.3
v 0.3 2.7 -0.3
v 0.5 1.7 -0.3
v 0.5 1.9 -0.3
v 0.5 2.5 -0.3
v 0.5 2.6 -0.3
v 0.6 2.6 -0.3
v 0.6 2.7 -0.3
v 0.6 2.8 -0.3
v 0.6 3.3 -0.3
v 0.6 3.4 -0.3
v 0.6 3.5 -0.3
v 0.7 1.9 -0.3
v 0.7 2.5 -0.3
v 0.7 2.8 -0.3
v 0.7 3.3 -0.3
v -0.7 2.7 -0.4
v -0.7 2.8 -0.4
v -0.6 2.8 -0.4
v -0.6 3.4 -0.4
v -0.3 2.6 -0.4
v -0.3 2.7 -0.4
v -0.3 2.8 -0.4
v -0.3 3.2 -0.4
v -0.2 2.4 -0.4
v -0.2 2.6 -0.4
v 0.2 2.4 -0.4
v 0.2 2.6 -0.4
v 0.3 2.6 -0.4
v 0.3 2.7 -0.4
v 0.3 2.8 -0.4
v 0.3 3.2 -0.4
v 0.6 2.8 -0.4
v 0.6 3.4 -0.4
v 0.7 2.7 -0.4
v 0.7 2.8 -0.4
v -0.3 2.8 -0.5
v -0.3 3.2 -0.5
v -0.0999999 2.9 -0.5
v -0.0999999 3.1 -0.5
v 0.1 2.9 -0.5
v 0.1 3.1 -0.5
v 0.3 2.8 -0.5
v 0.3 3.2 -0.5
v -0.0999999 2.9 -0.6
v -0.0999999 3.1 -0.6
v 0.1 2.9 -0.6
v 0.1 3.1 -0.6
v -0.6 0 0.7
v -0.0999999 0 0.7
v 0.1 0 0.7
v 0.6 0 0.7
v -0.6 0 -5.96046e-08
v -0.5 0 -5.96046e-08
v -0.2 0 -5.96046e-08
v -0.0999999 0 -5.96046e-08
v 0.1 0 -5.96046e-08
v 0.2 0 -5.96046e-08
v 0.5 0 -5.96046e-08
v 0.6 0 -5.96046e-08
v -0.5 0 -0.1
v -0.2 0 -0.1
v 0.2 0 -0.1
v 0.5 0 -0.1
v -0.4 0.8 0.6
v 0.4 0.8 0.6
v -0.4 0.8 0.5
v -0.2 0.8 0.5
v 0.2 0.8 0.5
v 0.4 0.8 0.5
v -0.2 0.8 0.4
v -0.0999999 0.8 0.4
v 0.1 0.8 0.4
v 0.2 0.8 0.4
v -0.2 0.8 -5.96046e-08
v -0.0999999 0.8 -5.96046e-08
v 0.1 0.8 -5.96046e-08
v 0.2 0.8 -5.96046e-08
v -0.4 0.8 -0.1
v -0.2 0.8 -0.1
v 0.2 0.8 -0.1
v 0.4 0.8 -0.1
v -0.4 0.8 -0.2
v 0.4 0.8 -0.2
v -1.2 0.9 0.6
v -0.8 0.9 0.6
v -0.5 0.9 0.6
v -0.4 0.9 0.6
v 0.8 0.9 0.6
v 1.2 0.9 0.6
v -0.6 0.9 0.5
v -0.5 0.9 0.5
v -0.4 0.9 0.5
v 0.5 0.9 0.5
v 0.6 0.9 0.5
v -0.7 0.9 0.4
v -0.6 0.9 0.4
v -0.5 0.9 0.4
v 0.5 0.9 0.4
v 0.6 0.9 0.4
v 0.7 0.9 0.4
v -1.2 0.9 0.3
v -0.8 0.9 0.3
v 0.8 0.9 0.3
v 1.2 0.9 0.3
v -0.7 0.9 -5.96046e-08
v -0.6 0.9 -5.96046e-08
v -0.5 0.9 -5.96046e-08
v 0.5 0.9 -5.96046e-08
v 0.6 0.9 -5.96046e-08
v 0.7 0.9 -5.96046e-08
v -0.6 0.9 -0.1
v -0.5 0.9 -0.1
v -0.4 0.9 -0.1
v 0.5 0.9 -0.1
v 0.6 0.9 -0.1
v -0.5 0.9 -0.2
v -0.4 0.9 -0.2
v -1.2 1 0.3
v -0.8 1 0.3
v 0.8 1 0.3
v 1.2 1 0.3
v -1.2 1 0.2
v -0.8 1 0.2
v 0.8 1 0.2
v 1.2 1 0.2
v -1.1 1.2 0.2
v -0.9 1.2 0.2
v 0.9 1.2 0.2
v 1.1 1.2 0.2
v -1.1 1.2 0.1
v -0.9 1.2 0.1
v 0.9 1.2 0.1
v 1.1 1.2 0.1
v -1.2 1.3 0.2
v -1.1 1.3 0.2
v -0.9 1.3 0.2
v -0.8 1.3 0.2
v 0.8 1.3 0.2
v 0.9 1.3 0.2
v 1.1 1.3 0.2
v 1.2 1.3 0.2
v -1.2 1.3 0.1
v -1.1 1.3 0.1
v -0.9 1.3 0.1
v -0.8 1.3 0.1
v 0.8 1.3 0.1
v 0.9 1.3 0.1
v 1.1 1.3 0.1
v 1.2 1.3 0.1
v -1.1 1.4 0.1
v -0.9 1.4 0.1
v 0.9 1.4 0.1
v 1.1 1.4 0.1
v -1.1 1.4 -5.96046e-08
v -0.9 1.4 -5.96046e-08
v 0.9 1.4 -5.96046e-08
v 1.1 1.4 -5.96046e-08
v -0.3 1.5 0.7
v -0.0999999 1.5 0.7
v 0.1 1.5 0.7
v 0.3 1.5 0.7
v -0.3 1.5 0.6
v -0.0999999 1.5 0.6
v 0.1 1.5 0.6
v 0.3 1.5 0.6
v -1.2 1.5 0.1
v -1.1 1.5 0.1
v -0.9 1.5 0.1
v -0.8 1.5 0.1
v 0.8 1.5 0.1
v 0.9 1.5 0.1
v 1.1 1.5 0.1
v 1.2 1.5 0.1
v -1.2 1.5 -5.96046e-08
v -1.1 1.5 -5.96046e-08
v -0.9 1.5 -5.96046e-08
v -0.8 1.5 -5.96046e-08
v 0.8 1.5 -5.96046e-08
v 0.9 1.5 -5.96046e-08
v 1.1 1.5 -5.96046e-08
v 1.2 1.5 -5.96046e-08
v -0.4 1.6 0.7
v -0.3 1.6 0.7
v -0.0999999 1.6 0.7
v 0.1 1.6 0.7
v 0.3 1.6 0.7
v 0.4 1.6 0.7
v -0.4 1.6 0.6
v -0.3 1.6 0.6
v -0.0999999 1.6 0.6
v 0.1 1.6 0.6
v 0.3 1.6 0.6
v 0.4 1.6 0.6
v -0.3 1.6 -0.2
v 0.3 1.6 -0.2
v -0.3 1.6 -0.3
v 0.3 1.6 -0.3
v -0.6 1.7 0.7
v -0.4 1.7 0.7
v 0.4 1.7 0.7
v 0.6 1.7 0.7
v -0.5 1.7 0.6
v -0.4 1.7 0.6
v 0.4 1.7 0.6
v -0.7 1.7 0.5
v -0.6 1.7 0.5
v -0.5 1.7 0.5
v 0.4 1.7 0.5
v 0.6 1.7 0.5
v 0.7 1.7 0.5
v -0.7 1.7 0.4
v -0.6 1.7 0.4
v 0.6 1.7 0.4
v 0.7 1.7 0.4
v -0.6 1.7 -0.1
v -0.5 1.7 -0.1
v 0.4 1.7 -0.1
v 0.6 1.7 -0.1
v -0.6 1.7 -0.2
v -0.5 1.7 -0.2
v -0.3 1.7 -0.2
v 0.3 1.7 -0.2
v 0.4 1.7 -0.2
v 0.5 1.7 -0.2
v 0.6 1.7 -0.2
v -0.5 1.7 -0.3
v -0.3 1.7 -0.3
v 0.3 1.7 -0.3
v 0.5 1.7 -0.3
v -0.8 1.8 0.6
v -0.6 1.8 0.6
v 0.6 1.8 0.6
v 0.8 1.8 0.6
v -1.1 1.8 0.5
v -1 1.8 0.5
v -0.7 1.8 0.5
v -0.6 1.8 0.5
v 0.6 1.8 0.5
v 0.7 1.8 0.5
v 1 1.8 0.5
v 1.1 1.8 0.5
v -1.1 1.8 0.4
v -1 1.8 0.4
v -0.8 1.8 0.4
v -0.7 1.8 0.4
v 0.7 1.8 0.4
v 0.8 1.8 0.4
v 1 1.8 0.4
v 1.1 1.8 0.4
v -1 1.8 -5.96046e-08
v -0.8 1.8 -5.96046e-08
v -0.7 1.8 -5.96046e-08
v -0.6 1.8 -5.96046e-08
v 0.6 1.8 -5.96046e-08
v 0.7 1.8 -5.96046e-08
v 0.8 1.8 -5.96046e-08
v 1 1.8 -5.96046e-08
v -1 1.8 -0.1
v -0.7 1.8 -0.1
v -0.6 1.8 -0.1
v 0.6 1.8 -0.1
v 0.7 1.8 -0.1
v 1 1.8 -0.1
v -0.7 1.8 -0.2
v -0.6 1.8 -0.2
v 0.6 1.8 -0.2
v 0.7 1.8 -0.2
v -1.2 1.9 0.5
v -1.1 1.9 0.5
v -1 1.9 0.5
v -0.8 1.9 0.5
v 0.8 1.9 0.5
v 1 1.9 0.5
v 1.1 1.9 0.5
v 1.2 1.9 0.5
v -1.1 1.9 0.4
v -1 1.9 0.4
v -0.8 1.9 0.4
v 0.8 1.9 0.4
v 1 1.9 0.4
v 1.1 1.9 0.4
v -1.2 1.9 0.3
v -1.1 1.9 0.3
v 1.1 1.9 0.3
v 1.2 1.9 0.3
v -1.2 1.9 0.1
v -1.1 1.9 0.1
v 1.1 1.9 0.1
v 1.2 1.9 0.1
v -1.2 1.9 -5.96046e-08
v -1.1 1.9 -5.96046e-08
v -1 1.9 -5.96046e-08
v 1 1.9 -5.96046e-08
v 1.1 1.9 -5.96046e-08
v 1.2 1.9 -5.96046e-08
v -1.1 1.9 -0.1
v -1 1.9 -0.1
v 1 1.9 -0.1
v 1.1 1.9 -0.1
v -0.7 1.9 -0.2
v -0.5 1.9 -0.2
v 0.5 1.9 -0.2
v 0.7 1.9 -0.2
v -0.7 1.9 -0.3
v -0.5 1.9 -0.3
v 0.5 1.9 -0.3
v 0.7 1.9 -0.3
v -0.9 2 -0.1
v -0.7 2 -0.1
v 0.7 2 -0.1
v 0.9 2 -0.1
v -0.9 2 -0.2
v -0.7 2 -0.2
v 0.7 2 -0.2
v 0.9 2 -0.2
v -0.9 2.1 0.6
v -0.8 2.1 0.6
v 0.8 2.1 0.6
v 0.9 2.1 0.6
v -0.9 2.1 0.5
v -0.8 2.1 0.5
v 0.8 2.1 0.5
v 0.9 2.1 0.5
v -0.6 2.2 0.8
v -0.4 2.2 0.8
v 0.4 2.2 0.8
v 0.6 2.2 0.8
v -0.6 2.2 0.7
v -0.4 2.2 0.7
v 0.4 2.2 0.7
v 0.6 2.2 0.7
v -0.7 2.3 0.7
v -0.6 2.3 0.7
v 0.6 2.3 0.7
v 0.7 2.3 0.7
v -0.7 2.3 0.6
v -0.6 2.3 0.6
v 0.6 2.3 0.6
v 0.7 2.3 0.6
v -0.4 2.4 0.8
v -0.2 2.4 0.8
v 0.2 2.4 0.8
v 0.4 2.4 0.8
v -0.4 2.4 0.7
v -0.2 2.4 0.7
v 0.2 2.4 0.7
v 0.4 2.4 0.7
v -0.2 2.4 -0.3
v 0.2 2.4 -0.3
v -0.2 2.4 -0.4
v 0.2 2.4 -0.4
v -0.8 2.6 0.8
v -0.4 2.6 0.8
v 0.4 2.6 0.8
v 0.8 2.6 0.8
v -0.7 2.6 0.7
v -0.4 2.6 0.7
v 0.4 2.6 0.7
v 0.7 2.6 0.7
v -0.8 2.6 0.4
v -0.7 2.6 0.4
v 0.7 2.6 0.4
v 0.8 2.6 0.4
v -0.6 2.6 -0.1
v -0.5 2.6 -0.1
v 0.5 2.6 -0.1
v 0.6 2.6 -0.1
v -0.6 2.6 -0.3
v -0.5 2.6 -0.3
v -0.3 2.6 -0.3
v -0.2 2.6 -0.3
v 0.2 2.6 -0.3
v 0.3 2.6 -0.3
v 0.5 2.6 -0.3
v 0.6 2.6 -0.3
v -0.3 2.6 -0.4
v -0.2 2.6 -0.4
v 0.2 2.6 -0.4
v 0.3 2.6 -0.4
v -0.0999999 2.7 0.7
v 0.1 2.7 0.7
v -0.0999999 2.7 0.6
v 0.1 2.7 0.6
v -0.7 2.7 -0.1
v -0.6 2.7 -0.1
v 0.6 2.7 -0.1
v 0.7 2.7 -0.1
v -0.6 2.7 -0.3
v -0.3 2.7 -0.3
v 0.3 2.7 -0.3
v 0.6 2.7 -0.3
v -0.7 2.7 -0.4
v -0.3 2.7 -0.4
v 0.3 2.7 -0.4
v 0.7 2.7 -0.4
v -0.2 2.8 0.7
v -0.0999999 2.8 0.7
v 0.1 2.8 0.7
v 0.2 2.8 0.7
v -0.2 2.8 0.6
v -0.0999999 2.8 0.6
v 0.1 2.8 0.6
v 0.2 2.8 0.6
v -0.3 2.8 -0.4
v 0.3 2.8 -0.4
v -0.3 2.8 -0.5
v 0.3 2.8 -0.5
v -0.0999999 2.9 -0.5
v 0.1 2.9 -0.5
v -0.0999999 2.9 -0.6
v 0.1 2.9 -0.6
v -0.5 3.1 0.8
v -0.4 3.1 0.8
v 0.4 3.1 0.8
v 0.5 3.1 0.8
v -0.5 3.1 0.7
v 0.5 3.1 0.7
v -0.5 3.1 0.6
v -0.4 3.1 0.6
v 0.4 3.1 0.6
v 0.5 3.1 0.6
v -0.7 3.1 0.4
v -0.6 3.1 0.4
v 0.6 3.1 0.4
v 0.7 3.1 0.4
v -0.7 3.1 0.3
v -0.6 3.1 0.3
v 0.6 3.1 0.3
v 0.7 3.1 0.3
v -0.4 3.2 0.8
v -0.3 3.2 0.8
v 0.3 3.2 0.8
v 0.4 3.2 0.8
v -0.4 3.2 0.7
v -0.3 3.2 0.7
v 0.3 3.2 0.7
v 0.4 3.2 0.7
v -0.8 3.2 0.4
v -0.7 3.2 0.4
v 0.7 3.2 0.4
v 0.8 3.2 0.4
v -0.8 3.2 -5.96046e-08
v -0.7 3.2 -5.96046e-08
v 0.7 3.2 -5.96046e-08
v 0.8 3.2 -5.96046e-08
v -0.3 3.3 0.8
v 0.3 3.3 0.8
v -0.4 3.3 0.7
v -0.3 3.3 0.7
v 0.3 3.3 0.7
v 0.4 3.3 0.7
v -0.4 3.3 0.6
v 0.4 3.3 0.6
v -0.7 3.5 0.4
v -0.6 3.5 0.4
v -0.5 3.5 0.4
v -0.4 3.5 0.4
v 0.4 3.5 0.4
v 0.5 3.5 0.4
v 0.6 3.5 0.4
v 0.7 3.5 0.4
v -0.7 3.5 0.3
v -0.6 3.5 0.3
v -0.5 3.5 0.3
v -0.4 3.5 0.3
v 0.4 3.5 0.3
v 0.5 3.5 0.3
v 0.6 3.5 0.3
v 0.7 3.5 0.3
v -0.6 3.6 0.4
v -0.5 3.6 0.4
v 0.5 3.6 0.4
v 0.6 3.6 0.4
v -0.6 3.6 0.3
v -0.5 3.6 0.3
v 0.5 3.6 0.3
v 0.6 3.6 0.3
v -0.6 0.1 0.7
v -0.5 0.1 0.7
v -0.2 0.1 0.7
v -0.0999999 0.1 0.7
v 0.1 0.1 0.7
v 0.2 0.1 0.7
v 0.5 0.1 0.7
v 0.6 0.1 0.7
v -0.6 0.1 0.6
v -0.5 0.1 0.6
v -0.2 0.1 0.6
v -0.0999999 0.1 0.6
v 0.1 0.1 0.6
v 0.2 0.1 0.6
v 0.5 0.1 0.6
v 0.6 0.1 0.6
v -0.5 0.2 0.7
v -0.2 0.2 0.7
v 0.2 0.2 0.7
v 0.5 0.2 0.7
v -0.6 0.2 0.6
v -0.5 0.2 0.6
v -0.2 0.2 0.6
v -0.0999999 0.2 0.6
v 0.1 0.2 0.6
v 0.2 0.2 0.6
v 0.5 0.2 0.6
v 0.6 0.2 0.6
v -0.5 0.2 0.5
v -0.2 0.2 0.5
v 0.2 0.2 0.5
v 0.5 0.2 0.5
v -0.6 0.2 0.4
v -0.5 0.2 0.4
v -0.2 0.2 0.4
v -0.0999999 0.2 0.4
v 0.1 0.2 0.4
v 0.2 0.2 0.4
v 0.5 0.2 0.4
v 0.6 0.2 0.4
v -1.2 1.1 0.6
v -1.1 1.1 0.6
v -0.9 1.1 0.6
v -0.8 1.1 0.6
v 0.8 1.1 0.6
v 0.9 1.1 0.6
v 1.1 1.1 0.6
v 1.2 1.1 0.6
v -1.2 1.1 0.5
v -1.1 1.1 0.5
v -0.9 1.1 0.5
v -0.8 1.1 0.5
v 0.8 1.1 0.5
v 0.9 1.1 0.5
v 1.1 1.1 0.5
v 1.2 1.1 0.5
v -1.1 1.2 0.6
v -0.9 1.2 0.6
v 0.9 1.2 0.6
v 1.1 1.2 0.6
v -1.1 1.2 0.5
v -0.9 1.2 0.5
v 0.9 1.2 0.5
v 1.1 1.2 0.5
v -1.2 1.3 0.5
v -1.1 1.3 0.5
v -0.9 1.3 0.5
v -0.8 1.3 0.5
v 0.8 1.3 0.5
v 0.9 1.3 0.5
v 1.1 1.3 0.5
v 1.2 1.3 0.5
v -1.2 1.3 0.4
v -1.1 1.3 0.4
v -0.9 1.3 0.4
v -0.8 1.3 0.4
v 0.8 1.3 0.4
v 0.9 1.3 0.4
v 1.1 1.3 0.4
v 1.2 1.3 0.4
v -1.1 1.4 0.5
v -0.9 1.4 0.5
v 0.9 1.4 0.5
v 1.1 1.4 0.5
v -1.1 1.4 0.4
v -0.9 1.4 0.4
v 0.9 1.4 0.4
v 1.1 1.4 0.4
v -1.2 1.8 0.4
v -1.1 1.8 0.4
v 1.1 1.8 0.4
v 1.2 1.8 0.4
v -1.2 1.8 0.3
v -1.1 1.8 0.3
v 1.1 1.8 0.3
v 1.2 1.8 0.3
v -1.2 1.8 0.1
v -1.1 1.8 0.1
v 1.1 1.8 0.1
v 1.2 1.8 0.1
v -1.2 1.8 -5.96046e-08
v -1.1 1.8 -5.96046e-08
v 1.1 1.8 -5.96046e-08
v 1.2 1.8 -5.96046e-08
v -1.2 2 0.5
v -1 2 0.5
v 1 2 0.5
v 1.2 2 0.5
v -1.1 2 0.4
v -1 2 0.4
v 1 2 0.4
v 1.1 2 0.4
v -1.2 2 0.3
v -1.1 2 0.3
v 1.1 2 0.3
v 1.2 2 0.3
v -1.2 2 0.1
v -1.1 2 0.1
v 1.1 2 0.1
v 1.2 2 0.1
v -1.2 2 -5.96046e-08
v -1.1 2 -5.96046e-08
v -1 2 -5.96046e-08
v 1 2 -5.96046e-08
v 1.1 2 -5.96046e-08
v 1.2 2 -5.96046e-08
v -1.1 2 -0.1
v -1 2 -0.1
v 1 2 -0.1
v 1.1 2 -0.1
v -1.2 2.1 0.3
v -1.1 2.1 0.3
v 1.1 2.1 0.3
v 1.2 2.1 0.3
v -1.2 2.1 0.1
v -1.1 2.1 0.1
v 1.1 2.1 0.1
v 1.2 2.1 0.1
v -1 2.3 0.5
v -0.9 2.3 0.5
v 0.9 2.3 0.5
v 1 2.3 0.5
v -1 2.3 0.4
v -0.9 2.3 0.4
v 0.9 2.3 0.4
v 1 2.3 0.4
v -0.9 2.4 0.6
v -0.7 2.4 0.6
v 0.7 2.4 0.6
v 0.9 2.4 0.6
v -1.1 2.4 0.4
v -0.9 2.4 0.4
v -0.7 2.4 0.4
v 0.7 2.4 0.4
v 0.9 2.4 0.4
v 1.1 2.4 0.4
v -1.1 2.4 -5.96046e-08
v -1 2.4 -5.96046e-08
v -0.9 2.4 -5.96046e-08
v 0.9 2.4 -5.96046e-08
v 1 2.4 -5.96046e-08
v 1.1 2.4 -5.96046e-08
v -0.9 2.4 -0.1
v -0.7 2.4 -0.1
v 0.7 2.4 -0.1
v 0.9 2.4 -0.1
v -0.9 2.4 -0.2
v -0.7 2.4 -0.2
v 0.7 2.4 -0.2
v 0.9 2.4 -0.2
v -0.6 2.5 0.8
v -0.2 2.5 0.8
v 0.2 2.5 0.8
v 0.6 2.5 0.8
v -0.6 2.5 0.7
v -0.2 2.5 0.7
v 0.2 2.5 0.7
v 0.6 2.5 0.7
v -0.2 2.5 0.6
v 0.2 2.5 0.6
v -0.9 2.5 0.4
v -0.8 2.5 0.4
v 0.8 2.5 0.4
v 0.9 2.5 0.4
v -1 2.5 -5.96046e-08
v -0.9 2.5 -5.96046e-08
v 0.9 2.5 -5.96046e-08
v 1 2.5 -5.96046e-08
v -1 2.5 -0.1
v -0.8 2.5 -0.1
v -0.7 2.5 -0.1
v -0.5 2.5 -0.1
v 0.5 2.5 -0.1
v 0.7 2.5 -0.1
v 0.8 2.5 -0.1
v 1 2.5 -0.1
v -0.7 2.5 -0.3
v -0.5 2.5 -0.3
v 0.5 2.5 -0.3
v 0.7 2.5 -0.3
v -0.4 2.6 0.7
v -0.2 2.6 0.7
v 0.2 2.6 0.7
v 0.4 2.6 0.7
v -0.4 2.6 0.6
v -0.2 2.6 0.6
v 0.2 2.6 0.6
v 0.4 2.6 0.6
v -0.8 2.7 0.8
v -0.7 2.7 0.8
v 0.7 2.7 0.8
v 0.8 2.7 0.8
v -0.8 2.7 0.5
v -0.7 2.7 0.5
v 0.7 2.7 0.5
v 0.8 2.7 0.5
v -0.7 2.8 0.8
v -0.4 2.8 0.8
v 0.4 2.8 0.8
v 0.7 2.8 0.8
v -0.7 2.8 0.7
v -0.4 2.8 0.7
v 0.4 2.8 0.7
v 0.7 2.8 0.7
v -0.8 2.8 0.5
v -0.7 2.8 0.5
v 0.7 2.8 0.5
v 0.8 2.8 0.5
v -0.8 2.8 0.4
v -0.7 2.8 0.4
v 0.7 2.8 0.4
v 0.8 2.8 0.4
v -0.8 2.8 -5.96046e-08
v -0.7 2.8 -5.96046e-08
v 0.7 2.8 -5.96046e-08
v 0.8 2.8 -5.96046e-08
v -0.8 2.8 -0.1
v -0.7 2.8 -0.1
v 0.7 2.8 -0.1
v 0.8 2.8 -0.1
v -0.7 2.8 -0.3
v -0.6 2.8 -0.3
v 0.6 2.8 -0.3
v 0.7 2.8 -0.3
v -0.7 2.8 -0.4
v -0.6 2.8 -0.4
v 0.6 2.8 -0.4
v 0.7 2.8 -0.4
v -0.5 2.9 0.7
v -0.4 2.9 0.7
v -0.2 2.9 0.7
v 0.2 2.9 0.7
v 0.4 2.9 0.7
v 0.5 2.9 0.7
v -0.5 2.9 0.6
v -0.4 2.9 0.6
v -0.2 2.9 0.6
v -0.0999999 2.9 0.6
v 0.1 2.9 0.6
v 0.2 2.9 0.6
v 0.4 2.9 0.6
v 0.5 2.9 0.6
v -0.7 3 0.4
v -0.6 3 0.4
v 0.6 3 0.4
v 0.7 3 0.4
v -0.7 3 0.3
v -0.6 3 0.3
v 0.6 3 0.3
v 0.7 3 0.3
v -0.7 3.1 0.7
v -0.6 3.1 0.7
v 0.6 3.1 0.7
v 0.7 3.1 0.7
v -0.7 3.1 0.6
v -0.6 3.1 0.6
v 0.6 3.1 0.6
v 0.7 3.1 0.6
v -0.8 3.1 0.4
v -0.7 3.1 0.4
v 0.7 3.1 0.4
v 0.8 3.1 0.4
v -0.8 3.1 -5.96046e-08
v -0.7 3.1 -5.96046e-08
v 0.7 3.1 -5.96046e-08
v 0.8 3.1 -5.96046e-08
v -0.0999999 3.1 -0.5
v 0.1 3.1 -0.5
v -0.0999999 3.1 -0.6
v 0.1 3.1 -0.6
v -0.6 3.2 0.5
v -0.5 3.2 0.5
v 0.5 3.2 0.5
v 0.6 3.2 0.5
v -0.6 3.2 0.4
v -0.5 3.2 0.4
v 0.5 3.2 0.4
v 0.6 3.2 0.4
v -0.6 3.2 0.3
v -0.5 3.2 0.3
v 0.5 3.2 0.3
v 0.6 3.2 0.3
v -0.3 3.2 -0.4
v 0.3 3.2 -0.4
v -0.3 3.2 -0.5
v 0.3 3.2 -0.5
v -0.7 3.3 0.6
v -0.6 3.3 0.6
v -0.5 3.3 0.6
v 0.5 3.3 0.6
v 0.6 3.3 0.6
v 0.7 3.3 0.6
v -0.6 3.3 0.5
v -0.5 3.3 0.5
v 0.5 3.3 0.5
v 0.6 3.3 0.5
v -0.7 3.3 0.4
v -0.6 3.3 0.4
v 0.6 3.3 0.4
v 0.7 3.3 0.4
v -0.7 3.3 0.3
v -0.6 3.3 0.3
v 0.6 3.3 0.3
v 0.7 3.3 0.3
v -0.7 3.3 -0.2
v -0.6 3.3 -0.2
v 0.6 3.3 -0.2
v 0.7 3.3 -0.2
v -0.7 3.3 -0.3
v -0.6 3.3 -0.3
v 0.6 3.3 -0.3
v 0.7 3.3 -0.3
v -0.6 3.4 0.7
v -0.5 3.4 0.7
v 0.5 3.4 0.7
v 0.6 3.4 0.7
v -0.6 3.4 0.6
v -0.5 3.4 0.6
v 0.5 3.4 0.6
v 0.6 3.4 0.6
v -0.5 3.4 0.5
v -0.4 3.4 0.5
v 0.4 3.4 0.5
v 0.5 3.4 0.5
v -0.4 3.4 0.4
v 0.4 3.4 0.4
v -0.5 3.4 0.3
v -0.4 3.4 0.3
v 0.4 3.4 0.3
v 0.5 3.4 0.3
v -0.7 3.4 -5.96046e-08
v -0.6 3.4 -5.96046e-08
v 0.6 3.4 -5.96046e-08
v 0.7 3.4 -5.96046e-08
v -0.7 3.4 -0.2
v -0.6 3.4 -0.2
v 0.6 3.4 -0.2
v 0.7 3.4 -0.2
v -0.6 3.4 -0.3
v 0.6 3.4 -0.3
v -0.6 3.4 -0.4
v 0.6 3.4 -0.4
v -0.5 3.5 0.8
v 0.5 3.5 0.8
v -0.4 3.5 0.7
v -0.2 3.5 0.7
v 0.2 3.5 0.7
v 0.4 3.5 0.7
v -0.2 3.5 0.6
v 0.2 3.5 0.6
v -0.5 3.5 0.5
v -0.4 3.5 0.5
v 0.4 3.5 0.5
v 0.5 3.5 0.5
v -0.6 3.5 -5.96046e-08
v -0.4 3.5 -5.96046e-08
v 0.4 3.5 -5.96046e-08
v 0.6 3.5 -5.96046e-08
v -0.4 3.5 -0.2
v 0.4 3.5 -0.2
v -0.6 3.5 -0.3
v 0.6 3.5 -0.3
v -0.4 3.6 0.7
v -0.2 3.6 0.7
v 0.2 3.6 0.7
v 0.4 3.6 0.7
v -0.2 3.6 0.6
v 0.2 3.6 0.6
v -0.8 3.6 0.4
v -0.7 3.6 0.4
v -0.4 3.6 0.4
v -0.3 3.6 0.4
v -0.0999999 3.6 0.4
v 0.1 3.6 0.4
v 0.3 3.6 0.4
v 0.4 3.6 0.4
v 0.7 3.6 0.4
v 0.8 3.6 0.4
v -0.2 3.6 0.3
v -0.0999999 3.6 0.3
v 0.1 3.6 0.3
v 0.2 3.6 0.3
v -0.8 3.6 -5.96046e-08
v -0.7 3.6 -5.96046e-08
v -0.4 3.6 -5.96046e-08
v -0.3 3.6 -5.96046e-08
v -0.2 3.6 -5.96046e-08
v 0.2 3.6 -5.96046e-08
v 0.3 3.6 -5.96046e-08
v 0.4 3.6 -5.96046e-08
v 0.7 3.6 -5.96046e-08
v 0.8 3.6 -5.96046e-08
v -0.4 3.6 -0.2
v 0.4 3.6 -0.2
v -0.7 3.7 0.4
v -0.4 3.7 0.4
v -0.0999999 3.7 0.4
v 0.1 3.7 0.4
v 0.4 3.7 0.4
v 0.7 3.7 0.4
v -0.2 3.7 0.3
v -0.0999999 3.7 0.3
v 0.1 3.7 0.3
v 0.2 3.7 0.3
v -0.7 3.7 -5.96046e-08
v -0.4 3.7 -5.96046e-08
v -0.2 3.7 -5.96046e-08
v 0.2 3.7 -5.96046e-08
v 0.4 3.7 -5.96046e-08
v 0.7 3.7 -5.96046e-08

# faces
f 3/1/1 2/1/1 1/1/1
f 5/1/1 3/1/1 1/1/1
f 5/1/1 4/1/1 3/1/1
f 6/1/1 4/1/1 5/1/1
f 7/1/1 4/1/1 6/1/1
f 8/1/1 4/1/1 7/1/1
f 9/1/1 4/1/1 8/1/1
f 11/1/1 10/1/1 9/1/1
f 11/1/1 9/1/1 8/1/1
f 13/1/1 11/1/1 8/1/1
f 13/1/1 12/1/1 11/1/1
f 14/1/1 12/1/1 13/1/1
f 15/1/1 12/1/1 14/1/1
f 16/1/1 12/1/1 15/1/1
f 18/1/1 15/1/1 14/1/1
f 19/1/1 15/1/1 18/1/1
f 21/3/1 18/3/1 17/3/1
f 21/3/1 20/3/1 19/3/1
f 21/3/1 19/3/1 18/3/1
f 22/3/1 20/3/1 21/3/1
f 23/3/1 20/3/1 22/3/1
f 24/3/1 20/3/1 23/3/1
f 25/3/1 23/3/1 22/3/1
f 26/3/1 23/3/1 25/3/1
f 29/1/1 28/1/1 27/1/1
f 30/1/1 28/1/1 29/1/1
f 35/1/1 32/1/1 31/1/1
f 36/1/1 32/1/1 35/1/1
f 37/1/1 34/1/1 33/1/1
f 38/1/1 34/1/1 37/1/1
f 41/1/1 40/1/1 39/1/1
f 42/1/1 40/1/1 41/1/1
f 48/3/1 44/3/1 43/3/1
f 49/1/1 45/1/1 44/1/1
f 49/3/1 44/3/1 48/3/1
f 50/1/1 45/1/1 49/1/1
f 51/1/1 47/1/1 46/1/1
f 52/1/1 47/1/1 51/1/1
f 57/3/1 53/3/1 52/3/1
f 58/3/1 53/3/1 57/3/1
f 59/3/1 55/3/1 54/3/1
f 60/3/1 57/3/1 56/3/1
f 61/3/1 59/3/1 54/3/1
f 61/3/1 60/3/1 59/3/1
f 62/3/1 57/3/1 60/3/1
f 62/3/1 60/3/1 61/3/1
f 65/3/1 64/3/1 63/3/1
f 66/3/1 64/3/1 65/3/1
f 71/3/1 68/3/1 67/3/1
f 72/3/1 68/3/1 71/3/1
f 73/3/1 70/3/1 69/3/1
f 74/3/1 70/3/1 73/3/1
f 75/3/1 70/3/1 74/3/1
f 80/3/1 79/3/1 78/3/1
f 82/3/1 80/3/1 78/3/1
f 82/3/1 81/3/1 80/3/1
f 83/3/1 81/3/1 82/3/1
f 85/3/1 77/3/1 76/3/1
f 86/3/1 77/3/1 85/3/1
f 87/3/1 84/3/1 83/3/1
f 88/3/1 84/3/1 87/3/1
f 91/3/1 90/3/1 89/3/1
f 92/3/1 90/3/1 91/3/1
f 93/3/1 91/3/1 89/3/1
f 94/3/1 91/3/1 93/3/1
f 98/3/1 96/3/1 95/3/1
f 99/3/1 98/3/1 97/3/1
f 100/3/1 98/3/1 99/3/1
f 101/3/1 98/3/1 100/3/1
f 102/3/1 96/3/1 98/3/1
f 102/3/1 98/3/1 101/3/1
f 103/3/1 96/3/1 102/3/1
f 104/3/1 96/3/1 103/3/1
f 105/3/1 103/3/1 102/3/1
f 106/3/1 103/3/1 105/3/1
f 109/1/1 108/1/1 107/1/1
f 110/1/1 108/1/1 109/1/1
f 114/1/1 112/1/1 111/1/1
f 115/3/1 114/3/1 113/3/1
f 116/1/1 112/1/1 114/1/1
f 116/3/1 114/3/1 115/3/1
f 117/1/1 112/1/1 116/1/1
f 120/3/1 119/3/1 118/3/1
f 122/3/1 120/3/1 118/3/1
f 122/3/1 121/3/1 120/3/1
f 123/3/1 121/3/1 122/3/1
f 126/3/1 125/3/1 124/3/1
f 129/3/1 121/3/1 123/3/1
f 130/3/1 129/3/1 128/3/1
f 131/3/1 121/3/1 129/3/1
f 131/3/1 129/3/1 130/3/1
f 132/3/1 127/3/1 126/3/1
f 132/3/1 126/3/1 124/3/1
f 133/3/1 127/3/1 132/3/1
f 138/3/1 135/3/1 134/3/1
f 139/3/1 135/3/1 138/3/1
f 140/3/1 135/3/1 139/3/1
f 143/3/1 137/3/1 136/3/1
f 144/3/1 137/3/1 143/3/1
f 145/3/1 137/3/1 144/3/1
f 146/3/1 141/3/1 140/3/1
f 146/3/1 140/3/1 139/3/1
f 147/3/1 141/3/1 146/3/1
f 148/3/1 141/3/1 147/3/1
f 149/3/1 144/3/1 143/3/1
f 149/3/1 143/3/1 142/3/1
f 150/3/1 148/3/1 147/3/1
f 150/1/1 149/1/1 148/1/1
f 151/3/1 144/3/1 149/3/1
f 151/1/1 149/1/1 150/1/1
f 152/3/1 150/3/1 147/3/1
f 153/3/1 150/3/1 152/3/1
f 154/3/1 144/3/1 151/3/1
f 155/3/1 144/3/1 154/3/1
f 156/3/1 154/3/1 151/3/1
f 157/3/1 154/3/1 156/3/1
f 160/1/1 159/1/1 158/1/1
f 161/1/1 159/1/1 160/1/1
f 164/1/1 163/1/1 162/1/1
f 165/1/1 163/1/1 164/1/1
f 166/1/1 163/1/1 165/1/1
f 167/1/1 163/1/1 166/1/1
f 169/1/1 163/1/1 167/1/1
f 170/1/1 163/1/1 169/1/1
f 173/1/1 169/1/1 168/1/1
f 174/1/1 169/1/1 173/1/1
f 175/1/1 171/1/1 170/1/1
f 177/3/1 173/3/1 172/3/1
f 178/3/1 173/3/1 177/3/1
f 179/1/1 175/1/1 170/1/1
f 180/3/1 176/3/1 175/3/1
f 180/1/1 175/1/1 179/1/1
f 181/3/1 176/3/1 180/3/1
f 183/3/1 177/3/1 172/3/1
f 184/3/1 177/3/1 183/3/1
f 184/3/1 183/3/1 182/3/1
f 185/3/1 177/3/1 184/3/1
f 186/3/1 184/3/1 182/3/1
f 187/3/1 184/3/1 186/3/1
f 190/3/1 189/3/1 188/3/1
f 191/3/1 189/3/1 190/3/1
f 198/3/1 195/3/1 194/3/1
f 199/3/1 195/3/1 198/3/1
f 200/3/1 197/3/1 196/3/1
f 202/3/1 193/3/1 192/3/1
f 203/3/1 200/3/1 196/3/1
f 204/3/1 200/3/1 203/3/1
f 206/3/1 202/3/1 201/3/1
f 207/3/1 193/3/1 202/3/1
f 207/3/1 202/3/1 206/3/1
f 208/3/1 193/3/1 207/3/1
f 209/3/1 206/3/1 205/3/1
f 209/3/1 207/3/1 206/3/1
f 210/3/1 207/3/1 209/3/1
f 215/1/1 214/1/1 213/1/1
f 216/1/1 214/1/1 215/1/1
f 220/1/1 218/1/1 217/1/1
f 221/1/1 218/1/1 220/1/1
f 222/1/1 212/1/1 211/1/1
f 223/1/1 212/1/1 222/1/1
f 225/1/1 220/1/1 219/1/1
f 226/1/1 220/1/1 225/1/1
f 227/1/1 224/1/1 223/1/1
f 228/1/1 224/1/1 227/1/1
f 230/3/1 229/3/1 228/3/1
f 231/3/1 229/3/1 230/3/1
f 234/3/1 233/3/1 232/3/1
f 235/3/1 233/3/1 234/3/1
f 242/1/1 239/1/1 238/1/1
f 242/1/1 240/1/1 239/1/1
f 243/3/1 237/3/1 236/3/1
f 244/3/1 242/3/1 241/3/1
f 245/1/1 240/1/1 242/1/1
f 245/3/1 242/3/1 244/3/1
f 246/1/1 240/1/1 245/1/1
f 247/3/1 243/3/1 236/3/1
f 247/3/1 244/3/1 243/3/1
f 247/3/1 245/3/1 244/3/1
f 248/3/1 245/3/1 247/3/1
f 251/1/1 250/1/1 249/1/1
f 252/1/1 250/1/1 251/1/1
f 257/1/1 254/1/1 253/1/1
f 258/1/1 254/1/1 257/1/1
f 259/1/1 256/1/1 255/1/1
f 260/1/1 256/1/1 259/1/1
f 263/3/1 262/3/1 261/3/1
f 264/3/1 262/3/1 263/3/1
f 269/3/1 266/3/1 265/3/1
f 270/1/1 267/1/1 266/1/1
f 270/3/1 266/3/1 269/3/1
f 271/1/1 267/1/1 270/1/1
f 274/3/1 269/3/1 268/3/1
f 274/3/1 270/3/1 269/3/1
f 275/3/1 270/3/1 274/3/1
f 276/3/1 273/3/1 272/3/1
f 277/3/1 273/3/1 276/3/1
f 280/3/1 279/3/1 278/3/1
f 281/3/1 279/3/1 280/3/1
f 284/3/1 283/3/1 282/3/1
f 285/3/1 283/3/1 284/3/1
f 288/3/1 287/3/1 286/3/1
f 289/3/1 287/3/1 288/3/1
f 292/3/1 291/3/1 290/3/1
f 293/3/1 291/3/1 292/3/1
f 296/3/1 295/3/1 294/3/1
f 297/3/1 295/3/1 296/3/1
f 300/2/1 299/2/1 298/2/1
f 301/2/1 299/2/1 300/2/1
f 304/3/1 303/3/1 302/3/1
f 305/3/1 303/3/1 304/3/1
f 308/2/1 307/2/1 306/2/1
f 309/2/1 307/2/1 308/2/1
f 312/3/1 311/3/1 310/3/1
f 313/3/1 311/3/1 312/3/1
f 316/3/1 315/3/1 314/3/1
f 317/3/1 315/3/1 316/3/1
f 320/1/1 319/1/1 318/1/1
f 321/1/1 319/1/1 320/1/1
f 322/1/1 319/1/1 321/1/1
f 323/1/1 319/1/1 322/1/1
f 324/1/1 319/1/1 323/1/1
f 325/1/1 319/1/1 324/1/1
f 328/3/1 327/3/1 326/3/1
f 329/3/1 327/3/1 328/3/1
f 334/1/1 333/1/1 332/1/1
f 335/1/1 333/1/1 334/1/1
f 338/1/1 337/1/1 336/1/1
f 339/1/1 337/1/1 338/1/1
f 340/1/1 331/1/1 330/1/1
f 341/1/1 331/1/1 340/1/1
f 344/3/1 343/3/1 342/3/1
f 345/3/1 343/3/1 344/3/1
f 347/3/1 346/3/1 345/3/1
f 348/3/1 346/3/1 347/3/1
f 351/3/1 350/3/1 349/3/1
f 352/3/1 350/3/1 351/3/1
f 355/3/1 354/3/1 353/3/1
f 356/3/1 354/3/1 355/3/1
f 359/3/1 358/3/1 357/3/1
f 360/3/1 358/3/1 359/3/1
f 364/3/1 362/3/1 361/3/1
f 364/3/1 363/3/1 362/3/1
f 365/3/1 363/3/1 364/3/1
f 366/3/1 363/3/1 365/3/1
f 367/3/1 363/3/1 366/3/1
f 370/3/1 369/3/1 368/3/1
f 371/3/1 369/3/1 370/3/1
f 372/3/1 369/3/1 371/3/1
f 373/3/1 372/3/1 371/3/1
f 374/3/1 372/3/1 373/3/1
f 377/1/1 376/1/1 375/1/1
f 378/1/1 376/1/1 377/1/1
f 381/3/1 380/3/1 379/3/1
f 382/3/1 380/3/1 381/3/1
f 386/3/1 384/3/1 383/3/1
f 387/1/1 385/1/1 384/1/1
f 387/3/1 384/3/1 386/3/1
f 388/1/1 385/1/1 387/1/1
f 391/1/1 390/1/1 389/1/1
f 392/1/1 390/1/1 391/1/1
f 395/3/1 394/3/1 393/3/1
f 396/3/1 394/3/1 395/3/1
f 399/1/1 398/1/1 397/1/1
f 400/1/1 398/1/1 399/1/1
f 403/1/1 402/1/1 401/1/1
f 405/1/1 403/1/1 401/1/1
f 405/1/1 404/1/1 403/1/1
f 406/1/1 404/1/1 405/1/1
f 407/1/1 404/1/1 406/1/1
f 408/1/1 404/1/1 407/1/1
f 409/1/1 404/1/1 408/1/1
f 411/1/1 410/1/1 409/1/1
f 411/1/1 409/1/1 408/1/1
f 413/1/1 411/1/1 408/1/1
f 413/1/1 412/1/1 411/1/1
f 414/1/1 412/1/1 413/1/1
f 417/1/1 416/1/1 415/1/1
f 418/1/1 416/1/1 417/1/1
f 423/1/1 420/1/1 419/1/1
f 424/1/1 420/1/1 423/1/1
f 425/1/1 422/1/1 421/1/1
f 426/1/1 422/1/1 425/1/1
f 429/1/1 428/1/1 427/1/1
f 430/1/1 428/1/1 429/1/1
f 433/3/1 432/3/1 431/3/1
f 434/3/1 432/3/1 433/3/1
f 435/3/2 436/3/2 437/3/2
f 437/3/2 436/3/2 438/3/2
f 439/1/2 440/1/2 441/1/2
f 441/1/2 440/1/2 442/1/2
f 443/1/2 444/1/2 447/1/2
f 447/1/2 444/1/2 448/1/2
f 445/1/2 446/1/2 449/1/2
f 449/1/2 446/1/2 450/1/2
f 451/1/2 452/1/2 453/1/2
f 453/1/2 452/1/2 454/1/2
f 455/1/2 456/1/2 457/1/2
f 455/1/2 457/1/2 459/1/2
f 457/1/2 458/1/2 459/1/2
f 459/1/2 458/1/2 460/1/2
f 460/1/2 458/1/2 461/1/2
f 461/1/2 458/1/2 462/1/2
f 462/1/2 458/1/2 463/1/2
f 463/1/2 464/1/2 465/1/2
f 462/1/2 463/1/2 465/1/2
f 462/1/2 465/1/2 467/1/2
f 465/1/2 466/1/2 467/1/2
f 467/1/2 466/1/2 468/1/2
f 469/3/2 470/3/2 471/3/2
f 471/3/2 470/3/2 472/3/2
f 473/1/2 474/1/2 475/1/2
f 475/1/2 474/1/2 476/1/2
f 477/3/2 478/3/2 480/3/2
f 478/1/2 479/1/2 481/1/2
f 480/3/2 478/3/2 481/3/2
f 481/1/2 479/1/2 482/1/2
f 483/1/2 484/1/2 485/1/2
f 485/1/2 484/1/2 486/1/2
f 487/3/2 488/3/2 489/3/2
f 489/3/2 488/3/2 490/3/2
f 491/3/2 492/3/2 493/3/2
f 493/3/2 492/3/2 494/3/2
f 495/3/2 496/3/2 498/3/2
f 496/3/2 497/3/2 498/3/2
f 498/3/2 497/3/2 499/3/2
f 499/3/2 497/3/2 500/3/2
f 500/3/2 497/3/2 501/3/2
f 502/3/2 503/3/2 504/3/2
f 504/3/2 503/3/2 505/3/2
f 505/3/2 503/3/2 506/3/2
f 505/3/2 506/3/2 507/3/2
f 507/3/2 506/3/2 508/3/2
f 509/1/2 510/1/2 511/1/2
f 511/1/2 510/1/2 512/1/2
f 513/3/2 514/3/2 515/3/2
f 515/3/2 514/3/2 516/3/2
f 519/1/2 520/1/2 521/1/2
f 521/1/2 520/1/2 522/1/2
f 523/1/2 524/1/2 525/1/2
f 525/1/2 524/1/2 526/1/2
f 517/1/2 518/1/2 527/1/2
f 527/1/2 518/1/2 528/1/2
f 529/3/2 530/3/2 531/3/2
f 531/3/2 530/3/2 532/3/2
f 532/3/2 533/3/2 534/3/2
f 534/3/2 533/3/2 535/3/2
f 536/3/2 537/3/2 538/3/2
f 538/3/2 537/3/2 539/3/2
f 540/1/2 541/1/2 542/1/2
f 542/1/2 541/1/2 543/1/2
f 543/1/2 541/1/2 544/1/2
f 544/1/2 541/1/2 545/1/2
f 545/1/2 541/1/2 546/1/2
f 546/1/2 541/1/2 547/1/2
f 548/3/2 549/3/2 550/3/2
f 550/3/2 549/3/2 551/3/2
f 552/2/2 553/2/2 554/2/2
f 554/2/2 553/2/2 555/2/2
f 556/3/2 557/3/2 558/3/2
f 558/3/2 557/3/2 559/3/2
f 560/3/2 561/3/2 562/3/2
f 562/3/2 561/3/2 563/3/2
f 564/3/2 565/3/2 566/3/2
f 566/3/2 565/3/2 567/3/2
f 568/2/2 569/2/2 570/2/2
f 570/2/2 569/2/2 571/2/2
f 572/3/2 573/3/2 574/3/2
f 574/3/2 573/3/2 575/3/2
f 576/3/2 577/3/2 578/3/2
f 578/3/2 577/3/2 579/3/2
f 580/3/2 581/3/2 582/3/2
f 582/3/2 581/3/2 583/3/2
f 584/3/2 585/3/2 586/3/2
f 586/3/2 585/3/2 587/3/2
f 588/3/2 589/3/2 590/3/2
f 590/3/2 589/3/2 591/3/2
f 592/1/2 593/1/2 597/1/2
f 596/3/2 597/3/2 598/3/2
f 597/1/2 593/1/2 599/1/2
f 598/3/2 597/3/2 599/3/2
f 599/1/2 593/1/2 600/1/2
f 594/1/2 595/1/2 601/1/2
f 601/1/2 595/1/2 602/1/2
f 603/3/2 604/3/2 607/3/2
f 604/1/2 605/1/2 608/1/2
f 607/3/2 604/3/2 608/3/2
f 608/1/2 605/1/2 609/1/2
f 606/3/2 607/3/2 612/3/2
f 607/3/2 608/3/2 612/3/2
f 612/3/2 608/3/2 613/3/2
f 610/3/2 611/3/2 614/3/2
f 614/3/2 611/3/2 615/3/2
f 618/1/2 619/1/2 620/1/2
f 620/1/2 619/1/2 621/1/2
f 622/1/2 623/1/2 624/1/2
f 624/1/2 623/1/2 625/1/2
f 616/1/2 617/1/2 626/1/2
f 626/1/2 617/1/2 627/1/2
f 628/3/2 629/3/2 630/3/2
f 630/3/2 629/3/2 631/3/2
f 632/3/2 633/3/2 634/3/2
f 634/3/2 633/3/2 635/3/2
f 638/1/2 639/1/2 642/1/2
f 639/1/2 640/1/2 642/1/2
f 636/3/2 637/3/2 643/3/2
f 641/3/2 642/3/2 644/3/2
f 642/1/2 640/1/2 645/1/2
f 644/3/2 642/3/2 645/3/2
f 645/1/2 640/1/2 646/1/2
f 636/3/2 643/3/2 647/3/2
f 643/3/2 644/3/2 647/3/2
f 644/3/2 645/3/2 647/3/2
f 647/3/2 645/3/2 648/3/2
f 649/1/2 650/1/2 651/1/2
f 651/1/2 650/1/2 652/1/2
f 653/1/2 654/1/2 655/1/2
f 655/1/2 654/1/2 656/1/2
f 656/1/2 654/1/2 657/1/2
f 657/1/2 654/1/2 658/1/2
f 658/1/2 654/1/2 660/1/2
f 660/1/2 654/1/2 661/1/2
f 659/1/2 660/1/2 664/1/2
f 664/1/2 660/1/2 665/1/2
f 661/1/2 662/1/2 666/1/2
f 663/3/2 664/3/2 668/3/2
f 668/3/2 664/3/2 669/3/2
f 661/1/2 666/1/2 670/1/2
f 666/3/2 667/3/2 671/3/2
f 670/1/2 666/1/2 671/1/2
f 671/3/2 667/3/2 672/3/2
f 663/3/2 668/3/2 674/3/2
f 674/3/2 668/3/2 675/3/2
f 673/3/2 674/3/2 675/3/2
f 675/3/2 668/3/2 676/3/2
f 673/3/2 675/3/2 677/3/2
f 677/3/2 675/3/2 678/3/2
f 679/3/2 680/3/2 681/3/2
f 681/3/2 680/3/2 682/3/2
f 685/3/2 686/3/2 689/3/2
f 689/3/2 686/3/2 690/3/2
f 687/3/2 688/3/2 691/3/2
f 683/3/2 684/3/2 693/3/2
f 687/3/2 691/3/2 694/3/2
f 694/3/2 691/3/2 695/3/2
f 692/3/2 693/3/2 697/3/2
f 693/3/2 684/3/2 698/3/2
f 697/3/2 693/3/2 698/3/2
f 698/3/2 684/3/2 699/3/2
f 696/3/2 697/3/2 700/3/2
f 697/3/2 698/3/2 700/3/2
f 700/3/2 698/3/2 701/3/2
f 702/1/2 703/1/2 705/1/2
f 704/3/2 705/3/2 706/3/2
f 705/1/2 703/1/2 707/1/2
f 706/3/2 705/3/2 707/3/2
f 707/1/2 703/1/2 708/1/2
f 709/3/2 710/3/2 711/3/2
f 709/3/2 711/3/2 713/3/2
f 711/3/2 712/3/2 713/3/2
f 713/3/2 712/3/2 714/3/2
f 715/3/2 716/3/2 717/3/2
f 714/3/2 712/3/2 720/3/2
f 719/3/2 720/3/2 721/3/2
f 720/3/2 712/3/2 722/3/2
f 721/3/2 720/3/2 722/3/2
f 717/3/2 718/3/2 723/3/2
f 715/3/2 717/3/2 723/3/2
f 723/3/2 718/3/2 724/3/2
f 725/3/2 726/3/2 729/3/2
f 729/3/2 726/3/2 730/3/2
f 730/3/2 726/3/2 731/3/2
f 727/3/2 728/3/2 734/3/2
f 734/3/2 728/3/2 735/3/2
f 735/3/2 728/3/2 736/3/2
f 731/3/2 732/3/2 737/3/2
f 730/3/2 731/3/2 737/3/2
f 737/3/2 732/3/2 738/3/2
f 738/3/2 732/3/2 739/3/2
f 734/3/2 735/3/2 740/3/2
f 733/3/2 734/3/2 740/3/2
f 738/3/2 739/3/2 741/3/2
f 739/1/2 740/1/2 741/1/2
f 740/3/2 735/3/2 742/3/2
f 741/1/2 740/1/2 742/1/2
f 738/3/2 741/3/2 743/3/2
f 743/3/2 741/3/2 744/3/2
f 742/3/2 735/3/2 745/3/2
f 745/3/2 735/3/2 746/3/2
f 742/3/2 745/3/2 747/3/2
f 747/3/2 745/3/2 748/3/2
f 749/1/2 750/1/2 751/1/2
f 751/1/2 750/1/2 752/1/2
f 753/3/2 754/3/2 755/3/2
f 755/3/2 754/3/2 756/3/2
f 753/3/2 755/3/2 757/3/2
f 757/3/2 755/3/2 758/3/2
f 759/3/2 760/3/2 762/3/2
f 761/3/2 762/3/2 763/3/2
f 763/3/2 762/3/2 764/3/2
f 764/3/2 762/3/2 765/3/2
f 762/3/2 760/3/2 766/3/2
f 765/3/2 762/3/2 766/3/2
f 766/3/2 760/3/2 767/3/2
f 767/3/2 760/3/2 768/3/2
f 766/3/2 767/3/2 769/3/2
f 769/3/2 767/3/2 770/3/2
f 771/1/2 772/1/2 773/1/2
f 773/1/2 772/1/2 774/1/2
f 777/3/2 778/3/2 779/3/2
f 777/3/2 779/3/2 781/3/2
f 779/3/2 780/3/2 781/3/2
f 781/3/2 780/3/2 782/3/2
f 775/3/2 776/3/2 784/3/2
f 784/3/2 776/3/2 785/3/2
f 782/3/2 783/3/2 786/3/2
f 786/3/2 783/3/2 787/3/2
f 788/3/2 789/3/2 790/3/2
f 790/3/2 789/3/2 791/3/2
f 792/3/2 793/3/2 796/3/2
f 796/3/2 793/3/2 797/3/2
f 794/3/2 795/3/2 798/3/2
f 798/3/2 795/3/2 799/3/2
f 799/3/2 795/3/2 800/3/2
f 801/1/2 802/1/2 803/1/2
f 803/1/2 802/1/2 804/1/2
f 805/1/2 806/1/2 809/1/2
f 809/1/2 806/1/2 810/1/2
f 807/1/2 808/1/2 811/1/2
f 811/1/2 808/1/2 812/1/2
f 813/1/2 814/1/2 815/1/2
f 815/1/2 814/1/2 816/1/2
f 817/3/2 818/3/2 822/3/2
f 818/1/2 819/1/2 823/1/2
f 822/3/2 818/3/2 823/3/2
f 823/1/2 819/1/2 824/1/2
f 820/1/2 821/1/2 825/1/2
f 825/1/2 821/1/2 826/1/2
f 826/3/2 827/3/2 831/3/2
f 831/3/2 827/3/2 832/3/2
f 828/3/2 829/3/2 833/3/2
f 830/3/2 831/3/2 834/3/2
f 828/3/2 833/3/2 835/3/2
f 833/3/2 834/3/2 835/3/2
f 834/3/2 831/3/2 836/3/2
f 835/3/2 834/3/2 836/3/2
f 837/1/2 838/1/2 839/1/2
f 837/1/2 839/1/2 841/1/2
f 839/1/2 840/1/2 841/1/2
f 841/1/2 840/1/2 842/1/2
f 842/1/2 840/1/2 843/1/2
f 843/1/2 840/1/2 844/1/2
f 844/1/2 840/1/2 845/1/2
f 845/1/2 846/1/2 847/1/2
f 844/1/2 845/1/2 847/1/2
f 844/1/2 847/1/2 849/1/2
f 847/1/2 848/1/2 849/1/2
f 849/1/2 848/1/2 850/1/2
f 850/1/2 848/1/2 851/1/2
f 851/1/2 848/1/2 852/1/2
f 850/1/2 851/1/2 854/1/2
f 854/1/2 851/1/2 855/1/2
f 853/3/2 854/3/2 857/3/2
f 855/3/2 856/3/2 857/3/2
f 854/3/2 855/3/2 857/3/2
f 857/3/2 856/3/2 858/3/2
f 858/3/2 856/3/2 859/3/2
f 859/3/2 856/3/2 860/3/2
f 858/3/2 859/3/2 861/3/2
f 861/3/2 859/3/2 862/3/2
f 865/3/3 864/3/3 863/3/3
f 871/3/3 868/3/3 867/3/3
f 872/3/3 868/3/3 871/3/3
f 873/3/3 865/3/3 863/3/3
f 873/3/3 866/3/3 865/3/3
f 874/3/3 866/3/3 873/3/3
f 875/3/3 870/3/3 869/3/3
f 876/3/3 870/3/3 875/3/3
f 877/3/3 870/3/3 876/3/3
f 878/3/3 870/3/3 877/3/3
f 879/3/3 868/3/3 872/3/3
f 880/3/3 868/3/3 879/3/3
f 884/3/3 870/3/3 878/3/3
f 886/3/3 882/3/3 881/3/3
f 890/3/3 884/3/3 883/3/3
f 891/3/3 890/3/3 889/3/3
f 892/3/3 870/3/3 884/3/3
f 892/3/3 890/3/3 891/3/3
f 892/3/3 884/3/3 890/3/3
f 893/3/3 886/3/3 885/3/3
f 894/3/3 882/3/3 886/3/3
f 894/3/3 886/3/3 893/3/3
f 895/3/3 888/3/3 887/3/3
f 896/3/3 888/3/3 895/3/3
f 897/3/3 895/3/3 887/3/3
f 898/3/3 895/3/3 897/3/3
f 907/3/3 900/3/3 899/3/3
f 908/3/3 900/3/3 907/3/3
f 909/3/3 902/3/3 901/3/3
f 911/1/3 904/1/3 903/1/3
f 913/3/3 910/3/3 909/3/3
f 913/3/3 909/3/3 901/3/3
f 914/3/3 910/3/3 913/3/3
f 915/3/3 910/3/3 914/3/3
f 917/3/3 906/3/3 905/3/3
f 918/3/3 906/3/3 917/3/3
f 920/3/3 900/3/3 908/3/3
f 921/3/3 913/3/3 901/3/3
f 922/3/3 913/3/3 921/3/3
f 926/3/3 919/3/3 918/3/3
f 926/3/3 917/3/3 916/3/3
f 926/3/3 918/3/3 917/3/3
f 927/1/3 912/1/3 911/1/3
f 927/1/3 911/1/3 903/1/3
f 928/1/3 912/1/3 927/1/3
f 929/3/3 926/3/3 925/3/3
f 929/3/3 919/3/3 926/3/3
f 930/3/3 920/3/3 908/3/3
f 931/3/3 920/3/3 930/3/3
f 934/3/3 924/3/3 923/3/3
f 935/3/3 924/3/3 934/3/3
f 936/1/3 927/1/3 903/1/3
f 937/1/3 927/1/3 936/1/3
f 938/3/3 929/3/3 925/3/3
f 938/3/3 930/3/3 929/3/3
f 939/3/3 930/3/3 938/3/3
f 941/2/3 933/2/3 932/2/3
f 945/3/3 930/3/3 939/3/3
f 946/2/3 941/2/3 940/2/3
f 947/2/3 933/2/3 941/2/3
f 947/2/3 941/2/3 946/2/3
f 948/1/3 943/1/3 942/1/3
f 950/3/3 945/3/3 944/3/3
f 950/3/3 930/3/3 945/3/3
f 951/3/3 930/3/3 950/3/3
f 953/2/3 933/2/3 947/2/3
f 954/2/3 933/2/3 953/2/3
f 957/3/3 950/3/3 944/3/3
f 958/3/3 950/3/3 957/3/3
f 959/3/3 950/3/3 958/3/3
f 960/3/3 950/3/3 959/3/3
f 961/3/3 950/3/3 960/3/3
f 962/3/3 950/3/3 961/3/3
f 963/3/3 952/3/3 951/3/3
f 966/3/3 956/3/3 955/3/3
f 967/3/3 956/3/3 966/3/3
f 968/1/3 949/1/3 948/1/3
f 968/1/3 948/1/3 942/1/3
f 969/1/3 949/1/3 968/1/3
f 970/3/3 965/3/3 964/3/3
f 973/1/3 968/1/3 942/1/3
f 974/1/3 968/1/3 973/1/3
f 975/3/3 961/3/3 960/3/3
f 976/3/3 961/3/3 975/3/3
f 978/3/3 963/3/3 951/3/3
f 979/3/3 972/3/3 971/3/3
f 979/3/3 971/3/3 970/3/3
f 980/3/3 972/3/3 979/3/3
f 981/3/3 978/3/3 977/3/3
f 982/3/3 963/3/3 978/3/3
f 982/3/3 978/3/3 981/3/3
f 983/3/3 979/3/3 970/3/3
f 983/3/3 970/3/3 964/3/3
f 984/3/3 979/3/3 983/3/3
f 987/1/3 986/1/3 985/1/3
f 989/1/3 987/1/3 985/1/3
f 989/1/3 988/1/3 987/1/3
f 990/1/3 988/1/3 989/1/3
f 993/1/3 989/1/3 985/1/3
f 994/1/3 989/1/3 993/1/3
f 996/3/3 992/3/3 991/3/3
f 997/3/3 996/3/3 995/3/3
f 997/3/3 992/3/3 996/3/3
f 998/3/3 992/3/3 997/3/3
f 1003/3/3 997/3/3 995/3/3
f 1004/3/3 997/3/3 1003/3/3
f 1005/3/3 1000/3/3 999/3/3
f 1006/3/3 1000/3/3 1005/3/3
f 1007/1/3 1002/1/3 1001/1/3
f 1008/1/3 1002/1/3 1007/1/3
f 1014/1/3 1010/1/3 1009/1/3
f 1015/1/3 1010/1/3 1014/1/3
f 1016/1/3 1010/1/3 1015/1/3
f 1018/1/3 1012/1/3 1011/1/3
f 1019/1/3 1012/1/3 1018/1/3
f 1022/1/3 1014/1/3 1013/1/3
f 1022/1/3 1015/1/3 1014/1/3
f 1023/1/3 1015/1/3 1022/1/3
f 1024/6/3 1020/6/3 1019/6/3
f 1024/6/3 1019/6/3 1018/6/3
f 1024/1/3 1018/1/3 1017/1/3
f 1025/6/3 1020/6/3 1024/6/3
f 1029/1/3 1024/1/3 1017/1/3
f 1030/1/3 1024/1/3 1029/1/3
f 1031/1/3 1024/1/3 1030/1/3
f 1032/5/3 1025/5/3 1024/5/3
f 1032/1/3 1024/1/3 1031/1/3
f 1035/1/3 1027/1/3 1026/1/3
f 1036/1/3 1027/1/3 1035/1/3
f 1037/1/3 1022/1/3 1013/1/3
f 1039/1/3 1031/1/3 1030/1/3
f 1039/4/3 1030/4/3 1029/4/3
f 1040/1/3 1031/1/3 1039/1/3
f 1041/5/3 1025/5/3 1032/5/3
f 1042/6/3 1020/6/3 1025/6/3
f 1042/5/3 1025/5/3 1041/5/3
f 1043/1/3 1021/1/3 1020/1/3
f 1043/6/3 1020/6/3 1042/6/3
f 1046/1/3 1038/1/3 1037/1/3
f 1046/1/3 1037/1/3 1013/1/3
f 1047/1/3 1038/1/3 1046/1/3
f 1048/4/3 1039/4/3 1029/4/3
f 1050/1/3 1042/1/3 1041/1/3
f 1050/1/3 1043/1/3 1042/1/3
f 1051/1/3 1043/1/3 1050/1/3
f 1052/1/3 1021/1/3 1043/1/3
f 1052/1/3 1043/1/3 1051/1/3
f 1053/1/3 1045/1/3 1044/1/3
f 1054/1/3 1045/1/3 1053/1/3
f 1055/1/3 1029/1/3 1028/1/3
f 1056/4/3 1048/4/3 1029/4/3
f 1056/1/3 1029/1/3 1055/1/3
f 1057/1/3 1049/1/3 1048/1/3
f 1057/4/3 1048/4/3 1056/4/3
f 1058/1/3 1049/1/3 1057/1/3
f 1059/5/3 1051/5/3 1050/5/3
f 1060/3/3 1034/3/3 1033/3/3
f 1061/3/3 1034/3/3 1060/3/3
f 1062/1/3 1046/1/3 1013/1/3
f 1064/1/3 1058/1/3 1057/1/3
f 1064/1/3 1059/1/3 1058/1/3
f 1064/5/3 1051/5/3 1059/5/3
f 1064/1/3 1057/1/3 1056/1/3
f 1065/6/3 1052/6/3 1051/6/3
f 1065/5/3 1051/5/3 1064/5/3
f 1066/1/3 1063/1/3 1062/1/3
f 1066/1/3 1062/1/3 1013/1/3
f 1067/1/3 1063/1/3 1066/1/3
f 1068/1/3 1064/1/3 1056/1/3
f 1069/6/3 1065/6/3 1064/6/3
f 1069/1/3 1064/1/3 1068/1/3
f 1070/6/3 1052/6/3 1065/6/3
f 1070/6/3 1065/6/3 1069/6/3
f 1071/1/3 1021/1/3 1052/1/3
f 1071/6/3 1052/6/3 1070/6/3
f 1072/1/3 1021/1/3 1071/1/3
f 1075/1/3 1070/1/3 1069/1/3
f 1076/1/3 1070/1/3 1075/1/3
f 1077/1/3 1074/1/3 1073/1/3
f 1078/1/3 1074/1/3 1077/1/3
f 1083/3/3 1080/3/3 1079/3/3
f 1085/3/3 1082/3/3 1081/3/3
f 1086/3/3 1082/3/3 1085/3/3
f 1089/3/3 1084/3/3 1083/3/3
f 1089/3/3 1083/3/3 1079/3/3
f 1090/3/3 1084/3/3 1089/3/3
f 1091/1/3 1088/1/3 1087/1/3
f 1093/3/3 1084/3/3 1090/3/3
f 1094/3/3 1084/3/3 1093/3/3
f 1095/1/3 1092/1/3 1091/1/3
f 1095/1/3 1091/1/3 1087/1/3
f 1096/1/3 1092/1/3 1095/1/3
f 1097/1/3 1095/1/3 1087/1/3
f 1098/1/3 1095/1/3 1097/1/3
f 1103/1/3 1100/1/3 1099/1/3
f 1104/1/3 1100/1/3 1103/1/3
f 1105/1/3 1100/1/3 1104/1/3
f 1108/3/3 1102/3/3 1101/3/3
f 1109/3/3 1108/3/3 1107/3/3
f 1110/3/3 1102/3/3 1108/3/3
f 1110/3/3 1108/3/3 1109/3/3
f 1111/3/3 1102/3/3 1110/3/3
f 1114/1/3 1106/1/3 1105/1/3
f 1114/1/3 1105/1/3 1104/1/3
f 1115/1/3 1106/1/3 1114/1/3
f 1116/1/3 1106/1/3 1115/1/3
f 1117/3/3 1111/3/3 1110/3/3
f 1117/3/3 1112/3/3 1111/3/3
f 1118/3/3 1112/3/3 1117/3/3
f 1119/1/3 1115/1/3 1114/1/3
f 1119/1/3 1114/1/3 1113/1/3
f 1120/1/3 1115/1/3 1119/1/3
f 1121/3/3 1117/3/3 1110/3/3
f 1122/3/3 1117/3/3 1121/3/3
f 1127/3/3 1124/3/3 1123/3/3
f 1128/3/3 1124/3/3 1127/3/3
f 1130/3/3 1126/3/3 1125/3/3
f 1131/3/3 1126/3/3 1130/3/3
f 1133/1/3 1130/1/3 1129/1/3
f 1134/1/3 1130/1/3 1133/1/3
f 1135/1/3 1133/1/3 1132/1/3
f 1136/1/3 1133/1/3 1135/1/3
f 1137/1/3 1135/1/3 1132/1/3
f 1138/1/3 1135/1/3 1137/1/3
f 1141/1/3 1140/1/3 1139/1/3
f 1143/1/3 1141/1/3 1139/1/3
f 1143/1/3 1142/1/3 1141/1/3
f 1144/1/3 1142/1/3 1143/1/3
f 1145/1/3 1142/1/3 1144/1/3
f 1146/1/3 1142/1/3 1145/1/3
f 1148/3/3 1147/3/3 1146/3/3
f 1149/3/3 1147/3/3 1148/3/3
f 1156/3/3 1151/3/3 1150/3/3
f 1157/3/3 1151/3/3 1156/3/3
f 1158/1/3 1153/1/3 1152/1/3
f 1159/1/3 1153/1/3 1158/1/3
f 1160/1/3 1153/1/3 1159/1/3
f 1162/3/3 1155/3/3 1154/3/3
f 1165/3/3 1163/3/3 1162/3/3
f 1165/3/3 1162/3/3 1154/3/3
f 1166/3/3 1163/3/3 1165/3/3
f 1167/3/3 1163/3/3 1166/3/3
f 1169/1/3 1161/1/3 1160/1/3
f 1169/1/3 1160/1/3 1159/1/3
f 1170/1/3 1161/1/3 1169/1/3
f 1171/1/3 1161/1/3 1170/1/3
f 1172/3/3 1166/3/3 1165/3/3
f 1172/3/3 1165/3/3 1164/3/3
f 1173/3/3 1166/3/3 1172/3/3
f 1174/1/3 1170/1/3 1169/1/3
f 1174/1/3 1169/1/3 1168/1/3
f 1175/1/3 1170/1/3 1174/1/3
f 1176/3/3 1166/3/3 1173/3/3
f 1177/3/3 1166/3/3 1176/3/3
f 1180/1/3 1179/1/3 1178/1/3
f 1181/1/3 1179/1/3 1180/1/3
f 1182/1/3 1179/1/3 1181/1/3
f 1185/1/3 1182/1/3 1181/1/3
f 1187/3/3 1184/3/3 1183/3/3
f 1188/3/3 1184/3/3 1187/3/3
f 1190/1/3 1186/1/3 1185/1/3
f 1190/1/3 1185/1/3 1181/1/3
f 1191/3/3 1184/3/3 1188/3/3
f 1192/3/3 1184/3/3 1191/3/3
f 1194/1/3 1190/1/3 1189/1/3
f 1195/1/3 1186/1/3 1190/1/3
f 1195/1/3 1190/1/3 1194/1/3
f 1196/1/3 1186/1/3 1195/1/3
f 1197/3/3 1193/3/3 1192/3/3
f 1205/3/3 1197/3/3 1192/3/3
f 1205/3/3 1198/3/3 1197/3/3
f 1206/3/3 1198/3/3 1205/3/3
f 1207/3/3 1200/3/3 1199/3/3
f 1208/3/3 1200/3/3 1207/3/3
f 1209/1/3 1202/1/3 1201/1/3
f 1210/1/3 1202/1/3 1209/1/3
f 1211/1/3 1202/1/3 1210/1/3
f 1212/1/3 1202/1/3 1211/1/3
f 1215/1/3 1204/1/3 1203/1/3
f 1216/1/3 1204/1/3 1215/1/3
f 1217/1/3 1213/1/3 1212/1/3
f 1217/1/3 1212/1/3 1211/1/3
f 1218/1/3 1213/1/3 1217/1/3
f 1219/1/3 1215/1/3 1214/1/3
f 1220/1/3 1215/1/3 1219/1/3
f 1222/1/3 1213/1/3 1218/1/3
f 1223/1/3 1222/1/3 1221/1/3
f 1224/1/3 1213/1/3 1222/1/3
f 1224/1/3 1222/1/3 1223/1/3
f 1225/1/3 1213/1/3 1224/1/3
f 1228/1/3 1227/1/3 1226/1/3
f 1229/1/3 1227/1/3 1228/1/3
f 1234/3/3 1231/3/3 1230/3/3
f 1235/3/3 1231/3/3 1234/3/3
f 1236/1/3 1233/1/3 1232/1/3
f 1237/1/3 1233/1/3 1236/1/3
f 1243/1/3 1239/1/3 1238/1/3
f 1243/1/3 1240/1/3 1239/1/3
f 1244/1/3 1240/1/3 1243/1/3
f 1245/1/3 1242/1/3 1241/1/3
f 1246/1/3 1242/1/3 1245/1/3
f 1249/1/3 1240/1/3 1244/1/3
f 1250/1/3 1247/1/3 1246/1/3
f 1251/1/3 1247/1/3 1250/1/3
f 1258/1/3 1249/1/3 1248/1/3
f 1259/1/3 1240/1/3 1249/1/3
f 1259/1/3 1249/1/3 1258/1/3
f 1260/1/3 1240/1/3 1259/1/3
f 1264/3/3 1253/3/3 1252/3/3
f 1265/3/3 1253/3/3 1264/3/3
f 1266/3/3 1255/3/3 1254/3/3
f 1267/3/3 1255/3/3 1266/3/3
f 1268/1/3 1257/1/3 1256/1/3
f 1268/1/3 1258/1/3 1257/1/3
f 1268/1/3 1259/1/3 1258/1/3
f 1269/1/3 1259/1/3 1268/1/3
f 1270/1/3 1263/1/3 1262/1/3
f 1270/1/3 1262/1/3 1261/1/3
f 1271/1/3 1263/1/3 1270/1/3
f 1273/3/3 1264/3/3 1252/3/3
f 1274/3/3 1264/3/3 1273/3/3
f 1275/1/3 1263/1/3 1271/1/3
f 1276/1/3 1263/1/3 1275/1/3
f 1278/3/3 1273/3/3 1272/3/3
f 1280/1/3 1275/1/3 1271/1/3
f 1281/1/3 1275/1/3 1280/1/3
f 1282/3/3 1278/3/3 1277/3/3
f 1283/3/3 1273/3/3 1278/3/3
f 1283/3/3 1278/3/3 1282/3/3
f 1284/1/3 1281/1/3 1280/1/3
f 1284/1/3 1280/1/3 1279/1/3
f 1285/1/3 1281/1/3 1284/1/3
f 1290/1/3 1287/1/3 1286/1/3
f 1291/1/3 1287/1/3 1290/1/3
f 1292/3/3 1289/3/3 1288/3/3
f 1293/3/3 1289/3/3 1292/3/3
f 1298/3/3 1295/3/3 1294/3/3
f 1299/3/3 1295/3/3 1298/3/3
f 1301/1/3 1297/1/3 1296/1/3
f 1302/1/3 1297/1/3 1301/1/3
f 1304/1/3 1303/1/3 1302/1/3
f 1304/1/3 1302/1/3 1301/1/3
f 1304/1/3 1301/1/3 1300/1/3
f 1305/1/3 1303/1/3 1304/1/3
f 1306/1/3 1303/1/3 1305/1/3
f 1307/1/3 1303/1/3 1306/1/3
f 1308/1/3 1306/1/3 1305/1/3
f 1309/1/3 1306/1/3 1308/1/3
f 1312/3/3 1311/3/3 1310/3/3
f 1313/3/3 1311/3/3 1312/3/3
f 1316/3/3 1315/3/3 1314/3/3
f 1317/3/3 1315/3/3 1316/3/3
f 1321/1/3 1319/1/3 1318/1/3
f 1322/1/3 1319/1/3 1321/1/3
f 1326/1/3 1321/1/3 1320/1/3
f 1326/1/3 1322/1/3 1321/1/3
f 1326/1/3 1323/1/3 1322/1/3
f 1327/1/3 1323/1/3 1326/1/3
f 1328/1/3 1323/1/3 1327/1/3
f 1329/1/3 1323/1/3 1328/1/3
f 1330/3/3 1325/3/3 1324/3/3
f 1331/3/3 1325/3/3 1330/3/3
f 1332/1/3 1328/1/3 1327/1/3
f 1333/1/3 1328/1/3 1332/1/3
f 1338/1/3 1335/1/3 1334/1/3
f 1339/1/3 1335/1/3 1338/1/3
f 1340/3/3 1337/3/3 1336/3/3
f 1341/3/3 1337/3/3 1340/3/3
f 1344/3/3 1343/3/3 1342/3/3
f 1345/3/3 1343/3/3 1344/3/3
f 1348/3/3 1347/3/3 1346/3/3
f 1349/3/3 1347/3/3 1348/3/3
f 1350/3/4 1351/3/4 1352/3/4
f 1352/3/4 1351/3/4 1353/3/4
f 1354/3/4 1355/3/4 1356/3/4
f 1356/3/4 1355/3/4 1357/3/4
f 1358/3/4 1359/3/4 1360/3/4
f 1360/3/4 1359/3/4 1361/3/4
f 1362/3/4 1363/3/4 1364/3/4
f 1364/3/4 1363/3/4 1365/3/4
f 1366/3/4 1367/3/4 1368/3/4
f 1368/3/4 1367/3/4 1369/3/4
f 1370/3/4 1371/3/4 1372/3/4
f 1372/3/4 1371/3/4 1373/3/4
f 1374/3/4 1375/3/4 1378/3/4
f 1378/3/4 1375/3/4 1379/3/4
f 1376/3/4 1377/3/4 1380/3/4
f 1380/3/4 1377/3/4 1381/3/4
f 1382/3/4 1383/3/4 1384/3/4
f 1384/3/4 1383/3/4 1385/3/4
f 1386/3/4 1387/3/4 1388/3/4
f 1388/3/4 1387/3/4 1389/3/4
f 1390/1/4 1391/1/4 1392/1/4
f 1392/1/4 1391/1/4 1393/1/4
f 1394/1/4 1395/1/4 1396/1/4
f 1396/1/4 1395/1/4 1397/1/4
f 1398/1/4 1399/1/4 1400/1/4
f 1400/1/4 1399/1/4 1401/1/4
f 1398/1/4 1400/1/4 1402/1/4
f 1398/1/4 1402/1/4 1404/1/4
f 1402/1/4 1403/1/4 1404/1/4
f 1404/1/4 1403/1/4 1405/1/4
f 1406/1/4 1407/1/4 1408/1/4
f 1408/1/4 1407/1/4 1409/1/4
f 1406/1/4 1408/1/4 1410/1/4
f 1406/1/4 1410/1/4 1412/1/4
f 1410/1/4 1411/1/4 1412/1/4
f 1412/1/4 1411/1/4 1413/1/4
f 1414/1/4 1415/1/4 1421/1/4
f 1421/1/4 1415/1/4 1422/1/4
f 1422/1/4 1415/1/4 1423/1/4
f 1416/1/4 1417/1/4 1424/1/4
f 1424/1/4 1417/1/4 1425/1/4
f 1418/3/4 1419/3/4 1426/3/4
f 1426/3/4 1419/3/4 1427/3/4
f 1420/1/4 1421/1/4 1428/1/4
f 1421/1/4 1422/1/4 1428/1/4
f 1428/1/4 1422/1/4 1429/1/4
f 1429/1/4 1422/1/4 1430/1/4
f 1430/1/4 1431/1/4 1432/1/4
f 1429/1/4 1430/1/4 1432/1/4
f 1432/1/4 1431/1/4 1433/1/4
f 1434/1/4 1435/1/4 1437/1/4
f 1437/1/4 1435/1/4 1438/1/4
f 1438/1/4 1435/1/4 1439/1/4
f 1436/1/4 1437/1/4 1440/1/4
f 1437/1/4 1438/1/4 1440/1/4
f 1440/1/4 1438/1/4 1441/1/4
f 1441/1/4 1438/1/4 1442/1/4
f 1442/1/4 1443/1/4 1448/1/4
f 1441/1/4 1442/1/4 1448/1/4
f 1448/1/4 1443/1/4 1449/1/4
f 1444/1/4 1445/1/4 1450/1/4
f 1450/1/4 1445/1/4 1451/1/4
f 1446/3/4 1447/3/4 1452/3/4
f 1452/3/4 1447/3/4 1453/3/4
f 1454/1/4 1455/1/4 1459/1/4
f 1459/1/4 1455/1/4 1460/1/4
f 1456/3/4 1457/3/4 1461/3/4
f 1461/3/4 1457/3/4 1462/3/4
f 1459/1/4 1460/1/4 1464/1/4
f 1458/1/4 1459/1/4 1464/1/4
f 1460/1/4 1461/1/4 1464/1/4
f 1464/1/4 1461/1/4 1465/1/4
f 1462/3/4 1463/3/4 1466/3/4
f 1466/3/4 1463/3/4 1467/3/4
f 1458/1/4 1464/1/4 1468/1/4
f 1468/1/4 1464/1/4 1469/1/4
f 1469/1/4 1464/1/4 1470/1/4
f 1470/1/4 1464/1/4 1471/1/4
f 1472/3/4 1473/3/4 1478/3/4
f 1478/3/4 1473/3/4 1479/3/4
f 1474/1/4 1475/1/4 1480/1/4
f 1480/1/4 1475/1/4 1481/1/4
f 1481/1/4 1475/1/4 1482/1/4
f 1476/1/4 1477/1/4 1485/1/4
f 1485/1/4 1477/1/4 1486/1/4
f 1482/1/4 1483/1/4 1487/1/4
f 1481/1/4 1482/1/4 1487/1/4
f 1487/1/4 1483/1/4 1488/1/4
f 1484/1/4 1485/1/4 1489/1/4
f 1489/1/4 1485/1/4 1490/1/4
f 1488/1/4 1483/1/4 1491/1/4
f 1491/1/4 1483/1/4 1492/1/4
f 1492/1/4 1483/1/4 1493/1/4
f 1494/1/4 1495/1/4 1498/1/4
f 1498/1/4 1495/1/4 1499/1/4
f 1500/1/4 1501/1/4 1502/1/4
f 1502/1/4 1501/1/4 1503/1/4
f 1496/3/4 1497/3/4 1504/3/4
f 1504/3/4 1497/3/4 1505/3/4
f 1509/1/4 1510/1/4 1511/1/4
f 1511/1/4 1510/1/4 1512/1/4
f 1506/1/4 1507/1/4 1515/1/4
f 1507/1/4 1508/1/4 1515/1/4
f 1512/1/4 1513/1/4 1516/1/4
f 1516/1/4 1513/1/4 1517/1/4
f 1514/1/4 1515/1/4 1521/1/4
f 1515/1/4 1508/1/4 1522/1/4
f 1521/1/4 1515/1/4 1522/1/4
f 1522/1/4 1508/1/4 1523/1/4
f 1518/3/4 1519/3/4 1526/3/4
f 1526/3/4 1519/3/4 1527/3/4
f 1520/1/4 1521/1/4 1528/1/4
f 1521/1/4 1522/1/4 1528/1/4
f 1528/1/4 1522/1/4 1529/1/4
f 1524/1/4 1525/1/4 1531/1/4
f 1531/1/4 1525/1/4 1532/1/4
f 1530/1/4 1531/1/4 1532/1/4
f 1530/1/4 1532/1/4 1536/1/4
f 1532/1/4 1533/1/4 1536/1/4
f 1536/1/4 1533/1/4 1537/1/4
f 1537/1/4 1533/1/4 1538/1/4
f 1538/1/4 1533/1/4 1539/1/4
f 1534/3/4 1535/3/4 1540/3/4
f 1540/3/4 1535/3/4 1541/3/4
f 1537/1/4 1538/1/4 1542/1/4
f 1542/1/4 1538/1/4 1543/1/4
f 1539/3/4 1540/3/4 1544/3/4
f 1544/3/4 1540/3/4 1545/3/4
f 1546/3/4 1547/3/4 1549/3/4
f 1549/3/4 1547/3/4 1550/3/4
f 1548/3/4 1549/3/4 1552/3/4
f 1550/3/4 1551/3/4 1552/3/4
f 1549/3/4 1550/3/4 1552/3/4
f 1552/3/4 1551/3/4 1553/3/4
f 1553/3/4 1551/3/4 1554/3/4
f 1548/3/4 1552/3/4 1556/3/4
f 1556/3/4 1552/3/4 1557/3/4
f 1554/3/4 1555/3/4 1558/3/4
f 1553/3/4 1554/3/4 1558/3/4
f 1558/3/4 1555/3/4 1559/3/4
f 1559/3/4 1555/3/4 1560/3/4
f 1560/3/4 1555/3/4 1561/3/4
f 1559/3/4 1560/3/4 1564/3/4
f 1564/3/4 1560/3/4 1565/3/4
f 1562/1/4 1563/1/4 1567/1/4
f 1567/1/4 1563/1/4 1568/1/4
f 1559/3/4 1564/3/4 1569/3/4
f 1569/3/4 1564/3/4 1570/3/4
f 1566/1/4 1567/1/4 1571/1/4
f 1571/1/4 1567/1/4 1572/1/4
f 1566/1/4 1571/1/4 1573/1/4
f 1573/1/4 1571/1/4 1574/1/4
f 1575/1/4 1576/1/4 1577/1/4
f 1575/1/4 1577/1/4 1579/1/4
f 1577/1/4 1578/1/4 1579/1/4
f 1579/1/4 1578/1/4 1580/1/4
f 1580/1/4 1578/1/4 1583/1/4
f 1583/1/4 1578/1/4 1584/1/4
f 1581/3/4 1582/3/4 1585/3/4
f 1581/3/4 1585/3/4 1590/3/4
f 1585/3/4 1586/3/4 1590/3/4
f 1590/3/4 1586/3/4 1591/3/4
f 1590/3/4 1591/3/4 1593/3/4
f 1591/3/4 1592/3/4 1593/3/4
f 1589/3/4 1590/3/4 1593/3/4
f 1593/3/4 1592/3/4 1594/3/4
f 1587/3/4 1588/3/4 1595/3/4
f 1589/3/4 1593/3/4 1596/3/4
f 1587/3/4 1595/3/4 1597/3/4
f 1595/3/4 1596/3/4 1597/3/4
f 1597/3/4 1596/3/4 1598/3/4
f 1598/3/4 1596/3/4 1599/3/4
f 1596/3/4 1593/3/4 1600/3/4
f 1599/3/4 1596/3/4 1600/3/4
f 1598/3/4 1599/3/4 1601/3/4
f 1601/3/4 1599/3/4 1602/3/4
f 1603/3/4 1604/3/4 1607/3/4
f 1607/3/4 1604/3/4 1608/3/4
f 1605/3/4 1606/3/4 1612/3/4
f 1609/3/4 1610/3/4 1613/3/4
f 1613/3/4 1610/3/4 1614/3/4
f 1611/3/4 1612/3/4 1616/3/4
f 1612/3/4 1606/3/4 1617/3/4
f 1616/3/4 1612/3/4 1617/3/4
f 1615/1/4 1616/1/4 1619/1/4
f 1618/1/4 1619/1/4 1622/1/4
f 1619/1/4 1616/1/4 1622/1/4
f 1622/1/4 1616/1/4 1623/1/4
f 1618/1/4 1622/1/4 1624/1/4
f 1618/1/4 1624/1/4 1626/1/4
f 1624/1/4 1625/1/4 1626/1/4
f 1626/1/4 1625/1/4 1627/1/4
f 1620/3/4 1621/3/4 1628/3/4
f 1628/3/4 1621/3/4 1629/3/4
f 1630/3/4 1631/3/4 1632/3/4
f 1632/3/4 1631/3/4 1633/3/4
f 1633/3/4 1631/3/4 1636/3/4
f 1636/3/4 1631/3/4 1637/3/4
f 1634/3/4 1635/3/4 1640/3/4
f 1640/3/4 1635/3/4 1641/3/4
f 1638/3/4 1639/3/4 1642/3/4
f 1642/3/4 1639/3/4 1643/3/4
f 1646/3/4 1647/3/4 1650/3/4
f 1650/3/4 1647/3/4 1651/3/4
f 1644/3/4 1645/3/4 1655/3/4
f 1655/3/4 1645/3/4 1656/3/4
f 1648/3/4 1649/3/4 1657/3/4
f 1655/3/4 1656/3/4 1659/3/4
f 1656/3/4 1657/3/4 1659/3/4
f 1654/3/4 1655/3/4 1659/3/4
f 1657/3/4 1649/3/4 1660/3/4
f 1659/3/4 1657/3/4 1660/3/4
f 1660/3/4 1649/3/4 1661/3/4
f 1658/3/4 1659/3/4 1662/3/4
f 1659/3/4 1660/3/4 1662/3/4
f 1662/3/4 1660/3/4 1663/3/4
f 1658/3/4 1662/3/4 1664/3/4
f 1658/3/4 1664/3/4 1666/3/4
f 1664/3/4 1665/3/4 1666/3/4
f 1666/3/4 1665/3/4 1667/3/4
f 1667/3/4 1665/3/4 1668/3/4
f 1667/3/4 1668/3/4 1670/3/4
f 1668/3/4 1669/3/4 1670/3/4
f 1670/3/4 1669/3/4 1671/3/4
f 1671/3/4 1669/3/4 1672/3/4
f 1672/3/4 1669/3/4 1673/3/4
f 1673/3/4 1669/3/4 1674/3/4
f 1674/3/4 1669/3/4 1675/3/4
f 1652/3/4 1653/3/4 1678/3/4
f 1678/3/4 1653/3/4 1679/3/4
f 1671/3/4 1672/3/4 1680/3/4
f 1680/3/4 1672/3/4 1681/3/4
f 1676/3/4 1677/3/4 1682/3/4
f 1682/3/4 1677/3/4 1683/3/4
f 1684/3/4 1685/3/4 1686/3/4
f 1684/3/4 1686/3/4 1689/3/4
f 1686/3/4 1687/3/4 1689/3/4
f 1689/3/4 1687/3/4 1690/3/4
f 1690/3/4 1687/3/4 1691/3/4
f 1688/3/4 1689/3/4 1693/3/4
f 1689/3/4 1690/3/4 1693/3/4
f 1692/3/4 1693/3/4 1694/3/4
f 1693/3/4 1690/3/4 1695/3/4
f 1694/3/4 1693/3/4 1695/3/4
f 1695/3/4 1690/3/4 1696/3/4
f 1696/3/4 1690/3/4 1697/3/4
f 1697/3/4 1690/3/4 1698/3/4
f 1691/3/4 1687/3/4 1699/3/4
f 1697/3/4 1698/3/4 1700/3/4
f 1698/3/4 1699/3/4 1700/3/4
f 1699/3/4 1687/3/4 1701/3/4
f 1700/3/4 1699/3/4 1701/3/4
f 1697/3/4 1700/3/4 1702/3/4
f 1702/3/4 1700/3/4 1703/3/4
f 1704/3/4 1705/3/4 1706/3/4
f 1706/3/4 1705/3/4 1707/3/4
f 1704/3/4 1706/3/4 1708/3/4
f 1707/3/4 1705/3/4 1709/3/4
f 1704/3/4 1708/3/4 1710/3/4
f 1708/3/4 1709/3/4 1710/3/4
f 1709/3/4 1705/3/4 1711/3/4
f 1710/3/4 1709/3/4 1711/3/4
f 1712/3/4 1713/3/4 1714/3/4
f 1714/3/4 1713/3/4 1715/3/4
f 1720/1/5 1717/1/5 1716/1/5
f 1721/1/5 1717/1/5 1720/1/5
f 1722/1/5 1717/1/5 1721/1/5
f 1723/1/5 1717/1/5 1722/1/5
f 1724/1/5 1719/1/5 1718/1/5
f 1725/1/5 1719/1/5 1724/1/5
f 1726/1/5 1719/1/5 1725/1/5
f 1727/1/5 1719/1/5 1726/1/5
f 1728/1/5 1722/1/5 1721/1/5
f 1729/1/5 1722/1/5 1728/1/5
f 1730/1/5 1726/1/5 1725/1/5
f 1731/1/5 1726/1/5 1730/1/5
f 1734/1/5 1733/1/5 1732/1/5
f 1735/1/5 1733/1/5 1734/1/5
f 1736/1/5 1733/1/5 1735/1/5
f 1737/1/5 1733/1/5 1736/1/5
f 1738/1/5 1736/1/5 1735/1/5
f 1739/1/5 1736/1/5 1738/1/5
f 1740/1/5 1736/1/5 1739/1/5
f 1741/1/5 1736/1/5 1740/1/5
f 1743/1/5 1740/1/5 1739/1/5
f 1744/1/5 1740/1/5 1743/1/5
f 1747/1/5 1743/1/5 1742/1/5
f 1747/1/5 1745/1/5 1744/1/5
f 1747/1/5 1744/1/5 1743/1/5
f 1748/1/5 1745/1/5 1747/1/5
f 1750/1/5 1748/1/5 1747/1/5
f 1750/1/5 1749/1/5 1748/1/5
f 1750/1/5 1747/1/5 1746/1/5
f 1751/1/5 1749/1/5 1750/1/5
f 1759/1/5 1755/1/5 1754/1/5
f 1760/1/5 1755/1/5 1759/1/5
f 1764/1/5 1759/1/5 1758/1/5
f 1765/1/5 1759/1/5 1764/1/5
f 1766/1/5 1762/1/5 1761/1/5
f 1767/1/5 1762/1/5 1766/1/5
f 1769/1/5 1753/1/5 1752/1/5
f 1770/1/5 1753/1/5 1769/1/5
f 1771/1/5 1757/1/5 1756/1/5
f 1772/1/5 1757/1/5 1771/1/5
f 1773/1/5 1764/1/5 1763/1/5
f 1774/1/5 1764/1/5 1773/1/5
f 1777/1/5 1768/1/5 1767/1/5
f 1778/1/5 1768/1/5 1777/1/5
f 1779/1/5 1775/1/5 1774/1/5
f 1780/1/5 1775/1/5 1779/1/5
f 1782/1/5 1777/1/5 1776/1/5
f 1783/1/5 1777/1/5 1782/1/5
f 1784/1/5 1781/1/5 1780/1/5
f 1785/1/5 1781/1/5 1784/1/5
f 1790/1/5 1787/1/5 1786/1/5
f 1791/1/5 1787/1/5 1790/1/5
f 1792/1/5 1789/1/5 1788/1/5
f 1793/1/5 1789/1/5 1792/1/5
f 1798/1/5 1795/1/5 1794/1/5
f 1799/1/5 1795/1/5 1798/1/5
f 1800/1/5 1797/1/5 1796/1/5
f 1801/1/5 1797/1/5 1800/1/5
f 1810/1/5 1803/1/5 1802/1/5
f 1811/1/5 1803/1/5 1810/1/5
f 1812/1/5 1805/1/5 1804/1/5
f 1813/1/5 1805/1/5 1812/1/5
f 1814/1/5 1807/1/5 1806/1/5
f 1815/1/5 1807/1/5 1814/1/5
f 1816/1/5 1809/1/5 1808/1/5
f 1817/1/5 1809/1/5 1816/1/5
f 1822/1/5 1819/1/5 1818/1/5
f 1823/1/5 1819/1/5 1822/1/5
f 1824/1/5 1821/1/5 1820/1/5
f 1825/1/5 1821/1/5 1824/1/5
f 1830/3/5 1827/3/5 1826/3/5
f 1831/3/5 1827/3/5 1830/3/5
f 1832/3/5 1829/3/5 1828/3/5
f 1833/3/5 1829/3/5 1832/3/5
f 1842/1/5 1835/1/5 1834/1/5
f 1843/1/5 1835/1/5 1842/1/5
f 1844/1/5 1837/1/5 1836/1/5
f 1845/1/5 1837/1/5 1844/1/5
f 1846/1/5 1839/1/5 1838/1/5
f 1847/1/5 1839/1/5 1846/1/5
f 1848/1/5 1841/1/5 1840/1/5
f 1849/1/5 1841/1/5 1848/1/5
f 1856/3/5 1851/3/5 1850/3/5
f 1857/3/5 1851/3/5 1856/3/5
f 1858/3/5 1853/3/5 1852/3/5
f 1859/3/5 1853/3/5 1858/3/5
f 1860/3/5 1855/3/5 1854/3/5
f 1861/3/5 1855/3/5 1860/3/5
f 1864/3/5 1863/3/5 1862/3/5
f 1865/3/5 1863/3/5 1864/3/5
f 1870/3/5 1867/3/5 1866/3/5
f 1871/3/5 1867/3/5 1870/3/5
f 1872/3/5 1869/3/5 1868/3/5
f 1874/3/5 1870/3/5 1866/3/5
f 1875/3/5 1870/3/5 1874/3/5
f 1876/3/5 1869/3/5 1872/3/5
f 1877/3/5 1869/3/5 1876/3/5
f 1879/3/5 1874/3/5 1873/3/5
f 1880/3/5 1874/3/5 1879/3/5
f 1881/3/5 1878/3/5 1877/3/5
f 1882/3/5 1878/3/5 1881/3/5
f 1887/3/5 1884/3/5 1883/3/5
f 1888/3/5 1884/3/5 1887/3/5
f 1891/3/5 1886/3/5 1885/3/5
f 1892/3/5 1886/3/5 1891/3/5
f 1893/3/5 1886/3/5 1892/3/5
f 1894/3/5 1889/3/5 1888/3/5
f 1895/3/5 1889/3/5 1894/3/5
f 1896/3/5 1892/3/5 1891/3/5
f 1896/3/5 1891/3/5 1890/3/5
f 1897/3/5 1892/3/5 1896/3/5
f 1904/3/5 1899/3/5 1898/3/5
f 1905/3/5 1899/3/5 1904/3/5
f 1906/3/5 1901/3/5 1900/3/5
f 1907/3/5 1901/3/5 1906/3/5
f 1910/3/5 1903/3/5 1902/3/5
f 1911/3/5 1903/3/5 1910/3/5
f 1912/3/5 1904/3/5 1898/3/5
f 1913/3/5 1904/3/5 1912/3/5
f 1914/3/5 1901/3/5 1907/3/5
f 1915/3/5 1901/3/5 1914/3/5
f 1916/3/5 1909/3/5 1908/3/5
f 1917/3/5 1909/3/5 1916/3/5
f 1919/1/5 1913/1/5 1912/1/5
f 1920/1/5 1913/1/5 1919/1/5
f 1923/1/5 1915/1/5 1914/1/5
f 1924/1/5 1915/1/5 1923/1/5
f 1926/3/5 1921/3/5 1920/3/5
f 1926/3/5 1919/3/5 1918/3/5
f 1926/3/5 1920/3/5 1919/3/5
f 1927/3/5 1921/3/5 1926/3/5
f 1928/3/5 1921/3/5 1927/3/5
f 1929/3/5 1925/3/5 1924/3/5
f 1929/3/5 1924/3/5 1923/3/5
f 1929/3/5 1923/3/5 1922/3/5
f 1930/3/5 1925/3/5 1929/3/5
f 1931/3/5 1925/3/5 1930/3/5
f 1932/3/5 1928/3/5 1927/3/5
f 1933/3/5 1928/3/5 1932/3/5
f 1934/3/5 1930/3/5 1929/3/5
f 1935/3/5 1930/3/5 1934/3/5
f 1944/3/5 1937/3/5 1936/3/5
f 1945/3/5 1939/3/5 1938/3/5
f 1946/3/5 1939/3/5 1945/3/5
f 1947/3/5 1941/3/5 1940/3/5
f 1948/3/5 1941/3/5 1947/3/5
f 1949/3/5 1943/3/5 1942/3/5
f 1950/3/5 1944/3/5 1936/3/5
f 1951/3/5 1944/3/5 1950/3/5
f 1952/3/5 1943/3/5 1949/3/5
f 1953/3/5 1943/3/5 1952/3/5
f 1958/3/5 1955/3/5 1954/3/5
f 1959/3/5 1955/3/5 1958/3/5
f 1962/3/5 1957/3/5 1956/3/5
f 1963/3/5 1957/3/5 1962/3/5
f 1964/3/5 1960/3/5 1959/3/5
f 1965/3/5 1960/3/5 1964/3/5
f 1966/3/5 1962/3/5 1961/3/5
f 1967/3/5 1962/3/5 1966/3/5
f 1972/3/5 1969/3/5 1968/3/5
f 1973/3/5 1969/3/5 1972/3/5
f 1974/3/5 1971/3/5 1970/3/5
f 1975/3/5 1971/3/5 1974/3/5
f 1980/3/5 1977/3/5 1976/3/5
f 1981/3/5 1977/3/5 1980/3/5
f 1982/3/5 1979/3/5 1978/3/5
f 1983/3/5 1979/3/5 1982/3/5
f 1988/3/5 1985/3/5 1984/3/5
f 1989/3/5 1985/3/5 1988/3/5
f 1990/3/5 1987/3/5 1986/3/5
f 1991/3/5 1987/3/5 1990/3/5
f 1996/3/5 1993/3/5 1992/3/5
f 1997/3/5 1993/3/5 1996/3/5
f 1998/3/5 1995/3/5 1994/3/5
f 1999/3/5 1995/3/5 1998/3/5
f 2004/3/5 2001/3/5 2000/3/5
f 2005/3/5 2001/3/5 2004/3/5
f 2006/3/5 2003/3/5 2002/3/5
f 2007/3/5 2003/3/5 2006/3/5
f 2012/3/5 2009/3/5 2008/3/5
f 2013/3/5 2009/3/5 2012/3/5
f 2014/3/5 2011/3/5 2010/3/5
f 2015/3/5 2011/3/5 2014/3/5
f 2018/3/5 2017/3/5 2016/3/5
f 2019/3/5 2017/3/5 2018/3/5
f 2024/3/5 2021/3/5 2020/3/5
f 2025/3/5 2021/3/5 2024/3/5
f 2026/3/5 2023/3/5 2022/3/5
f 2027/3/5 2023/3/5 2026/3/5
f 2028/3/5 2024/3/5 2020/3/5
f 2029/3/5 2024/3/5 2028/3/5
f 2030/3/5 2023/3/5 2027/3/5
f 2031/3/5 2023/3/5 2030/3/5
f 2036/3/5 2033/3/5 2032/3/5
f 2037/3/5 2033/3/5 2036/3/5
f 2042/3/5 2035/3/5 2034/3/5
f 2043/3/5 2035/3/5 2042/3/5
f 2044/3/5 2039/3/5 2038/3/5
f 2045/3/5 2039/3/5 2044/3/5
f 2046/3/5 2041/3/5 2040/3/5
f 2047/3/5 2041/3/5 2046/3/5
f 2050/2/5 2049/2/5 2048/2/5
f 2051/2/5 2049/2/5 2050/2/5
f 2056/3/5 2053/3/5 2052/3/5
f 2059/3/5 2055/3/5 2054/3/5
f 2060/3/5 2057/3/5 2056/3/5
f 2060/3/5 2056/3/5 2052/3/5
f 2061/3/5 2057/3/5 2060/3/5
f 2062/3/5 2059/3/5 2058/3/5
f 2063/3/5 2055/3/5 2059/3/5
f 2063/3/5 2059/3/5 2062/3/5
f 2068/2/5 2065/2/5 2064/2/5
f 2069/2/5 2065/2/5 2068/2/5
f 2070/2/5 2067/2/5 2066/2/5
f 2071/2/5 2067/2/5 2070/2/5
f 2074/3/5 2073/3/5 2072/3/5
f 2075/3/5 2073/3/5 2074/3/5
f 2078/3/5 2077/3/5 2076/3/5
f 2079/3/5 2077/3/5 2078/3/5
f 2084/3/5 2081/3/5 2080/3/5
f 2085/3/5 2083/3/5 2082/3/5
f 2086/3/5 2081/3/5 2084/3/5
f 2087/3/5 2081/3/5 2086/3/5
f 2088/3/5 2085/3/5 2082/3/5
f 2089/3/5 2085/3/5 2088/3/5
f 2094/1/5 2091/1/5 2090/1/5
f 2095/1/5 2091/1/5 2094/1/5
f 2096/1/5 2093/1/5 2092/1/5
f 2097/1/5 2093/1/5 2096/1/5
f 2102/3/5 2099/3/5 2098/3/5
f 2103/3/5 2099/3/5 2102/3/5
f 2104/3/5 2101/3/5 2100/3/5
f 2105/3/5 2101/3/5 2104/3/5
f 2110/1/5 2107/1/5 2106/1/5
f 2111/1/5 2107/1/5 2110/1/5
f 2112/1/5 2109/1/5 2108/1/5
f 2113/1/5 2109/1/5 2112/1/5
f 2117/3/5 2115/3/5 2114/3/5
f 2118/3/5 2115/3/5 2117/3/5
f 2120/3/5 2117/3/5 2116/3/5
f 2120/3/5 2119/3/5 2118/3/5
f 2120/3/5 2118/3/5 2117/3/5
f 2121/3/5 2119/3/5 2120/3/5
f 2130/1/5 2123/1/5 2122/1/5
f 2131/1/5 2123/1/5 2130/1/5
f 2132/1/5 2125/1/5 2124/1/5
f 2133/1/5 2125/1/5 2132/1/5
f 2134/1/5 2127/1/5 2126/1/5
f 2135/1/5 2127/1/5 2134/1/5
f 2136/1/5 2129/1/5 2128/1/5
f 2137/1/5 2129/1/5 2136/1/5
f 2142/1/5 2139/1/5 2138/1/5
f 2143/1/5 2139/1/5 2142/1/5
f 2144/1/5 2141/1/5 2140/1/5
f 2145/1/5 2141/1/5 2144/1/5
f 2146/1/6 2147/1/6 2154/1/6
f 2154/1/6 2147/1/6 2155/1/6
f 2148/1/6 2149/1/6 2156/1/6
f 2156/1/6 2149/1/6 2157/1/6
f 2150/1/6 2151/1/6 2158/1/6
f 2158/1/6 2151/1/6 2159/1/6
f 2152/1/6 2153/1/6 2160/1/6
f 2160/1/6 2153/1/6 2161/1/6
f 2162/1/6 2163/1/6 2167/1/6
f 2167/1/6 2163/1/6 2168/1/6
f 2164/1/6 2165/1/6 2171/1/6
f 2171/1/6 2165/1/6 2172/1/6
f 2168/1/6 2169/1/6 2174/1/6
f 2166/1/6 2167/1/6 2174/1/6
f 2167/1/6 2168/1/6 2174/1/6
f 2174/1/6 2169/1/6 2175/1/6
f 2172/1/6 2173/1/6 2176/1/6
f 2171/1/6 2172/1/6 2176/1/6
f 2170/1/6 2171/1/6 2176/1/6
f 2176/1/6 2173/1/6 2177/1/6
f 2166/1/6 2174/1/6 2178/1/6
f 2178/1/6 2174/1/6 2179/1/6
f 2175/1/6 2169/1/6 2180/1/6
f 2180/1/6 2169/1/6 2181/1/6
f 2170/1/6 2176/1/6 2182/1/6
f 2182/1/6 2176/1/6 2183/1/6
f 2177/1/6 2173/1/6 2184/1/6
f 2184/1/6 2173/1/6 2185/1/6
f 2186/1/6 2187/1/6 2194/1/6
f 2194/1/6 2187/1/6 2195/1/6
f 2188/1/6 2189/1/6 2196/1/6
f 2196/1/6 2189/1/6 2197/1/6
f 2190/1/6 2191/1/6 2198/1/6
f 2198/1/6 2191/1/6 2199/1/6
f 2192/1/6 2193/1/6 2200/1/6
f 2200/1/6 2193/1/6 2201/1/6
f 2202/1/6 2203/1/6 2206/1/6
f 2206/1/6 2203/1/6 2207/1/6
f 2204/1/6 2205/1/6 2208/1/6
f 2208/1/6 2205/1/6 2209/1/6
f 2210/1/6 2211/1/6 2218/1/6
f 2218/1/6 2211/1/6 2219/1/6
f 2212/1/6 2213/1/6 2220/1/6
f 2220/1/6 2213/1/6 2221/1/6
f 2214/1/6 2215/1/6 2222/1/6
f 2222/1/6 2215/1/6 2223/1/6
f 2216/1/6 2217/1/6 2224/1/6
f 2224/1/6 2217/1/6 2225/1/6
f 2226/1/6 2227/1/6 2230/1/6
f 2230/1/6 2227/1/6 2231/1/6
f 2228/1/6 2229/1/6 2232/1/6
f 2232/1/6 2229/1/6 2233/1/6
f 2234/1/6 2235/1/6 2238/1/6
f 2238/1/6 2235/1/6 2239/1/6
f 2236/1/6 2237/1/6 2240/1/6
f 2240/1/6 2237/1/6 2241/1/6
f 2242/1/6 2243/1/6 2246/1/6
f 2246/1/6 2243/1/6 2247/1/6
f 2244/1/6 2245/1/6 2248/1/6
f 2248/1/6 2245/1/6 2249/1/6
f 2250/3/6 2251/3/6 2254/3/6
f 2254/3/6 2251/3/6 2255/3/6
f 2252/3/6 2253/3/6 2256/3/6
f 2256/3/6 2253/3/6 2257/3/6
f 2250/3/6 2254/3/6 2258/3/6
f 2258/3/6 2254/3/6 2259/3/6
f 2257/3/6 2253/3/6 2260/3/6
f 2260/3/6 2253/3/6 2261/3/6
f 2262/3/6 2263/3/6 2266/3/6
f 2266/3/6 2263/3/6 2267/3/6
f 2264/3/6 2265/3/6 2270/3/6
f 2270/3/6 2265/3/6 2271/3/6
f 2267/3/6 2268/3/6 2272/3/6
f 2272/3/6 2268/3/6 2273/3/6
f 2269/3/6 2270/3/6 2274/3/6
f 2274/3/6 2270/3/6 2275/3/6
f 2276/3/6 2277/3/6 2280/3/6
f 2280/3/6 2277/3/6 2281/3/6
f 2278/3/6 2279/3/6 2282/3/6
f 2282/3/6 2279/3/6 2283/3/6
f 2284/3/6 2285/3/6 2288/3/6
f 2288/3/6 2285/3/6 2289/3/6
f 2286/3/6 2287/3/6 2290/3/6
f 2290/3/6 2287/3/6 2291/3/6
f 2292/3/6 2293/3/6 2297/3/6
f 2297/3/6 2293/3/6 2298/3/6
f 2294/3/6 2295/3/6 2299/3/6
f 2299/3/6 2295/3/6 2300/3/6
f 2296/3/6 2297/3/6 2302/3/6
f 2302/3/6 2297/3/6 2303/3/6
f 2303/3/6 2297/3/6 2304/3/6
f 2300/3/6 2301/3/6 2305/3/6
f 2305/3/6 2301/3/6 2306/3/6
f 2306/3/6 2301/3/6 2307/3/6
f 2308/3/6 2309/3/6 2312/3/6
f 2312/3/6 2309/3/6 2313/3/6
f 2310/3/6 2311/3/6 2314/3/6
f 2314/3/6 2311/3/6 2315/3/6
f 2316/3/6 2317/3/6 2320/3/6
f 2320/3/6 2317/3/6 2321/3/6
f 2318/3/6 2319/3/6 2322/3/6
f 2322/3/6 2319/3/6 2323/3/6
f 2321/3/6 2322/3/6 2324/3/6
f 2324/3/6 2322/3/6 2325/3/6
f 2326/3/6 2327/3/6 2331/3/6
f 2328/3/6 2329/3/6 2332/3/6
f 2330/3/6 2331/3/6 2334/3/6
f 2331/3/6 2327/3/6 2335/3/6
f 2334/3/6 2331/3/6 2335/3/6
f 2332/3/6 2333/3/6 2340/3/6
f 2328/3/6 2332/3/6 2340/3/6
f 2340/3/6 2333/3/6 2341/3/6
f 2336/3/6 2337/3/6 2342/3/6
f 2342/3/6 2337/3/6 2343/3/6
f 2338/3/6 2339/3/6 2344/3/6
f 2344/3/6 2339/3/6 2345/3/6
f 2346/3/6 2347/3/6 2350/3/6
f 2350/3/6 2347/3/6 2351/3/6
f 2348/3/6 2349/3/6 2352/3/6
f 2352/3/6 2349/3/6 2353/3/6
f 2354/3/6 2355/3/6 2358/3/6
f 2358/3/6 2355/3/6 2359/3/6
f 2356/3/6 2357/3/6 2360/3/6
f 2360/3/6 2357/3/6 2361/3/6
f 2362/3/6 2363/3/6 2366/3/6
f 2366/3/6 2363/3/6 2367/3/6
f 2364/3/6 2365/3/6 2368/3/6
f 2368/3/6 2365/3/6 2369/3/6
f 2370/3/6 2371/3/6 2374/3/6
f 2374/3/6 2371/3/6 2375/3/6
f 2372/3/6 2373/3/6 2376/3/6
f 2376/3/6 2373/3/6 2377/3/6
f 2378/3/6 2379/3/6 2382/3/6
f 2382/3/6 2379/3/6 2383/3/6
f 2380/3/6 2381/3/6 2384/3/6
f 2384/3/6 2381/3/6 2385/3/6
f 2386/3/6 2387/3/6 2390/3/6
f 2390/3/6 2387/3/6 2391/3/6
f 2388/3/6 2389/3/6 2392/3/6
f 2392/3/6 2389/3/6 2393/3/6
f 2394/3/6 2395/3/6 2400/3/6
f 2400/3/6 2395/3/6 2401/3/6
f 2396/2/6 2397/2/6 2402/2/6
f 2402/2/6 2397/2/6 2403/2/6
f 2403/2/6 2397/2/6 2404/2/6
f 2404/2/6 2397/2/6 2405/2/6
f 2398/3/6 2399/3/6 2406/3/6
f 2406/3/6 2399/3/6 2407/3/6
f 2408/3/6 2409/3/6 2412/3/6
f 2412/3/6 2409/3/6 2413/3/6
f 2410/3/6 2411/3/6 2414/3/6
f 2414/3/6 2411/3/6 2415/3/6
f 2416/3/6 2417/3/6 2420/3/6
f 2420/3/6 2417/3/6 2421/3/6
f 2418/3/6 2419/3/6 2422/3/6
f 2422/3/6 2419/3/6 2423/3/6
f 2424/3/6 2425/3/6 2428/3/6
f 2428/3/6 2425/3/6 2429/3/6
f 2426/3/6 2427/3/6 2430/3/6
f 2430/3/6 2427/3/6 2431/3/6
f 2432/3/6 2433/3/6 2434/3/6
f 2434/3/6 2433/3/6 2435/3/6
f 2436/3/6 2437/3/6 2440/3/6
f 2440/3/6 2437/3/6 2441/3/6
f 2438/3/6 2439/3/6 2442/3/6
f 2442/3/6 2439/3/6 2443/3/6
f 2440/1/6 2441/1/6 2444/1/6
f 2444/1/6 2441/1/6 2445/1/6
f 2442/1/6 2443/1/6 2446/1/6
f 2446/1/6 2443/1/6 2447/1/6
f 2448/3/6 2449/3/6 2450/3/6
f 2450/3/6 2449/3/6 2451/3/6
f 2452/3/6 2453/3/6 2458/3/6
f 2453/3/6 2454/3/6 2458/3/6
f 2458/3/6 2454/3/6 2459/3/6
f 2456/3/6 2457/3/6 2460/3/6
f 2455/3/6 2456/3/6 2460/3/6
f 2460/3/6 2457/3/6 2461/3/6
f 2452/3/6 2458/3/6 2462/3/6
f 2462/3/6 2458/3/6 2463/3/6
f 2461/3/6 2457/3/6 2464/3/6
f 2464/3/6 2457/3/6 2465/3/6
f 2462/1/6 2463/1/6 2466/1/6
f 2466/1/6 2463/1/6 2467/1/6
f 2464/1/6 2465/1/6 2468/1/6
f 2468/1/6 2465/1/6 2469/1/6
f 2470/3/6 2471/3/6 2474/3/6
f 2474/3/6 2471/3/6 2475/3/6
f 2472/3/6 2473/3/6 2476/3/6
f 2476/3/6 2473/3/6 2477/3/6
f 2478/3/6 2479/3/6 2482/3/6
f 2482/3/6 2479/3/6 2483/3/6
f 2480/3/6 2481/3/6 2484/3/6
f 2484/3/6 2481/3/6 2485/3/6
f 2486/1/6 2487/1/6 2490/1/6
f 2488/1/6 2489/1/6 2491/1/6
f 2486/1/6 2490/1/6 2492/1/6
f 2492/1/6 2490/1/6 2493/1/6
f 2491/1/6 2489/1/6 2494/1/6
f 2494/1/6 2489/1/6 2495/1/6
f 2496/3/6 2497/3/6 2500/3/6
f 2500/3/6 2497/3/6 2501/3/6
f 2498/3/6 2499/3/6 2502/3/6
f 2502/3/6 2499/3/6 2503/3/6
f 2504/3/6 2505/3/6 2506/3/6
f 2506/3/6 2505/3/6 2507/3/6
f 2508/3/6 2509/3/6 2510/3/6
f 2510/3/6 2509/3/6 2511/3/6
f 2511/3/6 2509/3/6 2512/3/6
f 2512/3/6 2509/3/6 2513/3/6
f 2511/3/6 2512/3/6 2514/3/6
f 2514/3/6 2512/3/6 2515/3/6
f 2508/3/6 2510/3/6 2516/3/6
f 2516/3/6 2510/3/6 2517/3/6
f 2513/3/6 2509/3/6 2518/3/6
f 2518/3/6 2509/3/6 2519/3/6
f 2520/3/6 2521/3/6 2524/3/6
f 2522/3/6 2523/3/6 2525/3/6
f 2520/3/6 2524/3/6 2526/3/6
f 2524/3/6 2525/3/6 2526/3/6
f 2525/3/6 2523/3/6 2527/3/6
f 2526/3/6 2525/3/6 2527/3/6
f 2528/3/6 2529/3/6 2532/3/6
f 2530/3/6 2531/3/6 2533/3/6
f 2528/3/6 2532/3/6 2536/3/6
f 2532/3/6 2533/3/6 2536/3/6
f 2536/3/6 2533/3/6 2537/3/6
f 2537/3/6 2533/3/6 2538/3/6
f 2538/3/6 2533/3/6 2539/3/6
f 2533/3/6 2531/3/6 2540/3/6
f 2539/3/6 2533/3/6 2540/3/6
f 2540/3/6 2531/3/6 2541/3/6
f 2537/3/6 2538/3/6 2544/3/6
f 2544/3/6 2538/3/6 2545/3/6
f 2539/3/6 2540/3/6 2546/3/6
f 2546/3/6 2540/3/6 2547/3/6
f 2534/1/6 2535/1/6 2548/1/6
f 2548/1/6 2535/1/6 2549/1/6
f 2536/1/6 2537/1/6 2550/1/6
f 2537/3/6 2544/3/6 2551/3/6
f 2550/1/6 2537/1/6 2551/1/6
f 2551/3/6 2544/3/6 2552/3/6
f 2547/3/6 2540/3/6 2553/3/6
f 2540/1/6 2541/1/6 2554/1/6
f 2553/3/6 2540/3/6 2554/3/6
f 2554/1/6 2541/1/6 2555/1/6
f 2542/1/6 2543/1/6 2556/1/6
f 2556/1/6 2543/1/6 2557/1/6
f 2551/3/6 2552/3/6 2558/3/6
f 2554/3/6 2555/3/6 2558/3/6
f 2553/3/6 2554/3/6 2558/3/6
f 2552/3/6 2553/3/6 2558/3/6
f 2550/3/6 2551/3/6 2558/3/6
f 2558/3/6 2555/3/6 2559/3/6
f 2562/3/6 2563/3/6 2567/3/6
f 2567/3/6 2563/3/6 2568/3/6
f 2560/1/6 2561/1/6 2570/1/6
f 2570/1/6 2561/1/6 2571/1/6
f 2568/3/6 2569/3/6 2572/3/6
f 2566/3/6 2567/3/6 2572/3/6
f 2567/3/6 2568/3/6 2572/3/6
f 2572/3/6 2569/3/6 2573/3/6
f 2564/1/6 2565/1/6 2574/1/6
f 2574/1/6 2565/1/6 2575/1/6
